<?xml version="1.0" encoding="UTF-8"?>
<!DOCTYPE svg PUBLIC "-//W3C//DTD SVG 1.1//EN" "http://www.w3.org/Graphics/SVG/1.1/DTD/svg11.dtd">
<!-- Creator: CorelDRAW X7 -->
<svg xmlns="http://www.w3.org/2000/svg" xml:space="preserve" width="34.7622mm" height="27.864mm" version="1.1" style="shape-rendering:geometricPrecision; text-rendering:geometricPrecision; image-rendering:optimizeQuality; fill-rule:evenodd; clip-rule:evenodd"
viewBox="0 0 321 257"
 xmlns:xlink="http://www.w3.org/1999/xlink">
 <defs>
  <style type="text/css">
   <![CDATA[
    .str0 {stroke:#8B0304;stroke-width:9.23901}
    .fil2 {fill:none;fill-rule:nonzero}
    .fil1 {fill:black;fill-rule:nonzero}
    .fil0 {fill:#8B0304;fill-rule:nonzero}
   ]]>
  </style>
 </defs>
 <g id="Camada_x0020_1">
  <metadata id="CorelCorpID_0Corel-Layer"/>
  <path class="fil0" d="M58 135c35,0 59,-25 59,-67 0,-43 -24,-68 -59,-68 -34,0 -58,25 -58,68 0,42 24,67 58,67zm0 -35c-8,0 -14,-7 -14,-32 0,-25 6,-33 14,-33 9,0 15,8 15,33 0,25 -6,32 -15,32zm140 -51c-11,0 -19,2 -26,7 3,-15 13,-22 28,-22 8,0 16,1 24,7l15 -31c-9,-6 -24,-10 -40,-10 -42,0 -71,26 -71,72 0,42 25,63 62,63 29,0 52,-17 52,-45 0,-25 -20,-41 -44,-41l0 0zm-11 56c-8,0 -14,-5 -14,-13 0,-8 6,-13 14,-13 8,0 13,5 13,13 0,8 -5,13 -13,13z"/>
  <path class="fil1" d="M12 257l32 0c25,0 42,-16 42,-39 0,-23 -17,-40 -42,-40l-32 0 0 79 0 0zm8 -7l0 -64 23 0c21,0 35,13 35,32 0,19 -14,32 -35,32l-23 0zm93 0l0 -29 41 0 0 -7 -41 0 0 -28 46 0 0 -8 -54 0 0 79 56 0 0 -7 -48 0 0 0zm71 0l52 -66 0 -6 -62 0 0 8 51 0 -52 66 0 5 65 0 0 -7 -54 0 0 0z"/>
  <line class="fil2 str0" x1="317" y1="5" x2="317" y2= "257" />
 </g>
</svg>
