<?xml version="1.0" encoding="UTF-8"?>
<!DOCTYPE svg PUBLIC "-//W3C//DTD SVG 1.1//EN" "http://www.w3.org/Graphics/SVG/1.1/DTD/svg11.dtd">
<!-- Creator: CorelDRAW X7 -->
<svg xmlns="http://www.w3.org/2000/svg" xml:space="preserve" width="34.7723mm" height="27.8637mm" version="1.1" style="shape-rendering:geometricPrecision; text-rendering:geometricPrecision; image-rendering:optimizeQuality; fill-rule:evenodd; clip-rule:evenodd"
viewBox="0 0 777 623"
 xmlns:xlink="http://www.w3.org/1999/xlink">
 <defs>
  <style type="text/css">
   <![CDATA[
    .str0 {stroke:#8B0304;stroke-width:22.3552}
    .fil2 {fill:none;fill-rule:nonzero}
    .fil1 {fill:black;fill-rule:nonzero}
    .fil0 {fill:#8B0304;fill-rule:nonzero}
   ]]>
  </style>
 </defs>
 <g id="Camada_x0020_1">
  <metadata id="CorelCorpID_0Corel-Layer"/>
  <path class="fil0" d="M142 327c82,0 141,-60 141,-163 0,-104 -59,-164 -141,-164 -83,0 -142,60 -142,164 0,103 59,163 142,163zm0 -85c-21,0 -36,-18 -36,-78 0,-61 15,-80 36,-80 20,0 35,19 35,80 0,60 -15,78 -35,78zm164 -235l0 128 87 0 0 -46 60 0 -99 231 115 0 104 -248 0 -65 -267 0 0 0z"/>
  <path class="fil1" d="M28 623l78 0c61,0 103,-40 103,-96 0,-56 -42,-96 -103,-96l-78 0 0 192 0 0zm20 -18l0 -156 57 0c51,0 84,32 84,78 0,46 -33,78 -84,78l-57 0zm226 0l0 -71 99 0 0 -17 -99 0 0 -68 111 0 0 -18 -131 0 0 192 135 0 0 -18 -115 0 0 0zm171 0l127 -160 0 -14 -152 0 0 18 125 0 -127 160 0 14 157 0 0 -18 -130 0 0 0z"/>
  <line class="fil2 str0" x1="766" y1="12" x2="766" y2= "623" />
 </g>
</svg>
