<?xml version="1.0" encoding="UTF-8"?>
<!DOCTYPE svg PUBLIC "-//W3C//DTD SVG 1.1//EN" "http://www.w3.org/Graphics/SVG/1.1/DTD/svg11.dtd">
<!-- Creator: CorelDRAW X7 -->
<svg xmlns="http://www.w3.org/2000/svg" xml:space="preserve" width="34.7723mm" height="27.8639mm" version="1.1" style="shape-rendering:geometricPrecision; text-rendering:geometricPrecision; image-rendering:optimizeQuality; fill-rule:evenodd; clip-rule:evenodd"
viewBox="0 0 1129 905"
 xmlns:xlink="http://www.w3.org/1999/xlink">
 <defs>
  <style type="text/css">
   <![CDATA[
    .str0 {stroke:#8B0304;stroke-width:32.4745}
    .fil2 {fill:none;fill-rule:nonzero}
    .fil1 {fill:black;fill-rule:nonzero}
    .fil0 {fill:#8B0304;fill-rule:nonzero}
   ]]>
  </style>
 </defs>
 <g id="Camada_x0020_1">
  <metadata id="CorelCorpID_0Corel-Layer"/>
  <path class="fil0" d="M206 475c120,0 205,-87 205,-237 0,-151 -85,-238 -205,-238 -120,0 -206,87 -206,238 0,150 86,237 206,237zm0 -123c-30,0 -52,-27 -52,-114 0,-88 22,-115 52,-115 30,0 51,27 51,115 0,87 -21,114 -51,114zm587 -127c28,-22 45,-52 45,-89 0,-83 -78,-136 -188,-136 -110,0 -187,53 -187,136 0,37 17,67 44,89 -38,24 -61,59 -61,105 0,88 84,145 204,145 120,0 204,-57 204,-145 0,-46 -23,-81 -61,-105zm-143 -122c21,0 36,15 36,39 0,25 -15,39 -36,39 -20,0 -36,-14 -36,-39 0,-24 16,-39 36,-39zm0 269c-29,0 -50,-18 -50,-47 0,-30 21,-48 50,-48 29,0 50,18 50,48 0,29 -21,47 -50,47z"/>
  <path class="fil1" d="M41 905l113 0c89,0 149,-58 149,-139 0,-82 -60,-139 -149,-139l-113 0 0 278 0 0zm29 -26l0 -227 83 0c73,0 121,47 121,114 0,66 -48,113 -121,113l-83 0zm328 0l0 -103 144 0 0 -25 -144 0 0 -99 162 0 0 -25 -191 0 0 278 197 0 0 -26 -168 0 0 0zm248 0l185 -232 0 -20 -221 0 0 25 182 0 -185 232 0 21 228 0 0 -26 -189 0 0 0z"/>
  <line class="fil2 str0" x1="1113" y1="17" x2="1113" y2= "905" />
 </g>
</svg>
