<?xml version="1.0" encoding="UTF-8"?>
<!DOCTYPE svg PUBLIC "-//W3C//DTD SVG 1.1//EN" "http://www.w3.org/Graphics/SVG/1.1/DTD/svg11.dtd">
<!-- Creator: CorelDRAW X7 -->
<svg xmlns="http://www.w3.org/2000/svg" xml:space="preserve" width="130.705mm" height="42.2694mm" version="1.1" style="shape-rendering:geometricPrecision; text-rendering:geometricPrecision; image-rendering:optimizeQuality; fill-rule:evenodd; clip-rule:evenodd"
viewBox="0 0 13064 4225"
 xmlns:xlink="http://www.w3.org/1999/xlink">
 <defs>
  <style type="text/css">
   <![CDATA[
    .str0 {stroke:#8B0304;stroke-width:99.9485}
    .fil2 {fill:none}
    .fil1 {fill:black;fill-rule:nonzero}
    .fil0 {fill:#8B0304;fill-rule:nonzero}
   ]]>
  </style>
 </defs>
 <g id="Camada_x0020_1">
  <metadata id="CorelCorpID_0Corel-Layer"/>
  <g id="_2089878034160">
   <path class="fil0" d="M633 2197c370,0 633,-268 633,-731 0,-463 -263,-731 -633,-731 -369,0 -633,268 -633,731 0,463 264,731 633,731zm0 -377c-92,0 -160,-84 -160,-354 0,-269 68,-353 160,-353 92,0 160,84 160,353 0,270 -68,354 -160,354zm1807 -392c86,-68 138,-160 138,-275 0,-254 -237,-418 -577,-418 -339,0 -577,164 -577,418 0,115 52,207 138,275 -118,72 -188,182 -188,322 0,271 258,447 627,447 369,0 627,-176 627,-447 0,-140 -70,-250 -188,-322zm-439 -375c64,0 112,44 112,120 0,75 -48,119 -112,119 -64,0 -112,-44 -112,-119 0,-76 48,-120 112,-120zm0 827c-90,0 -154,-56 -154,-146 0,-90 64,-146 154,-146 90,0 154,56 154,146 0,90 -64,146 -154,146z"/>
   <path class="fil1" d="M5 3520l348 0c274,0 458,-177 458,-428 0,-252 -184,-428 -458,-428l-348 0 0 856zm90 -79l0 -699 253 0c227,0 374,144 374,350 0,205 -147,349 -374,349l-253 0zm1107 0l0 -318 443 0 0 -77 -443 0 0 -304 497 0 0 -78 -587 0 0 856 605 0 0 -79 -515 0zm862 0l566 -715 0 -62 -679 0 0 78 559 0 -567 715 0 63 702 0 0 -79 -581 0z"/>
   <path class="fil1" d="M4599 898l-102 -93 -71 0 121 93 52 0zm159 564l58 0 -239 -522 -54 0 -239 522 58 0 62 -139 291 0 63 139zm-334 -184l126 -280 125 280 -251 0zm622 189c134,0 195,-66 195,-143 0,-190 -321,-103 -321,-246 0,-53 42,-95 138,-95 46,0 98,14 143,43l18 -44c-41,-29 -102,-46 -161,-46 -133,0 -193,66 -193,143 0,193 322,105 322,248 0,52 -43,93 -141,93 -68,0 -135,-27 -172,-63l-22 42c39,40 116,68 194,68zm638 -536c-110,0 -198,68 -198,174 0,99 79,163 180,163 55,0 99,-17 130,-47 -4,101 -60,152 -147,152 -36,0 -69,-7 -98,-26l-44 89c36,23 89,35 144,35 158,0 267,-100 267,-281 0,-168 -89,-259 -234,-259zm9 247c-54,0 -89,-31 -89,-79 0,-47 36,-77 88,-77 57,0 91,32 91,77 0,46 -37,79 -90,79zm674 -238l0 206 -238 0 0 -206 -120 0 0 522 120 0 0 -214 238 0 0 214 120 0 0 -522 -120 0zm435 531c129,0 224,-97 224,-270 0,-172 -95,-270 -224,-270 -128,0 -224,98 -224,270 0,173 96,270 224,270zm0 -102c-60,0 -101,-49 -101,-168 0,-118 41,-167 101,-167 61,0 102,49 102,167 0,119 -41,168 -102,168zm507 102c129,0 223,-97 223,-270 0,-172 -94,-270 -223,-270 -129,0 -224,98 -224,270 0,173 95,270 224,270zm0 -102c-60,0 -102,-49 -102,-168 0,-118 42,-167 102,-167 60,0 102,49 102,167 0,119 -42,168 -102,168zm-2715 1126c77,0 146,-26 192,-76l-35 -35c-42,44 -95,62 -154,62 -126,0 -221,-92 -221,-216 0,-124 95,-216 221,-216 59,0 112,18 154,62l35 -36c-46,-50 -115,-76 -191,-76 -157,0 -274,113 -274,266 0,153 117,265 273,265zm365 -52l0 -194 270 0 0 -47 -270 0 0 -185 303 0 0 -48 -358 0 0 522 369 0 0 -48 -314 0zm861 48l-128 -179c76,-25 120,-82 120,-164 0,-112 -81,-179 -214,-179l-195 0 0 522 55 0 0 -166 140 0c15,0 29,0 42,-2l119 168 61 0zm-223 -213l-139 0 0 -261 139 0c104,0 159,47 159,131 0,82 -55,130 -159,130zm345 213l55 0 0 -522 -55 0 0 522zm722 -522l-224 387 -227 -387 -46 0 0 522 53 0 0 -415 205 349 27 0 205 -352 0 418 53 0 0 -522 -46 0zm444 -105l74 62 49 0 -96 -92 -54 0 -96 92 49 0 74 -62zm0 100c-158,0 -275,114 -275,266 0,152 117,265 275,265 156,0 274,-112 274,-265 0,-153 -118,-266 -274,-266zm0 482c-126,0 -220,-92 -220,-216 0,-125 94,-216 220,-216 125,0 218,91 218,216 0,124 -93,216 -218,216zm779 -477l0 424 -336 -424 -46 0 0 522 56 0 0 -424 335 424 46 0 0 -522 -55 0zm225 522l55 0 0 -522 -55 0 0 522zm615 0l58 0 -238 -522 -55 0 -239 522 58 0 63 -140 290 0 63 140zm-333 -184l125 -281 125 281 -250 0zm673 184l213 0c167,0 279,-107 279,-261 0,-154 -112,-261 -279,-261l-213 0 0 522zm55 -48l0 -426 155 0c138,0 228,88 228,213 0,125 -90,213 -228,213l-155 0zm616 0l0 -194 270 0 0 -47 -270 0 0 -185 303 0 0 -48 -358 0 0 522 369 0 0 -48 -314 0zm-5144 1085c91,0 167,-32 216,-93l-78 -71c-35,41 -79,62 -131,62 -98,0 -167,-69 -167,-168 0,-98 69,-167 167,-167 52,0 96,21 131,62l78 -72c-49,-60 -125,-93 -215,-93 -162,0 -283,113 -283,270 0,158 121,270 282,270zm539 0c164,0 286,-114 286,-270 0,-155 -122,-270 -286,-270 -165,0 -286,115 -286,270 0,156 121,270 286,270zm0 -102c-93,0 -163,-68 -163,-168 0,-99 70,-167 163,-167 93,0 163,68 163,167 0,100 -70,168 -163,168zm377 93l382 0 0 -98 -262 0 0 -424 -120 0 0 522zm845 0l126 0 -233 -522 -119 0 -233 522 124 0 46 -111 242 0 47 111zm-250 -203l83 -200 82 200 -165 0zm680 110c-98,0 -167,-69 -167,-168 0,-98 69,-167 167,-167 52,0 96,21 131,62l78 -72c-49,-60 -125,-93 -215,-93 -163,0 -283,113 -283,270 0,141 97,246 232,267l-16 68 25 0c26,0 37,9 37,21 0,14 -11,24 -39,24 -18,0 -34,-4 -48,-11l-18 50c17,10 43,15 69,15 66,0 110,-28 110,-73 0,-31 -20,-57 -65,-62l6 -29c86,-3 158,-35 205,-93l-78 -71c-35,41 -79,62 -131,62zm455 -516c27,0 53,47 104,47 53,0 86,-42 88,-107l-59 0c-2,25 -16,41 -36,41 -27,0 -53,-48 -105,-48 -52,0 -85,43 -87,109l59 0c2,-27 16,-42 36,-42zm215 609l127 0 -234 -522 -119 0 -233 522 124 0 46 -111 242 0 47 111zm-250 -203l83 -200 82 200 -165 0zm676 212c164,0 286,-114 286,-270 0,-155 -122,-270 -286,-270 -165,0 -285,115 -285,270 0,156 120,270 285,270zm0 -102c-93,0 -163,-68 -163,-168 0,-99 70,-167 163,-167 94,0 164,68 164,167 0,100 -70,168 -164,168zm588 93l237 0c171,0 288,-102 288,-261 0,-158 -117,-261 -288,-261l-237 0 0 522zm121 -99l0 -323 110 0c104,0 172,61 172,161 0,100 -68,162 -172,162l-110 0zm615 3l0 -121 243 0 0 -94 -243 0 0 -114 275 0 0 -97 -395 0 0 522 404 0 0 -96 -284 0zm944 -20c-30,17 -61,23 -94,23 -99,0 -169,-70 -169,-168 0,-99 70,-167 171,-167 53,0 97,19 135,59l78 -71c-51,-59 -127,-91 -219,-91 -166,0 -287,113 -287,270 0,158 121,270 285,270 74,0 153,-23 211,-66l0 -212 -111 0 0 153zm685 116l-117 -167c68,-29 107,-87 107,-165 0,-117 -87,-190 -226,-190l-226 0 0 522 121 0 0 -145 105 0 6 0 100 145 130 0zm-132 -332c0,56 -37,91 -111,91l-98 0 0 -182 98 0c74,0 111,33 111,91zm608 332l127 0 -234 -522 -119 0 -233 522 124 0 46 -111 243 0 46 111zm-250 -203l83 -200 83 200 -166 0zm652 212c148,0 236,-85 236,-238l0 -293 -119 0 0 288c0,99 -42,141 -116,141 -73,0 -117,-42 -117,-141l0 -288 -120 0 0 293c0,153 88,238 236,238z"/>
   <line class="fil2 str0" x1="3425" y1="788" x2="3425" y2= "3520" />
   <polygon class="fil2" points="13,0 13064,0 13064,4225 13,4225 "/>
  </g>
 </g>
</svg>
