<?xml version="1.0" encoding="UTF-8"?>
<!DOCTYPE svg PUBLIC "-//W3C//DTD SVG 1.1//EN" "http://www.w3.org/Graphics/SVG/1.1/DTD/svg11.dtd">
<!-- Creator: CorelDRAW X7 -->
<svg xmlns="http://www.w3.org/2000/svg" xml:space="preserve" width="130.574mm" height="42.2694mm" version="1.1" style="shape-rendering:geometricPrecision; text-rendering:geometricPrecision; image-rendering:optimizeQuality; fill-rule:evenodd; clip-rule:evenodd"
viewBox="0 0 13104 4242"
 xmlns:xlink="http://www.w3.org/1999/xlink">
 <defs>
  <style type="text/css">
   <![CDATA[
    .str0 {stroke:#8B0304;stroke-width:100.354}
    .fil2 {fill:none}
    .fil1 {fill:black;fill-rule:nonzero}
    .fil0 {fill:#8B0304;fill-rule:nonzero}
   ]]>
  </style>
 </defs>
 <g id="Camada_x0020_1">
  <metadata id="CorelCorpID_0Corel-Layer"/>
  <g id="_2089670681328">
   <path class="fil0" d="M662 2206c371,0 635,-269 635,-734 0,-465 -264,-734 -635,-734 -371,0 -636,269 -636,734 0,465 265,734 636,734zm0 -379c-93,0 -161,-84 -161,-355 0,-271 68,-355 161,-355 92,0 160,84 160,355 0,271 -68,355 -160,355zm735 -1057l0 572 392 0 0 -205 270 0 -445 1037 517 0 468 -1113 0 -291 -1202 0z"/>
   <path class="fil1" d="M0 3534l350 0c275,0 460,-177 460,-430 0,-253 -185,-429 -460,-429l-350 0 0 859zm91 -79l0 -702 254 0c228,0 376,145 376,351 0,206 -148,351 -376,351l-254 0zm1118 0l0 -319 444 0 0 -77 -444 0 0 -306 498 0 0 -78 -589 0 0 859 607 0 0 -79 -516 0zm871 0l568 -718 0 -62 -681 0 0 78 561 0 -570 718 0 63 705 0 0 -79 -583 0z"/>
   <path class="fil1" d="M4679 902l-103 -93 -71 0 122 93 52 0zm159 566l59 0 -240 -524 -54 0 -240 524 58 0 63 -140 292 0 62 140zm-334 -185l126 -281 125 281 -251 0zm624 190c134,0 196,-66 196,-143 0,-191 -323,-104 -323,-248 0,-52 43,-95 139,-95 46,0 98,14 143,43l19 -44c-42,-29 -103,-46 -162,-46 -134,0 -194,66 -194,143 0,194 323,106 323,250 0,52 -43,93 -141,93 -69,0 -135,-27 -173,-64l-21 43c39,40 116,68 194,68zm641 -538c-111,0 -199,68 -199,175 0,99 79,163 181,163 54,0 99,-17 130,-47 -4,101 -61,153 -148,153 -36,0 -69,-7 -98,-27l-45 89c37,24 90,36 146,36 158,0 267,-101 267,-282 0,-169 -89,-260 -234,-260zm9 247c-54,0 -90,-30 -90,-78 0,-48 36,-78 88,-78 58,0 91,33 91,78 0,45 -36,78 -89,78zm676 -238l0 207 -238 0 0 -207 -122 0 0 524 122 0 0 -215 238 0 0 215 121 0 0 -524 -121 0zm437 533c130,0 225,-98 225,-271 0,-173 -95,-271 -225,-271 -129,0 -225,98 -225,271 0,173 96,271 225,271zm0 -102c-60,0 -102,-50 -102,-169 0,-119 42,-168 102,-168 61,0 103,49 103,168 0,119 -42,169 -103,169zm509 102c129,0 224,-98 224,-271 0,-173 -95,-271 -224,-271 -129,0 -225,98 -225,271 0,173 96,271 225,271zm0 -102c-60,0 -102,-50 -102,-169 0,-119 42,-168 102,-168 60,0 102,49 102,168 0,119 -42,169 -102,169z"/>
   <path class="fil1" d="M4674 2506c78,0 146,-27 193,-78l-35 -35c-43,44 -95,63 -155,63 -127,0 -222,-93 -222,-217 0,-124 95,-217 222,-217 60,0 112,19 155,62l35 -35c-47,-51 -115,-77 -192,-77 -158,0 -275,113 -275,267 0,153 117,267 274,267zm667 0c134,0 215,-78 215,-229l0 -300 -54 0 0 298c0,124 -59,181 -161,181 -102,0 -161,-57 -161,-181l0 -298 -55 0 0 300c0,151 82,229 216,229zm527 -5l349 0 0 -48 -293 0 0 -476 -56 0 0 524zm640 0l56 0 0 -476 184 0 0 -48 -424 0 0 48 184 0 0 476zm696 5c157,0 275,-114 275,-267 0,-154 -118,-267 -275,-267 -159,0 -276,114 -276,267 0,153 117,267 276,267zm0 -50c-127,0 -221,-92 -221,-217 0,-125 94,-217 221,-217 126,0 219,92 219,217 0,125 -93,217 -219,217zm741 45l213 0c168,0 281,-108 281,-262 0,-154 -113,-262 -281,-262l-213 0 0 524zm55 -48l0 -428 155 0c140,0 229,88 229,214 0,126 -89,214 -229,214l-155 0zm765 0l0 -195 271 0 0 -47 -271 0 0 -186 304 0 0 -48 -360 0 0 524 371 0 0 -48 -315 0z"/>
   <path class="fil1" d="M4674 3543c92,0 167,-33 217,-94l-78 -72c-35,41 -79,62 -132,62 -98,0 -168,-69 -168,-167 0,-99 70,-168 168,-168 53,0 97,21 132,61l78 -72c-50,-60 -125,-92 -216,-92 -163,0 -284,113 -284,271 0,158 121,271 283,271zm684 0c164,0 286,-115 286,-271 0,-157 -122,-271 -286,-271 -166,0 -287,115 -287,271 0,155 121,271 287,271zm0 -104c-94,0 -164,-68 -164,-167 0,-100 70,-168 164,-168 93,0 164,68 164,168 0,99 -71,167 -164,167zm881 -429l0 318 -260 -318 -101 0 0 524 120 0 0 -319 261 319 100 0 0 -524 -120 0zm559 533c150,0 223,-75 223,-163 0,-192 -305,-125 -305,-222 0,-33 27,-60 99,-60 47,0 97,13 146,41l37 -92c-49,-31 -116,-46 -182,-46 -149,0 -221,74 -221,163 0,195 305,127 305,225 0,32 -29,56 -101,56 -63,0 -129,-22 -173,-54l-41 91c46,36 130,61 213,61zm840 -9l127 0 -234 -524 -120 0 -234 524 125 0 46 -113 243 0 47 113zm-251 -205l83 -200 83 200 -166 0zm922 88c-31,16 -61,22 -94,22 -101,0 -170,-69 -170,-167 0,-100 69,-168 171,-168 53,0 97,19 136,59l78 -72c-51,-59 -128,-90 -220,-90 -167,0 -288,113 -288,271 0,158 121,271 286,271 75,0 154,-23 212,-67l0 -213 -111 0 0 154zm830 117l-118 -169c68,-29 108,-87 108,-165 0,-118 -87,-190 -227,-190l-227 0 0 524 121 0 0 -146 106 0 6 0 101 146 130 0zm-133 -334c0,57 -37,91 -111,91l-99 0 0 -183 99 0c74,0 111,34 111,92zm753 334l127 0 -234 -524 -120 0 -233 524 124 0 46 -113 244 0 46 113zm-251 -205l83 -200 84 200 -167 0zm826 110c-98,0 -168,-69 -168,-167 0,-99 70,-168 168,-168 52,0 96,21 132,61l77 -72c-49,-60 -125,-92 -215,-92 -164,0 -285,113 -285,271 0,141 98,246 234,267l-17 68 26 0c26,0 37,9 37,22 0,14 -12,24 -39,24 -18,0 -35,-5 -49,-11l-18 50c17,9 43,15 70,15 66,0 110,-28 110,-74 0,-30 -20,-57 -65,-62l6 -28c86,-3 158,-35 205,-94l-77 -72c-36,41 -80,62 -132,62zm599 -517c27,0 53,47 105,47 52,0 86,-43 87,-107l-59 0c-1,25 -15,40 -36,40 -27,0 -53,-47 -104,-47 -53,0 -87,42 -88,109l59 0c2,-27 16,-42 36,-42zm216 612l127 0 -234 -524 -120 0 -234 524 124 0 47 -113 243 0 47 113zm-251 -205l83 -200 83 200 -166 0zm822 214c164,0 286,-115 286,-271 0,-157 -122,-271 -286,-271 -166,0 -287,115 -287,271 0,155 121,271 287,271zm0 -104c-94,0 -164,-68 -164,-167 0,-100 70,-168 164,-168 93,0 164,68 164,168 0,99 -71,167 -164,167z"/>
   <line class="fil2 str0" x1="3465" y1="791" x2="3465" y2= "3534" />
   <rect class="fil2" width="13104" height="4242"/>
  </g>
 </g>
</svg>
