<?xml version="1.0" encoding="UTF-8"?>
<!DOCTYPE svg PUBLIC "-//W3C//DTD SVG 1.1//EN" "http://www.w3.org/Graphics/SVG/1.1/DTD/svg11.dtd">
<!-- Creator: CorelDRAW X7 -->
<svg xmlns="http://www.w3.org/2000/svg" xml:space="preserve" width="130.574mm" height="42.2694mm" version="1.1" style="shape-rendering:geometricPrecision; text-rendering:geometricPrecision; image-rendering:optimizeQuality; fill-rule:evenodd; clip-rule:evenodd"
viewBox="0 0 4358 1411"
 xmlns:xlink="http://www.w3.org/1999/xlink">
 <defs>
  <style type="text/css">
   <![CDATA[
    .str0 {stroke:#8B0304;stroke-width:33.3726}
    .fil2 {fill:none}
    .fil1 {fill:black;fill-rule:nonzero}
    .fil0 {fill:#8B0304;fill-rule:nonzero}
   ]]>
  </style>
 </defs>
 <g id="Camada_x0020_1">
  <metadata id="CorelCorpID_0Corel-Layer"/>
  <g id="_2089670696432">
   <path class="fil0" d="M211 734c124,0 212,-90 212,-244 0,-155 -88,-245 -212,-245 -123,0 -211,90 -211,245 0,154 88,244 211,244zm0 -126c-30,0 -53,-28 -53,-118 0,-90 23,-118 53,-118 31,0 54,28 54,118 0,90 -23,118 -54,118zm504 -187c-40,0 -70,9 -93,26 11,-52 48,-79 101,-79 30,0 58,5 85,24l57 -110c-36,-23 -90,-37 -145,-37 -154,0 -259,96 -259,259 0,153 91,230 224,230 106,0 190,-64 190,-164 0,-91 -75,-149 -160,-149zm-40 204c-28,0 -48,-18 -48,-47 0,-30 20,-48 48,-48 28,0 48,18 48,48 0,29 -20,47 -48,47z"/>
   <path class="fil1" d="M0 1175l116 0c92,0 153,-59 153,-143 0,-84 -61,-143 -153,-143l-116 0 0 286zm30 -26l0 -233 85 0c76,0 125,48 125,116 0,69 -49,117 -125,117l-85 0zm369 0l0 -106 147 0 0 -26 -147 0 0 -101 165 0 0 -27 -195 0 0 286 202 0 0 -26 -172 0zm286 0l189 -239 0 -21 -226 0 0 27 186 0 -189 238 0 21 234 0 0 -26 -194 0z"/>
   <path class="fil1" d="M1567 300l-34 -31 -23 0 40 31 17 0zm53 188l20 0 -80 -174 -18 0 -80 174 19 0 21 -46 97 0 21 46zm-111 -61l42 -94 42 94 -84 0zm208 63c44,0 65,-22 65,-48 0,-63 -108,-34 -108,-82 0,-18 15,-32 46,-32 16,0 33,5 48,15l6 -15c-13,-10 -34,-16 -54,-16 -44,0 -64,23 -64,48 0,65 108,35 108,83 0,17 -15,31 -47,31 -23,0 -45,-9 -58,-21l-7 14c13,14 39,23 65,23zm143 -176l0 32 35 0 0 142 41 0 0 -174 -76 0zm167 -3c-37,0 -66,22 -66,58 0,33 27,54 60,54 18,0 33,-5 44,-15 -2,33 -21,50 -49,50 -12,0 -24,-2 -33,-8l-15 29c12,8 30,12 48,12 53,0 89,-33 89,-94 0,-56 -29,-86 -78,-86zm3 82c-18,0 -29,-10 -29,-26 0,-16 12,-26 29,-26 19,0 30,11 30,26 0,15 -12,26 -30,26zm225 -79l0 69 -79 0 0 -69 -40 0 0 174 40 0 0 -71 79 0 0 71 40 0 0 -174 -40 0zm152 71l40 -45 0 -26 -122 0 0 32 74 0 -36 41 0 27 18 0c23,0 33,8 33,21 0,14 -12,22 -33,22 -18,0 -36,-5 -49,-15l-16 31c17,12 42,18 66,18 50,0 73,-27 73,-56 0,-26 -16,-45 -48,-50zm141 106c43,0 75,-32 75,-90 0,-57 -32,-90 -75,-90 -43,0 -75,33 -75,90 0,58 32,90 75,90zm0 -34c-20,0 -34,-16 -34,-56 0,-39 14,-56 34,-56 20,0 34,17 34,56 0,40 -14,56 -34,56z"/>
   <path class="fil1" d="M1566 833c25,0 48,-8 64,-25l-12 -12c-14,15 -32,21 -51,21 -43,0 -74,-31 -74,-72 0,-42 31,-73 74,-73 19,0 37,7 51,21l12 -12c-16,-17 -39,-25 -64,-25 -53,0 -91,38 -91,89 0,51 38,88 91,88zm255 0c44,0 71,-26 71,-76l0 -100 -18 0 0 100c0,41 -19,60 -53,60 -34,0 -53,-19 -53,-60l0 -100 -19 0 0 100c0,50 27,76 72,76zm209 -1l116 0 0 -16 -98 0 0 -159 -18 0 0 175zm246 0l19 0 0 -159 61 0 0 -16 -141 0 0 16 61 0 0 159zm265 1c52,0 91,-37 91,-88 0,-51 -39,-89 -91,-89 -53,0 -92,38 -92,89 0,50 39,88 92,88zm0 -16c-42,0 -73,-31 -73,-72 0,-42 31,-73 73,-73 42,0 73,31 73,73 0,41 -31,72 -73,72zm280 15l71 0c56,0 93,-36 93,-87 0,-52 -37,-88 -93,-88l-71 0 0 175zm18 -16l0 -143 52 0c46,0 76,30 76,72 0,41 -30,71 -76,71l-52 0zm288 0l0 -65 90 0 0 -16 -90 0 0 -62 101 0 0 -16 -119 0 0 175 123 0 0 -16 -105 0z"/>
   <path class="fil1" d="M1600 1136c-10,6 -20,8 -31,8 -34,0 -57,-23 -57,-56 0,-33 23,-56 57,-56 18,0 33,6 45,20l26 -24c-17,-20 -42,-30 -73,-30 -55,0 -96,37 -96,90 0,53 41,90 96,90 24,0 51,-8 70,-22l0 -71 -37 0 0 51zm384 39l-39 -56c23,-10 36,-29 36,-55 0,-39 -29,-63 -76,-63l-75 0 0 174 40 0 0 -48 35 0 2 0 34 48 43 0zm-44 -111c0,19 -12,30 -37,30l-33 0 0 -60 33 0c25,0 37,11 37,30zm359 111l42 0 -78 -174 -40 0 -77 174 41 0 16 -37 80 0 16 37zm-84 -68l28 -67 28 67 -56 0zm327 68l41 0 0 -141 56 0 0 -33 -152 0 0 33 55 0 0 141zm274 0l40 0 0 -174 -40 0 0 174zm237 0l79 0c57,0 96,-34 96,-87 0,-53 -39,-87 -96,-87l-79 0 0 174zm40 -33l0 -108 37 0c35,0 58,21 58,54 0,33 -23,54 -58,54l-37 0zm377 -170c9,0 18,15 35,15 18,0 29,-14 29,-35l-19 0c-1,8 -5,13 -12,13 -9,0 -18,-16 -35,-16 -17,0 -29,14 -29,37l20 0c0,-9 5,-14 11,-14zm72 203l43 0 -78 -174 -40 0 -78 174 41 0 16 -37 81 0 15 37zm-83 -68l27 -67 28 67 -55 0zm381 71c55,0 96,-38 96,-90 0,-52 -41,-90 -96,-90 -55,0 -95,38 -95,90 0,52 40,90 95,90zm0 -34c-31,0 -54,-23 -54,-56 0,-33 23,-56 54,-56 31,0 55,23 55,56 0,33 -24,56 -55,56z"/>
   <line class="fil2 str0" x1="1144" y1="263" x2="1144" y2= "1175" />
   <polygon class="fil2" points="0,0 4358,0 4358,1411 0,1411 "/>
  </g>
 </g>
</svg>
