<?xml version="1.0" encoding="UTF-8"?>
<!DOCTYPE svg PUBLIC "-//W3C//DTD SVG 1.1//EN" "http://www.w3.org/Graphics/SVG/1.1/DTD/svg11.dtd">
<!-- Creator: CorelDRAW X7 -->
<svg xmlns="http://www.w3.org/2000/svg" xml:space="preserve" width="196.069mm" height="159.033mm" version="1.1" style="shape-rendering:geometricPrecision; text-rendering:geometricPrecision; image-rendering:optimizeQuality; fill-rule:evenodd; clip-rule:evenodd"
viewBox="0 0 19893 16136"
 xmlns:xlink="http://www.w3.org/1999/xlink">
 <defs>
  <style type="text/css">
   <![CDATA[
    .fil0 {fill:white;fill-rule:nonzero}
   ]]>
  </style>
 </defs>
 <g id="Camada_x0020_1">
  <metadata id="CorelCorpID_0Corel-Layer"/>
  <g id="_3079672899920">
   <path class="fil0" d="M3335 14579c-97,0 -183,-15 -238,-42l34 -91c38,17 117,37 209,37 129,0 196,-54 196,-142 0,-86 -48,-122 -204,-180 -149,-54 -224,-124 -224,-261 0,-139 113,-223 277,-223 95,0 174,19 240,49l-36 94c-60,-25 -131,-46 -206,-46 -108,0 -164,51 -164,127 0,89 48,125 189,177 153,58 237,116 237,254 0,156 -120,247 -310,247zm463 -13l0 -877 485 0 0 97 -375 0 0 274 325 0 0 96 -325 0 0 313 402 0 -37 97 -475 0zm745 -769l-5 0c5,50 9,144 9,237l0 532 -101 0 0 -877 162 0 267 719 5 0 272 -719 161 0 0 877 -108 0 0 -539c0,-85 4,-176 8,-229l-5 0 -289 768 -90 0 -286 -769zm915 769l36 -98 66 0 0 -682 -102 0 0 -97 313 0 -36 97 -66 0 0 682 102 0 0 98 -313 0zm1017 0l-464 -728 -5 0c4,57 10,148 10,238l0 490 -101 0 0 -877 126 0 463 726 5 0c-2,-39 -8,-151 -8,-231l0 -495 102 0 0 877 -128 0zm802 -1147c-30,45 -116,140 -173,184l-71 0 0 -15c35,-45 88,-126 116,-182l128 0 0 13zm-130 512c-7,-20 -32,-101 -41,-132 -12,51 -28,104 -38,132l-98 265 275 0 -98 -265zm130 364l-344 0 -103 271 -111 0 340 -881 98 0 338 881 -113 0 -105 -271zm444 -510l0 325 130 0c141,0 203,-56 203,-167 0,-114 -67,-158 -209,-158l-124 0zm446 153c0,140 -86,204 -174,235l238 393 -127 0 -210 -362 -173 0 0 362 -109 0 0 -877 239 0c215,0 316,82 316,249zm157 628l37 -98 66 0 0 -682 -103 0 0 -97 314 0 -36 97 -66 0 0 682 102 0 0 98 -314 0zm801 -83c197,0 285,-135 285,-357 0,-221 -88,-354 -283,-354 -197,0 -287,133 -287,354 0,222 90,357 285,357zm0 96c-271,0 -401,-182 -401,-454 0,-269 130,-450 403,-450 260,0 398,179 398,451 0,272 -138,453 -400,453zm1230 -648c-7,-20 -32,-101 -41,-132 -12,51 -28,104 -38,132l-98 265 275 0 -98 -265zm131 364l-344 0 -104 271 -110 0 339 -881 98 0 338 881 -113 0 -104 -271zm585 -512l-142 0 0 689 118 0c235,0 352,-118 352,-349 0,-234 -119,-340 -328,-340zm-9 783l-242 0 0 -877 267 0c261,0 428,149 428,430 0,296 -168,447 -453,447zm910 0l-110 0 -309 -877 114 0 195 563c26,72 43,134 55,191 11,-57 29,-120 55,-194l194 -560 116 0 -310 877zm426 0l0 -877 485 0 0 97 -376 0 0 274 326 0 0 96 -326 0 0 313 402 0 -36 97 -475 0zm1208 0l-464 -728 -5 0c3,57 10,148 10,238l0 490 -101 0 0 -877 126 0 463 726 5 0c-2,-39 -9,-151 -9,-231l0 -495 103 0 0 877 -128 0zm520 0l0 -780 -271 0 37 -97 613 0 0 97 -270 0 0 780 -109 0zm470 0l36 -98 66 0 0 -682 -102 0 0 -97 313 0 -36 97 -66 0 0 682 102 0 0 98 -313 0zm669 13c-97,0 -184,-15 -238,-42l34 -91c37,17 116,37 209,37 128,0 195,-54 195,-142 0,-86 -47,-122 -204,-180 -148,-54 -224,-124 -224,-261 0,-139 113,-223 278,-223 94,0 173,19 239,49l-35 94c-61,-25 -132,-46 -207,-46 -108,0 -164,51 -164,127 0,89 49,125 190,177 153,58 237,116 237,254 0,156 -121,247 -310,247zm662 -13l0 -780 -271 0 36 -97 614 0 0 97 -270 0 0 780 -109 0zm727 -635c-8,-20 -33,-101 -42,-132 -12,51 -28,104 -37,132l-99 265 275 0 -97 -265zm130 364l-344 0 -104 271 -110 0 339 -881 98 0 338 881 -113 0 -104 -271z"/>
   <path class="fil0" d="M205 15246l110 0 0 779 399 0 -36 98 -473 0 0 -877zm989 242c-7,-20 -33,-101 -41,-132 -12,51 -28,104 -38,132l-98 265 275 0 -98 -265zm130 364l-344 0 -103 271 -111 0 340 -881 98 0 338 881 -113 0 -105 -271zm408 271l0 -780 -271 0 37 -97 613 0 0 97 -269 0 0 780 -110 0zm470 0l36 -98 66 0 0 -682 -102 0 0 -97 313 0 -36 97 -66 0 0 682 102 0 0 98 -313 0zm1017 0l-464 -728 -5 0c4,57 10,148 10,238l0 490 -101 0 0 -877 126 0 463 726 5 0c-2,-39 -8,-151 -8,-231l0 -495 102 0 0 877 -128 0zm1211 -499l294 0 37 96 -294 0 -37 -96zm751 -136c-7,-20 -33,-101 -41,-132 -12,51 -28,104 -38,132l-98 265 274 0 -97 -265zm130 364l-344 0 -103 271 -111 0 339 -881 99 0 338 881 -113 0 -105 -271zm432 -498l-5 0c5,50 8,144 8,237l0 532 -101 0 0 -877 162 0 267 719 5 0 272 -719 161 0 0 877 -108 0 0 -539c0,-85 5,-176 8,-229l-5 0 -289 768 -90 0 -285 -769zm980 769l0 -877 485 0 0 97 -375 0 0 274 326 0 0 96 -326 0 0 313 402 0 -36 97 -476 0zm758 -781l0 325 130 0c141,0 203,-56 203,-167 0,-114 -67,-158 -209,-158l-124 0zm446 153c0,140 -87,204 -174,235l238 393 -127 0 -211 -362 -172 0 0 362 -110 0 0 -877 240 0c215,0 316,82 316,249zm157 628l37 -98 65 0 0 -682 -102 0 0 -97 314 0 -37 97 -65 0 0 682 102 0 0 98 -314 0zm516 -438c0,217 99,353 299,353 75,0 167,-17 223,-44l32 85c-95,44 -159,56 -264,57l-9 0c-265,-1 -397,-177 -397,-453 0,-265 148,-449 417,-449 89,0 166,14 232,47l-36 98c-54,-25 -119,-48 -197,-48 -186,0 -300,134 -300,354zm1051 -197c-8,-20 -33,-101 -42,-132 -12,51 -27,104 -37,132l-99 265 275 0 -97 -265zm130 364l-344 0 -103 271 -111 0 339 -881 99 0 337 881 -113 0 -104 -271zm894 271l-464 -728 -5 0c4,57 10,148 10,238l0 490 -101 0 0 -877 126 0 464 726 4 0c-2,-39 -8,-151 -8,-231l0 -495 102 0 0 877 -128 0zm1873 -783l-143 0 0 689 118 0c235,0 353,-118 353,-349 0,-234 -119,-340 -328,-340zm-10 783l-242 0 0 -877 267 0c262,0 428,149 428,430 0,296 -167,447 -453,447zm620 0l0 -877 485 0 0 97 -375 0 0 274 325 0 0 96 -325 0 0 313 402 0 -36 97 -476 0zm1170 0l0 -780 -271 0 36 -97 614 0 0 97 -270 0 0 780 -109 0zm500 0l0 -877 485 0 0 97 -375 0 0 274 325 0 0 96 -325 0 0 313 402 0 -37 97 -475 0zm1557 -877l110 0 0 779 400 0 -37 98 -473 0 0 -877zm2211 414l0 430c-92,30 -181,45 -299,46l-8 0c-268,-1 -414,-174 -414,-451 0,-274 166,-451 450,-451 97,0 185,19 259,51l-37 97c-62,-27 -145,-51 -228,-51 -208,0 -329,135 -329,354 0,210 93,355 327,355 76,0 126,-10 170,-21l0 -261 -191 0 36 -98 264 0zm123 463l37 -98 66 0 0 -682 -103 0 0 -97 314 0 -36 97 -66 0 0 682 102 0 0 98 -314 0zm-14798 13c261,-1 399,-182 399,-453 0,-273 -139,-451 -399,-451 -272,0 -402,181 -402,450 0,271 129,453 399,454l3 0zm283 -453c0,222 -87,357 -284,357 -196,0 -286,-135 -286,-357 0,-221 90,-354 287,-354 196,0 283,133 283,354zm7173 453c261,-1 399,-182 399,-453 0,-273 -139,-451 -399,-451 -272,0 -402,181 -402,450 0,271 129,453 399,454l3 0zm283 -453c0,222 -87,357 -284,357 -196,0 -286,-135 -286,-357 0,-221 90,-354 287,-354 196,0 283,133 283,354zm4555 0c0,-273 -138,-451 -398,-451 -273,0 -403,181 -403,450 0,271 130,453 400,454l3 0c260,-1 398,-182 398,-453zm-398 -354c195,0 283,133 283,354 0,222 -88,357 -285,357 -195,0 -285,-135 -285,-357 0,-221 90,-354 287,-354zm1928 354c0,-273 -139,-451 -399,-451 -272,0 -402,181 -402,450 0,271 130,453 399,454l4 0c260,-1 398,-182 398,-453zm-115 0c0,222 -88,357 -285,357 -196,0 -286,-135 -286,-357 0,-221 90,-354 287,-354 196,0 284,133 284,354zm1702 169l344 0 104 271 113 0 -338 -881 -98 0 -339 881 110 0 104 -271zm36 -99l99 -265c9,-28 25,-81 37,-132 9,31 34,112 42,132l97 265 -275 0z"/>
   <g>
    <polygon class="fil0" points="0,9326 81,9108 226,9108 226,7601 0,7601 0,7387 693,7387 612,7601 467,7601 467,9108 693,9108 693,9326 "/>
    <path class="fil0" d="M1740 8335c0,-212 -99,-318 -295,-318 -196,0 -296,108 -296,320 0,201 100,302 299,302 196,0 292,-104 292,-304zm161 1164c0,-78 -21,-130 -64,-157 -46,-27 -132,-41 -261,-41l-247 0c-201,0 -300,87 -300,264 0,152 118,230 354,230 347,0 518,-97 518,-296zm-1098 74c0,-188 105,-307 314,-359 -83,-40 -126,-111 -126,-203 0,-101 59,-185 175,-256 -164,-67 -250,-241 -250,-410 0,-339 209,-502 537,-502 75,0 140,8 196,27l497 0 -70 185 -188 0c56,76 86,171 86,282 0,302 -218,467 -529,467 -48,0 -86,-2 -113,-8 -89,49 -132,109 -132,177 0,73 73,111 213,111l244 0c290,0 470,133 470,394 0,334 -247,499 -741,499 -336,0 -583,-116 -583,-404z"/>
    <path class="fil0" d="M3215 7859l-30 220c-46,-11 -107,-19 -156,-19 -223,0 -419,196 -419,489l0 777 -236 0 0 -1456 193 0 27 266 11 0c91,-160 239,-293 440,-293 54,0 121,5 170,16z"/>
    <path class="fil0" d="M3491 8454l733 0c-2,-247 -110,-415 -349,-415 -225,0 -360,154 -384,415zm981 46l0 144 -986 0c8,329 172,505 459,505 140,0 282,-27 395,-70l67 179c-148,65 -277,95 -473,95 -411,0 -693,-258 -693,-744 0,-478 256,-766 637,-766 368,0 594,261 594,657z"/>
    <path class="fil0" d="M4858 7324c73,0 137,47 137,152 0,104 -64,152 -137,152 -78,0 -140,-48 -140,-152 0,-105 62,-152 140,-152zm-309 2455c153,-71 188,-174 188,-432l0 -1477 237 0 0 1491c0,285 -76,510 -350,616l-75 -198z"/>
    <path class="fil0" d="M5938 8622c-360,14 -476,117 -476,302 0,163 108,236 264,236 241,0 424,-133 424,-415l0 -131 -212 8zm446 -287l0 991 -172 0 -46 -207 -11 0c-126,160 -241,234 -483,234 -261,0 -454,-136 -454,-432 0,-291 220,-451 690,-464l245 -8 0 -87c0,-242 -111,-323 -299,-323 -150,0 -287,54 -405,111l-73 -179c127,-68 304,-125 492,-125 349,0 516,149 516,489z"/>
    <path class="fil0" d="M8137 7922c-16,-44 -72,-223 -91,-291 -27,112 -62,228 -83,291l-218 586 607 0 -215 -586zm288 804l-761 0 -228 600 -244 0 749 -1947 218 0 746 1947 -249 0 -231 -600z"/>
    <path class="fil0" d="M9993 8647l0 -44c0,-361 -97,-562 -416,-562 -256,0 -382,220 -382,565 0,348 126,549 384,549 304,0 414,-169 414,-508zm-1042 -46c0,-500 236,-758 593,-758 223,0 358,95 446,215l16 0c-5,-47 -16,-161 -16,-215l0 -489 237 -92 0 2064 -191 0 -35 -196 -11 0c-86,125 -223,223 -448,223 -358,0 -591,-253 -591,-752z"/>
    <path class="fil0" d="M10422 7870l253 0 306 858c43,120 100,296 116,386l10 0c19,-90 81,-269 121,-386l306 -858 253 0 -548 1456 -271 0 -546 -1456z"/>
    <path class="fil0" d="M12122 8454l734 0c-3,-247 -110,-415 -349,-415 -226,0 -360,154 -385,415zm981 46l0 144 -986 0c8,329 172,505 459,505 140,0 282,-27 395,-70l67 179c-147,65 -276,95 -472,95 -411,0 -693,-258 -693,-744 0,-478 255,-766 636,-766 368,0 594,261 594,657z"/>
    <path class="fil0" d="M14572 8378l0 948 -234 0 0 -932c0,-233 -102,-350 -322,-350 -320,0 -422,187 -422,527l0 755 -236 0 0 -1456 190 0 35 198 14 0c94,-152 271,-225 454,-225 344,0 521,160 521,535z"/>
    <path class="fil0" d="M15533 9122l65 171c-51,33 -153,60 -264,60 -225,0 -421,-98 -421,-451l0 -1276 236 -90 0 334 416 0 0 185 -416 0 0 842c0,176 94,260 226,260 53,0 126,-19 158,-35z"/>
    <path class="fil0" d="M16100 9326l-237 0 0 -1456 237 0 0 1456zm21 -1850c0,104 -64,152 -137,152 -78,0 -139,-48 -139,-152 0,-105 61,-152 139,-152 73,0 137,47 137,152z"/>
    <path class="fil0" d="M16865 9353c-201,0 -341,-33 -451,-93l70 -184c94,41 250,84 386,84 240,0 342,-84 342,-215 0,-108 -73,-173 -355,-282 -279,-109 -446,-195 -446,-434 0,-247 218,-386 540,-386 175,0 325,38 459,98l-72 193c-124,-55 -263,-95 -403,-95 -193,0 -298,67 -298,176 0,122 94,171 370,277 274,103 433,198 433,432 0,282 -223,429 -575,429z"/>
    <path class="fil0" d="M18350 9122l65 171c-51,33 -153,60 -264,60 -225,0 -421,-98 -421,-451l0 -1276 236 -90 0 334 416 0 0 185 -416 0 0 842c0,176 94,260 226,260 53,0 126,-19 158,-35z"/>
    <path class="fil0" d="M19242 8622c-360,14 -476,117 -476,302 0,163 108,236 264,236 241,0 424,-133 424,-415l0 -131 -212 8zm446 -287l0 991 -172 0 -46 -207 -11 0c-126,160 -241,234 -483,234 -261,0 -454,-136 -454,-432 0,-291 220,-451 690,-464l245 -8 0 -87c0,-242 -110,-323 -298,-323 -151,0 -288,54 -406,111l-73 -179c127,-68 304,-125 492,-125 349,0 516,149 516,489z"/>
   </g>
   <g>
    <path class="fil0" d="M2665 11559l0 -44c0,-361 -96,-562 -416,-562 -255,0 -381,220 -381,565 0,347 126,548 384,548 303,0 413,-168 413,-507zm-1042 -47c0,-499 237,-757 594,-757 223,0 357,95 446,214l16 0c-6,-46 -16,-160 -16,-214l0 -489 236 -92 0 2063 -191 0 -35 -195 -10 0c-86,125 -223,223 -449,223 -357,0 -591,-253 -591,-753z"/>
    <path class="fil0" d="M3807 12066c290,0 421,-214 421,-559 0,-345 -131,-551 -424,-551 -293,0 -419,206 -419,551 0,345 129,559 422,559zm-6 199c-381,0 -660,-275 -660,-758 0,-481 255,-752 668,-752 390,0 664,271 664,752 0,483 -261,758 -672,758z"/>
    <path class="fil0" d="M5979 12265c-215,0 -405,-33 -526,-93l75 -201c83,38 258,82 462,82 285,0 432,-120 432,-313 0,-190 -104,-271 -451,-399 -327,-119 -494,-274 -494,-575 0,-307 250,-495 612,-495 210,0 384,44 530,109l-78 209c-135,-57 -290,-103 -457,-103 -239,0 -363,114 -363,282 0,196 108,275 419,391 339,128 524,256 524,560 0,345 -266,546 -685,546z"/>
    <path class="fil0" d="M7827 10185c-67,100 -258,309 -384,407l-156 0 0 -33c78,-100 194,-279 255,-402l285 0 0 28zm-747 1181l734 0c-3,-247 -111,-416 -350,-416 -225,0 -359,155 -384,416zm981 46l0 144 -986 0c8,328 172,505 459,505 140,0 282,-27 395,-71l67 179c-147,66 -276,96 -472,96 -411,0 -693,-258 -693,-744 0,-478 255,-766 636,-766 368,0 594,260 594,657z"/>
    <path class="fil0" d="M8933 12034l65 171c-51,32 -153,60 -263,60 -226,0 -422,-98 -422,-451l0 -1276 236 -90 0 334 417 0 0 185 -417 0 0 841c0,177 94,261 226,261 54,0 126,-19 158,-35z"/>
    <path class="fil0" d="M9500 12237l-236 0 0 -1455 236 0 0 1455zm22 -1849c0,103 -65,152 -137,152 -78,0 -140,-49 -140,-152 0,-106 62,-152 140,-152 72,0 137,46 137,152z"/>
    <path class="fil0" d="M11957 11290l0 947 -233 0 0 -936c0,-229 -94,-345 -293,-345 -279,0 -389,168 -389,478l0 803 -234 0 0 -936c0,-229 -94,-345 -296,-345 -290,0 -384,187 -384,526l0 755 -236 0 0 -1455 191 0 35 198 13 0c89,-152 253,-225 424,-225 221,0 371,79 441,244l13 0c97,-165 274,-244 462,-244 325,0 486,160 486,535z"/>
    <path class="fil0" d="M12881 12066c290,0 422,-214 422,-559 0,-345 -132,-551 -425,-551 -292,0 -419,206 -419,551 0,345 129,559 422,559zm-5 199c-382,0 -661,-275 -661,-758 0,-481 255,-752 669,-752 389,0 663,271 663,752 0,483 -260,758 -671,758z"/>
    <path class="fil0" d="M15153 10508l-314 0 0 1520 260 0c519,0 779,-260 779,-771 0,-516 -263,-749 -725,-749zm-21 1729l-535 0 0 -1938 591 0c577,0 945,328 945,950 0,654 -370,988 -1001,988z"/>
    <path class="fil0" d="M16654 12237l-236 0 0 -1455 236 0 0 1455zm22 -1849c0,103 -65,152 -137,152 -78,0 -140,-49 -140,-152 0,-106 62,-152 140,-152 72,0 137,46 137,152z"/>
    <path class="fil0" d="M17618 11534c-359,14 -475,117 -475,301 0,163 108,237 263,237 242,0 425,-133 425,-416l0 -130 -213 8zm446 -288l0 991 -172 0 -45 -206 -11 0c-126,160 -242,234 -483,234 -261,0 -454,-136 -454,-432 0,-291 220,-451 690,-465l244 -8 0 -87c0,-241 -110,-323 -298,-323 -150,0 -287,55 -405,112l-73 -180c126,-68 304,-125 492,-125 349,0 515,150 515,489z"/>
    <path class="fil0" d="M18292 10375c25,0 41,-14 41,-36 0,-21 -14,-32 -41,-32l-24 0 0 68 24 0zm-61 -101l61 0c54,0 78,22 78,65 0,30 -18,46 -37,55l56 95 -43 0 -48 -85 -30 0 0 85 -37 0 0 -215zm217 109c0,-84 -62,-155 -150,-155 -89,0 -151,65 -151,155 0,84 62,152 151,152 83,0 150,-63 150,-152zm-327 0c0,-106 72,-182 177,-182 99,0 177,76 177,182 0,103 -75,179 -177,179 -105,0 -177,-76 -177,-179z"/>
   </g>
   <g>
    <path class="fil0" d="M9729 6032c0,26 30,26 35,0 40,-194 100,-323 194,-449l-211 0c-10,0 -18,8 -18,18l0 431zm1552 -2693c-9,-28 -33,-30 -33,0 2,280 -78,521 -584,1033l-400 405c-183,184 -347,352 -443,520l395 0c15,-15 31,-31 47,-47l574 -581c479,-484 546,-996 444,-1330zm-537 1711l-480 486c-291,293 -535,546 -535,823l0 77c0,21 26,24 34,3 90,-248 389,-513 939,-419 0,0 2395,418 2415,420 23,2 35,-21 20,-39 -9,-11 -1115,-1129 -1115,-1129l-1278 -222zm-1733 533c-10,0 -17,-8 -17,-17l0 -251c0,-10 7,-18 17,-18l419 0c10,0 18,-7 18,-17 -1,-225 -169,-378 -841,-260l-1452 252c0,0 -1105,1118 -1114,1129 -16,18 -4,41 19,39 21,-2 2415,-420 2415,-420 550,-94 850,171 939,419 8,21 34,18 34,-3 0,-15 0,-835 0,-835 0,-10 -8,-18 -17,-18l-420 0zm-669 -3501c-478,484 -545,995 -443,1329 9,28 33,30 33,1 -3,-281 77,-522 583,-1034l1092 -1103c290,-294 534,-547 534,-824l0 -431c0,-27 -29,-27 -35,0 -72,352 -211,491 -498,782l-1266 1280zm1800 -872l0 -435c0,-26 -29,-26 -35,0 -72,352 -211,493 -498,784l-1146 1158c-557,562 -653,1107 -370,1457 19,23 39,9 27,-19 -187,-428 261,-882 475,-1098l1013 -1024c290,-294 534,-547 534,-823zm-1648 2234c-556,563 -300,1106 24,1255 29,13 40,-10 18,-29 -260,-228 -181,-611 146,-942l925 -935c290,-294 534,-547 534,-824l0 -431c0,-27 -30,-27 -35,0 -72,352 -211,490 -498,781l-1114 1125zm1234 1398l0 435c0,26 30,26 35,0 72,-352 211,-494 499,-784l455 -460c556,-562 652,-1106 369,-1456 -18,-24 -39,-10 -26,19 187,427 -262,881 -475,1097l-322 326c-291,293 -535,546 -535,823zm535 -1109c-288,290 -427,429 -499,781 -5,26 -35,26 -35,0l0 -432c0,-276 244,-530 535,-823l233 -236c328,-331 407,-715 146,-943 -21,-19 -10,-42 18,-29 325,150 581,693 24,1255l-422 427z"/>
    <path class="fil0" d="M12960 5615c26,0 41,-14 41,-34 0,-24 -13,-33 -41,-33l-24 0 0 67 24 0zm-61 -99l62 0c53,0 77,21 77,64 0,30 -18,48 -38,55l56 96 -41 0 -49 -85 -30 0 0 85 -37 0 0 -215zm217 107c0,-85 -62,-154 -150,-154 -88,0 -151,64 -151,154 0,85 63,154 151,154 83,0 150,-64 150,-154zm-328 0c0,-104 75,-180 178,-180 98,0 178,76 178,180 0,105 -75,180 -178,180 -103,0 -178,-75 -178,-180z"/>
   </g>
  </g>
 </g>
</svg>
