<?xml version="1.0" encoding="UTF-8"?>
<!DOCTYPE svg PUBLIC "-//W3C//DTD SVG 1.1//EN" "http://www.w3.org/Graphics/SVG/1.1/DTD/svg11.dtd">
<!-- Creator: CorelDRAW X7 -->
<svg xmlns="http://www.w3.org/2000/svg" xml:space="preserve" width="130.687mm" height="141.663mm" version="1.1" style="shape-rendering:geometricPrecision; text-rendering:geometricPrecision; image-rendering:optimizeQuality; fill-rule:evenodd; clip-rule:evenodd"
viewBox="0 0 13357 14479"
 xmlns:xlink="http://www.w3.org/1999/xlink">
 <defs>
  <style type="text/css">
   <![CDATA[
    .fil0 {fill:white}
   ]]>
  </style>
 </defs>
 <g id="Camada_x0020_1">
  <metadata id="CorelCorpID_0Corel-Layer"/>
  <g id="_3079671667552">
   <g>
    <path class="fil0" d="M6857 1714c938,-534 2081,-750 3100,-475l0 1519 -3100 0 0 -1044zm3100 1574l0 3637c-696,-614 -1964,-536 -3100,170l0 -3807 3100 0zm-3946 -1571c122,0 241,8 359,23l0 1018 -2513 0c503,-634 1281,-1041 2154,-1041zm359 1571l0 1041 -3104 0c19,-371 110,-723 261,-1041l2843 0zm0 1330l0 1153 -2777 0c-188,-346 -303,-737 -326,-1153l3103 0zm0 1442l0 1130c-118,15 -237,23 -359,23 -923,0 -1740,-455 -2238,-1153l2597 0z"/>
    <path class="fil0" d="M6857 1374c753,-844 1821,-1313 2966,-1374l0 228c-1246,100 -2160,564 -2966,1146z"/>
    <path class="fil0" d="M6857 1573c986,-828 2189,-1106 3100,-985 0,123 0,147 0,270 -852,-167 -2281,170 -3100,715z"/>
   </g>
   <g>
    <path class="fil0" d="M7379 9645c-50,0 -70,7 -70,-17l0 -1097c156,0 292,-29 292,222l0 665c0,73 -16,133 -47,175 -31,43 -101,52 -175,52zm-263 193l304 0c257,0 379,-169 379,-426l0 -654c0,-278 -140,-425 -403,-425l-280 0 0 1505z"/>
    <path class="fil0" d="M9065 9645l-70 0 0 -1114c154,0 292,-31 292,227l0 654c0,192 -73,233 -222,233zm-262 193l297 0c277,0 386,-179 386,-455 0,-147 14,-668 -22,-784 -95,-313 -345,-266 -661,-266l0 1505z"/>
    <path class="fil0" d="M5570 9458c0,107 27,205 93,280 26,30 71,60 111,76 84,35 224,29 306,-21 137,-82 167,-222 167,-399l0 -1044c0,-13 -4,-17 -18,-17l-181 0 0 1102c0,192 -64,204 -169,204 -91,0 -117,-110 -117,-204l0 -1102 -192 0 0 1125z"/>
    <path class="fil0" d="M8336 8875l82 350 -164 0c27,-117 55,-233 82,-350zm-420 963l198 0c3,-33 18,-70 24,-105 12,-73 65,-260 70,-315l256 0 86 375c12,61 -3,45 212,45l-42 -192c-29,-112 -58,-267 -88,-378 -43,-156 -93,-405 -133,-568l-76 -331c-11,-47 8,-36 -151,-36 -25,0 -19,30 -32,79 -8,33 -12,64 -21,95 -18,58 -28,126 -44,190 -61,240 -114,516 -175,758 -6,21 -84,351 -84,383z"/>
    <path class="fil0" d="M4315 8875l12 40c12,58 69,277 70,310l-164 0c27,-116 55,-233 82,-350zm-420 963l198 0 94 -420 245 0c22,0 18,22 22,41l63 276c7,39 16,103 37,103l187 0c0,-28 -32,-151 -41,-187l-197 -847c-8,-33 -13,-61 -21,-96l-91 -375 -152 0 -130 558c-12,60 -31,128 -43,190 -26,127 -62,246 -87,374 -13,69 -84,340 -84,383z"/>
    <path class="fil0" d="M9596 8350l0 1488 625 0 0 -193 -426 0 0 -461 426 0 0 -198 -426 0 0 -455 426 0 0 -198 -607 0c-13,0 -18,4 -18,17z"/>
    <path class="fil0" d="M4782 8729l0 712c0,234 125,397 362,397 225,0 350,-184 350,-385l0 -146 -193 0c-18,80 29,297 -113,330 -154,36 -214,-73 -214,-214l0 -670c0,-54 12,-121 32,-156 30,-52 67,-66 138,-66 87,0 121,41 141,110 30,103 -13,222 28,222l181 0c0,-158 8,-359 -144,-463 -21,-14 -33,-25 -56,-36 -126,-59 -331,-33 -420,78 -56,71 -92,162 -92,287z"/>
    <path class="fil0" d="M3136 9838l193 0 0 -654 432 0 0 -181c0,-13 -4,-17 -18,-17l-414 0 0 -455 432 0 0 -181c0,-13 -4,-17 -18,-17l-607 0 0 1505z"/>
    <path class="fil0" d="M6393 9838l642 0c13,0 17,-5 17,-18l0 -163c0,-14 -4,-18 -17,-18l-450 0 0 -1306 -192 0 0 1505z"/>
   </g>
   <g>
    <path class="fil0" d="M6057 10923l0 1151c309,0 262,24 262,-87l0 -774c4,5 2,2 8,10l492 828c8,14 7,23 24,23l262 0 0 -1279c-309,0 -262,-24 -262,87l0 773 -17 -24c-6,-10 -8,-15 -15,-25 -12,-21 -22,-36 -32,-55l-323 -544c-156,-254 -83,-212 -259,-212 -43,0 -73,16 -97,36 -20,17 -43,57 -43,92z"/>
    <path class="fil0" d="M3178 11836l-233 0 0 -815c179,0 375,-27 470,100 30,39 39,60 56,113 36,119 30,332 -20,445 -48,106 -154,157 -273,157zm-495 -925l0 1163c162,0 569,13 703,-30 42,-13 79,-26 115,-48 43,-26 60,-41 94,-75 202,-200 213,-621 93,-863 -21,-41 -34,-56 -60,-91 -89,-120 -281,-172 -439,-172l-372 0c-72,0 -134,41 -134,116z"/>
    <path class="fil0" d="M8798 11144c0,109 19,190 104,256 74,57 113,75 208,106 40,14 80,24 123,34l122 35c79,24 181,35 181,138 0,143 -132,157 -256,157 -122,0 -221,-48 -241,-165 -10,-56 9,-38 -247,-38 -25,0 -13,45 -6,87 6,37 12,61 24,92 113,299 663,305 873,136 107,-87 123,-218 115,-344 -12,-196 -201,-243 -344,-284 -135,-40 -415,-75 -404,-220 14,-185 286,-156 363,-106 45,30 51,38 79,85 48,81 137,60 260,60 -14,-60 -6,-91 -38,-167 -9,-23 -22,-49 -35,-68l-35 -41c-120,-119 -260,-120 -416,-120 -165,0 -327,65 -391,202 -17,35 -39,115 -39,165z"/>
    <path class="fil0" d="M5004 10917l0 1140c0,13 4,17 18,17l890 0c13,0 17,-4 17,-17l0 -221 -663 0 0 -326 361 0c153,0 134,-122 134,-221l-495 0 0 -268 663 0 0 -226 -779 0c-84,0 -146,42 -146,122z"/>
    <path class="fil0" d="M1956 11068c1,29 48,156 60,196l109 327 -344 0 158 -493c7,-22 1,-18 17,-30zm-611 1006l268 0c21,0 16,-16 30,-57l42 -133c7,-23 19,-48 21,-72l494 0 73 236c5,16 2,26 20,26l251 0c20,0 16,-10 10,-26 -7,-17 -11,-26 -17,-43l-116 -326c-10,-26 -20,-53 -29,-81l-118 -325c-22,-55 -37,-108 -57,-163l-88 -244c-36,-90 20,-71 -237,-71 -78,0 -108,40 -129,98l-120 333c-22,58 -38,113 -61,172 -21,53 -236,651 -237,676z"/>
    <path class="fil0" d="M11410 11068l168 523 -343 0 158 -493c7,-22 1,-18 17,-30zm-611 1006l279 0 82 -262 494 0c2,22 12,44 18,64l64 198c80,0 172,4 251,1 35,-2 31,-1 3,-75l-168 -466c-10,-30 -21,-58 -32,-90l-67 -189c-10,-29 -24,-62 -35,-93 -22,-62 -45,-124 -67,-189 -11,-34 -21,-61 -33,-94 -7,-19 -11,-27 -17,-47 -6,-18 -8,-37 -27,-37 -100,0 -222,-15 -282,26 -43,29 -86,185 -105,239l-122 337c-12,34 -235,643 -236,677z"/>
    <path class="fil0" d="M4207 12074l221 0c22,0 32,-58 50,-107l70 -204c19,-57 35,-108 54,-161l111 -320c10,-27 17,-50 26,-78l84 -242c10,-32 52,-145 53,-167 -61,0 -125,-2 -186,-1 -129,4 -127,92 -163,209l-105 361c-7,23 -12,47 -20,73l-63 216c-8,27 -19,49 -21,78 -18,-13 -50,-143 -57,-170l-83 -295c-12,-37 -22,-80 -34,-117 -11,-38 -25,-82 -34,-117 -11,-41 -20,-79 -33,-119l-32 -118 -291 0c0,20 101,302 107,323l84 242c5,14 9,24 14,38l208 606c7,21 15,70 40,70z"/>
    <path class="fil0" d="M7238 10934l0 93 373 0 0 1030c0,13 4,17 17,17l233 0c13,0 17,-4 17,-17l0 -1030 361 0c14,0 18,-4 18,-17l0 -198c0,-13 -4,-17 -18,-17l-861 0c-82,0 -140,62 -140,139z"/>
    <path class="fil0" d="M9926 10923l0 104 373 0 0 1030c0,13 4,17 17,17l233 0c13,0 17,-4 17,-17l0 -1030 373 0 0 -232 -873 0c-74,0 -140,55 -140,128z"/>
    <path class="fil0" d="M8367 10946l0 1111c0,13 4,17 18,17l232 0c14,0 18,-4 18,-17l0 -1262c-137,0 -268,-27 -268,151z"/>
   </g>
   <g>
    <path class="fil0" d="M6273 14278l-116 0 0 -441c0,-33 73,-14 128,-12 150,6 139,155 139,273 0,104 -39,180 -151,180zm6 -650l-122 0 0 -454c89,0 190,-14 232,47 48,72 50,285 1,354 -22,31 -60,53 -111,53zm-314 848c131,0 334,13 445,-26 230,-80 243,-418 185,-592 -21,-66 -39,-83 -72,-132 31,-46 50,-65 71,-127 49,-148 41,-390 -61,-510 -58,-69 -147,-112 -272,-112l-296 0 0 1499z"/>
    <path class="fil0" d="M3976 14278l-122 0 0 -1104c103,0 208,-17 252,56 23,36 39,87 39,142l0 697c0,115 -41,209 -169,209zm-314 198c143,0 347,15 465,-30 35,-13 66,-32 93,-58 83,-80 123,-188 123,-336l0 -657c0,-127 -37,-240 -100,-307l-5 -6c-2,-2 -11,-11 -12,-12l-6 -6c-30,-28 -45,-36 -85,-55 -101,-48 -346,-32 -473,-32l0 1499z"/>
    <path class="fil0" d="M7610 14476l181 0c13,0 17,-4 17,-17l0 -634 279 0 0 634c0,13 4,17 18,17l180 0 0 -1499 -180 0c-14,0 -18,4 -18,17l0 634 -279 0 0 -634c0,-13 -4,-17 -17,-17l-181 0 0 1499z"/>
    <path class="fil0" d="M9337 13866l-145 0c0,-17 64,-308 78,-341 0,-1 1,-3 2,-4 0,-1 1,-3 2,-4 13,60 26,118 41,179l33 137c5,22 10,33 -11,33zm-488 610l198 0 49 -207c9,-36 15,-67 24,-103 8,-32 15,-86 26,-108l255 0c5,49 90,380 93,418 43,0 86,0 128,0 68,0 83,15 67,-43l-49 -207c-54,-264 -137,-562 -193,-830l-98 -419 -157 0 -333 1451c-3,14 -9,31 -10,48z"/>
    <path class="fil0" d="M7215 13866l-145 0c1,-42 20,-97 27,-129l51 -218c0,-1 1,-3 1,-4 1,-1 1,-2 2,-4 2,28 14,59 20,91l54 232c6,20 11,32 -10,32zm-488 610c240,0 191,28 221,-93 11,-48 69,-291 69,-325l262 0 93 418c212,0 207,15 194,-42l-146 -622c-8,-39 -17,-71 -23,-105l-170 -730 -157 0 -343 1499z"/>
    <path class="fil0" d="M4878 13511l11 41c11,59 69,281 70,314 -197,0 -168,19 -145,-76l64 -279zm-419 965l198 0 71 -313c3,-15 6,-34 10,-53 5,-21 11,-27 12,-52l244 0c21,0 27,56 35,98l63 274c13,61 -16,46 210,46l-338 -1464c-7,-48 -8,-35 -150,-35 -20,0 -17,12 -22,30 -4,20 -6,28 -10,48l-66 283c-51,246 -117,509 -173,757l-65 283c-8,31 -19,64 -19,98z"/>
    <polygon class="fil0" points="8500,14476 8692,14476 8692,12977 8500,12977 "/>
   </g>
   <polygon class="fil0" points="0,12579 13357,12579 13357,12425 0,12425 "/>
   <polygon class="fil0" points="0,10413 13357,10413 13357,10260 0,10260 "/>
  </g>
 </g>
</svg>
