<?xml version="1.0" encoding="UTF-8"?>
<!DOCTYPE svg PUBLIC "-//W3C//DTD SVG 1.1//EN" "http://www.w3.org/Graphics/SVG/1.1/DTD/svg11.dtd">
<!-- Creator: CorelDRAW X7 -->
<svg xmlns="http://www.w3.org/2000/svg" xml:space="preserve" width="141.552mm" height="141.663mm" version="1.1" style="shape-rendering:geometricPrecision; text-rendering:geometricPrecision; image-rendering:optimizeQuality; fill-rule:evenodd; clip-rule:evenodd"
viewBox="0 0 14443 14454"
 xmlns:xlink="http://www.w3.org/1999/xlink">
 <defs>
  <style type="text/css">
   <![CDATA[
    .fil0 {fill:white}
   ]]>
  </style>
 </defs>
 <g id="Camada_x0020_1">
  <metadata id="CorelCorpID_0Corel-Layer"/>
  <g id="_3079723450224">
   <path class="fil0" d="M9739 701l10 245 208 130 -230 85 -60 238 -152 -192 -244 16 135 -204 -91 -227 236 66 188 -157zm-1100 -461l83 309 301 106 -268 174 -8 320 -248 -201 -307 90 115 -298 -181 -263 319 16 194 -253zm-3895 461l-10 245 -208 130 230 85 60 238 152 -192 244 16 -136 -204 92 -227 -236 66 -188 -157zm1099 -461l-82 309 -301 106 267 174 9 320 248 -201 306 90 -114 -298 181 -263 -319 16 -195 -253zm1398 -240l173 350 387 57 -280 273 66 385 -346 -182 -346 182 66 -385 -280 -273 387 -57 173 -350z"/>
   <path class="fil0" d="M9861 13884c66,0 120,54 120,121 0,67 -54,120 -120,120 -67,0 -121,-53 -121,-120 0,-67 54,-121 121,-121zm-9695 -7967l0 0c27,758 77,849 522,1455 169,-437 -98,-1238 -522,-1455zm4174 -4312l0 0c-232,-157 -688,-98 -935,80l-13 -16c-813,609 -1479,1407 -1938,2329 -442,889 -691,1893 -691,2956 0,1589 556,3046 1481,4182 941,1156 2264,1978 3773,2269 83,16 163,33 245,50 232,48 468,97 708,119 -145,66 -385,271 -651,542 -60,62 -261,297 -111,332 151,35 264,-84 348,-174 87,-95 178,-190 263,-276 181,-181 337,-319 392,-319l36 0c51,0 208,141 391,324 101,102 209,217 311,328 77,75 173,145 294,117 151,-35 -53,-272 -112,-333l5 3c-34,-31 -68,-60 -102,-87 -47,-35 -106,-91 -172,-152 -124,-115 -268,-249 -382,-303 102,-9 203,-23 304,-39 -64,15 -124,35 -180,59 893,588 1025,653 2102,637 -284,-493 -1146,-798 -1775,-722 118,-22 236,-48 352,-72 76,-16 151,-33 218,-46 1494,-303 2803,-1129 3732,-2282 913,-1132 1461,-2579 1461,-4157 0,-1063 -249,-2067 -690,-2956 -459,-922 -1126,-1720 -1938,-2329l-9 11c-256,-145 -659,-183 -872,-39 440,223 521,231 978,173 1189,1081 1865,2325 2133,3584 224,1043 167,2096 -107,3075 -275,979 -768,1883 -1419,2628 -826,946 -1906,1635 -3117,1893 -450,97 -921,63 -1403,29l-20 -1 -4 0c-237,31 -471,62 -701,75 -230,14 -456,10 -678,-27 -1184,-201 -2247,-857 -3069,-1785 -640,-723 -1133,-1612 -1422,-2580 -131,-437 -220,-890 -262,-1351 6,28 13,55 22,80 453,-563 505,-647 563,-1374 -335,153 -588,673 -600,1093 -15,-251 -17,-504 -3,-758 517,-453 584,-537 765,-1229 -303,78 -593,427 -726,782 12,-99 26,-199 43,-299 22,-129 48,-257 78,-386 501,-309 567,-367 815,-919 -269,24 -566,285 -723,570 62,-213 136,-424 222,-633 -5,18 -9,37 -11,55 556,-243 628,-286 955,-804 -304,-16 -689,263 -865,566 81,-182 172,-363 273,-541 488,-128 554,-154 889,-539 -240,-51 -578,116 -767,332 102,-168 214,-333 334,-495 -13,19 -24,39 -34,60 503,-70 571,-89 950,-432 -261,-89 -676,81 -872,313 268,-354 579,-696 937,-1021 477,61 553,57 1001,-170zm-506 441l0 0c-442,313 -515,324 -1052,334 175,-285 745,-480 1052,-334zm-2090 4810l0 0c110,886 69,1000 -334,1788 -278,-476 -118,-1456 334,-1788zm115 1178l0 0c286,845 269,966 32,1819 -368,-411 -408,-1403 -32,-1819zm341 1062l0 0c551,856 565,994 540,2002 -521,-352 -840,-1438 -540,-2002zm656 1144l0 0c741,697 788,828 1007,1813 -590,-216 -1162,-1193 -1007,-1813zm1006 919l0 0c950,508 1034,628 1531,1575 -663,-58 -1519,-899 -1531,-1575zm1247 815l0 0c1060,194 1176,283 1938,1033 -650,148 -1721,-392 -1938,-1033zm-924 -10930l0 0c-52,252 -431,506 -683,481 252,-319 292,-358 683,-481zm-792 199l0 0c44,253 -215,629 -459,699 117,-390 140,-441 459,-699zm-554 312l0 0c88,297 -169,784 -451,902 85,-484 105,-548 451,-902zm-543 560l0 0c122,286 -79,798 -347,947 31,-490 44,-556 347,-947zm-552 651l0 0c157,269 21,802 -226,983 -30,-490 -26,-557 226,-983zm-444 607l0 0c187,249 115,795 -109,1003 -88,-483 -91,-550 109,-1003zm-501 591l0 0c287,284 299,1000 51,1311 -205,-605 -223,-691 -51,-1311zm-349 1027l0 0c329,235 453,940 258,1286 -299,-564 -330,-646 -258,-1286zm-390 2090l0 0c454,145 849,891 755,1350 -539,-525 -604,-607 -755,-1350zm-55 1031l0 0c550,66 1164,833 1156,1378 -730,-483 -821,-562 -1156,-1378zm208 1261l0 0c551,-47 1308,578 1411,1113 -813,-324 -918,-382 -1411,-1113zm324 1069l0 0c587,-157 1524,374 1738,932 -940,-195 -1065,-237 -1738,-932zm789 1122l0 0c550,-257 1566,101 1874,613 -959,-26 -1090,-47 -1874,-613zm873 1135l0 0c544,-401 1732,-234 2181,258 -1053,181 -1200,188 -2181,-258zm1229 881l0 0c452,-503 1648,-581 2188,-191 -994,392 -1136,429 -2188,191zm1309 653l0 0c338,-586 1494,-907 2102,-637 -893,588 -1025,653 -2102,637zm9540 -8316l0 0c-27,758 -77,849 -522,1455 -169,-437 98,-1238 522,-1455zm-3668 -3871l0 0c307,-146 878,49 1053,334 -538,-10 -611,-21 -1053,-334zm560 437l0 0c304,-103 818,144 950,432 -503,-70 -571,-89 -950,-432zm483 535l0 0c314,-67 795,239 893,540 -492,-128 -557,-155 -893,-540zm297 514l0 0c384,-21 896,430 956,804 -557,-243 -629,-286 -956,-804zm443 812l0 0c383,34 827,552 833,930 -517,-319 -582,-371 -833,-930zm210 822l0 0c443,115 861,810 795,1255 -544,-476 -610,-550 -795,-1255zm163 894l0 0c415,190 706,947 563,1374 -453,-563 -505,-647 -563,-1374zm-66 796l0 0c452,332 612,1312 335,1788 -404,-788 -445,-902 -335,-1788zm-114 1178l0 0c375,416 335,1408 -33,1819 -237,-853 -254,-974 33,-1819zm-342 1062l0 0c300,564 -19,1650 -540,2002 -25,-1008 -11,-1146 540,-2002zm-656 1144l0 0c155,620 -417,1597 -1007,1813 219,-985 266,-1116 1007,-1813zm-1006 919l0 0c-12,676 -868,1517 -1531,1575 497,-947 581,-1067 1531,-1575zm-1246 815l0 0c-218,641 -1289,1181 -1938,1033 761,-750 878,-839 1938,-1033zm923 -10930l0 0c391,123 431,162 683,481 -252,25 -631,-229 -683,-481zm793 199l0 0c318,258 341,309 458,699 -244,-70 -503,-446 -458,-699zm553 312l0 0c346,354 366,418 451,902 -282,-118 -539,-605 -451,-902zm543 560l0 0c303,391 316,457 347,947 -268,-149 -469,-661 -347,-947zm552 651l0 0c252,426 256,493 226,983 -247,-181 -382,-714 -226,-983zm444 607l0 0c200,453 197,520 109,1003 -224,-208 -296,-754 -109,-1003zm501 591l0 0c172,620 155,706 -51,1311 -248,-311 -236,-1027 51,-1311zm349 1027l0 0c72,640 41,722 -257,1286 -196,-346 -71,-1051 257,-1286zm390 2090l0 0c-151,743 -216,825 -755,1350 -94,-459 302,-1205 755,-1350zm55 1031l0 0c-335,816 -426,895 -1156,1378 -8,-545 606,-1312 1156,-1378zm-207 1261l0 0c-494,731 -599,789 -1412,1113 103,-535 860,-1160 1412,-1113zm-325 1069l0 0c-673,695 -798,737 -1737,932 213,-558 1150,-1089 1737,-932zm-789 1122l0 0c-784,566 -915,587 -1874,613 309,-512 1324,-870 1874,-613zm-873 1135l0 0c-981,446 -1127,439 -2181,258 450,-492 1637,-659 2181,-258zm-1229 881l0 0c-1051,238 -1194,201 -2188,-191 540,-390 1737,-312 2188,191zm2207 -2422l0 0c54,0 99,44 99,99 0,54 -45,98 -99,98 -54,0 -98,-44 -98,-98 0,-55 44,-99 98,-99zm-12001 0l0 0c54,0 98,44 98,99 0,54 -44,98 -98,98 -54,0 -98,-44 -98,-98 0,-55 44,-99 98,-99zm2322 -9935l0 0c-19,0 -35,16 -35,35 0,19 16,35 35,35 20,0 35,-16 35,-35 0,-19 -15,-35 -35,-35zm-584 287l0 0c19,0 35,16 35,35 0,20 -16,35 -35,35 -20,0 -35,-15 -35,-35 0,-19 15,-35 35,-35zm-571 451l0 0c20,0 36,15 36,35 0,19 -16,35 -36,35 -19,0 -34,-16 -34,-35 0,-20 15,-35 34,-35zm-498 592l0 0c28,0 51,23 51,51 0,28 -23,51 -51,51 -28,0 -51,-23 -51,-51 0,-28 23,-51 51,-51zm-477 583l0 0c35,0 64,28 64,63 0,35 -29,63 -64,63 -35,0 -63,-28 -63,-63 0,-35 28,-63 63,-63zm-425 642l0 0c35,0 64,28 64,63 0,35 -29,63 -64,63 -34,0 -63,-28 -63,-63 0,-35 29,-63 63,-63zm-443 906l0 0c-43,0 -78,35 -78,78 0,43 35,78 78,78 42,0 77,-35 77,-78 0,-43 -35,-78 -77,-78zm-288 907l0 0c-43,0 -78,35 -78,78 0,42 35,77 78,77 42,0 77,-35 77,-77 0,-43 -35,-78 -77,-78zm-135 1130l0 0c43,0 78,35 78,78 0,42 -35,77 -78,77 -43,0 -77,-35 -77,-77 0,-43 34,-78 77,-78zm-33 1064l0 0c-49,0 -89,40 -89,89 0,49 40,89 89,89 49,0 88,-40 88,-89 0,-49 -39,-89 -88,-89zm152 1153l0 0c-55,0 -99,44 -99,98 0,55 44,99 99,99 54,0 98,-44 98,-99 0,-54 -44,-98 -98,-98zm332 1093l0 0c-55,0 -99,44 -99,98 0,54 44,98 99,98 54,0 98,-44 98,-98 0,-54 -44,-98 -98,-98zm1627 2198l0 0c55,0 99,45 99,99 0,54 -44,98 -99,98 -54,0 -98,-44 -98,-98 0,-54 44,-99 98,-99zm973 959l0 0c54,0 99,44 99,98 0,55 -45,98 -99,98 -54,0 -98,-43 -98,-98 0,-54 44,-98 98,-98zm1409 696l0 0c67,0 121,54 121,121 0,67 -54,120 -121,120 -66,0 -120,-53 -120,-120 0,-67 54,-121 120,-121zm6318 -12661l0 0c-19,0 -35,16 -35,35 0,19 16,35 35,35 19,0 35,-16 35,-35 0,-19 -16,-35 -35,-35zm584 287l0 0c20,0 35,16 35,35 0,20 -15,35 -35,35 -19,0 -34,-15 -34,-35 0,-19 15,-35 34,-35zm571 451l0 0c19,0 35,15 35,35 0,19 -16,35 -35,35 -20,0 -35,-16 -35,-35 0,-20 15,-35 35,-35zm498 592l0 0c28,0 51,23 51,51 0,28 -23,51 -51,51 -28,0 -51,-23 -51,-51 0,-28 23,-51 51,-51zm477 583l0 0c35,0 63,28 63,63 0,35 -28,63 -63,63 -35,0 -63,-28 -63,-63 0,-35 28,-63 63,-63zm425 642l0 0c35,0 63,28 63,63 0,35 -28,63 -63,63 -35,0 -64,-28 -64,-63 0,-35 29,-63 64,-63zm444 906l0 0c42,0 77,35 77,78 0,43 -35,78 -77,78 -43,0 -78,-35 -78,-78 0,-43 35,-78 78,-78zm288 907l0 0c42,0 77,35 77,78 0,42 -35,77 -77,77 -43,0 -78,-35 -78,-77 0,-43 35,-78 78,-78zm134 1130l0 0c-43,0 -77,35 -77,78 0,42 34,77 77,77 43,0 78,-35 78,-77 0,-43 -35,-78 -78,-78zm34 1064l0 0c-49,0 -89,40 -89,89 0,49 40,89 89,89 48,0 88,-40 88,-89 0,-49 -40,-89 -88,-89zm-153 1153l0 0c-54,0 -98,44 -98,98 0,55 44,99 98,99 55,0 99,-44 99,-99 0,-54 -44,-98 -99,-98zm-332 1093l0 0c-54,0 -98,44 -98,98 0,54 44,98 98,98 55,0 99,-44 99,-98 0,-54 -44,-98 -99,-98zm-1627 2198l0 0c54,0 98,45 98,99 0,54 -44,98 -98,98 -55,0 -99,-44 -99,-98 0,-54 44,-99 99,-99zm-973 959l0 0c54,0 98,44 98,98 0,55 -44,98 -98,98 -54,0 -98,-43 -98,-98 0,-54 44,-98 98,-98z"/>
   <path class="fil0" d="M7166 8341c-244,-362 -585,-497 -931,-497 -473,0 -780,271 -1233,327 -163,20 -295,0 -385,-77 -145,127 -291,254 -436,381 183,124 416,162 650,131 537,-71 933,-473 1454,-502 443,-26 625,53 881,237zm-1439 -1607c261,-51 483,-216 768,-98l-2 -1c244,110 355,413 355,725 0,190 -40,360 -122,486 72,31 140,70 204,115 195,-175 310,-431 310,-720 0,-390 -209,-817 -734,-827 -304,-6 -530,224 -682,188 -83,-20 -82,-116 -64,-201 191,-742 755,-995 1527,-1357 293,-138 514,-367 524,-710 -55,231 -231,371 -441,474 -233,115 -435,190 -626,270 -263,96 -570,261 -848,534 -185,181 -546,628 -495,940 20,123 102,212 278,190 16,-2 32,-5 48,-8zm-446 228c-1,31 -2,61 -2,90 0,335 91,641 279,853 9,-3 19,-7 28,-11 95,-36 187,-69 280,-94 -143,-224 -178,-527 -177,-788 -126,14 -252,8 -362,-31 -15,-6 -31,-12 -46,-19zm1227 -545c16,0 32,0 0,0zm-557 -1297c253,-229 710,-386 1027,-527 250,-110 666,-313 762,-586 56,-160 -8,-301 -117,-388 97,181 43,324 -91,447 -220,203 -693,386 -976,542 -219,121 -422,264 -605,512zm-464 895c139,-263 339,-490 580,-677 379,-265 726,-371 1191,-578 116,-51 224,-112 313,-191 150,-133 289,-372 241,-596 -64,518 -995,764 -1395,960 -477,235 -800,586 -930,1082zm3263 1755c-2,-50 -2,-109 -2,-180l0 -1781c0,-129 2,-303 6,-456 4,-93 4,-178 8,-271 1,-27 15,-73 -20,-84 -23,-7 -44,25 -62,45 -125,140 -332,337 -635,417 -28,6 -57,11 -86,16 -37,19 -32,83 5,101l0 0c1,1 2,2 3,2l220 18c45,4 80,12 109,25 100,48 108,163 108,405l0 1559c0,69 0,128 -2,177 122,18 237,51 355,93 -3,-25 -5,-53 -7,-86zm-1468 571c244,-362 585,-497 930,-497 473,0 781,271 1234,327 163,20 295,0 385,-77 145,127 290,254 436,381 -183,124 -416,162 -650,131 -538,-71 -933,-473 -1454,-502 -443,-26 -625,53 -881,237z"/>
   <path class="fil0" d="M3900 4035c0,94 77,170 171,170 94,0 170,-76 170,-170 0,-94 -76,-170 -170,-170 -94,0 -171,76 -171,170zm-151 5677c132,-104 127,-254 108,-360l-20 -113c-16,-85 -4,-174 51,-218 60,-47 146,-44 209,35 68,87 21,208 -24,277 -4,20 21,49 40,44 81,-64 136,-127 155,-157 -9,-17 -15,-29 -22,-49 -24,-60 -58,-113 -89,-152 -137,-175 -315,-207 -450,-99 -119,94 -117,246 -92,367 21,100 35,237 -63,314 -60,47 -154,55 -224,-34 -80,-103 -33,-271 27,-356 5,-21 -18,-47 -40,-43 -82,64 -156,148 -165,192 6,36 28,130 115,240 143,182 335,228 484,112zm1071 -48c-252,-198 -575,-154 -763,85 -198,252 -147,549 95,739 259,204 559,184 766,-78 192,-245 152,-549 -98,-746zm-107 610c-154,195 -336,301 -494,177 -197,-155 -63,-431 53,-579 158,-201 346,-277 494,-160 150,117 109,356 -53,562zm523 -162c55,30 80,62 51,145 -26,78 -69,195 -107,290 -56,135 -103,260 -134,329 -39,86 -51,92 -129,80l-28 -4c-16,3 -28,40 -11,53 59,16 114,33 161,49 55,19 117,41 170,63 14,-4 28,-36 20,-50l-54 -28c-55,-29 -57,-52 -32,-124 29,-87 80,-232 113,-326 27,-75 50,-138 88,-230l3 1c17,216 74,636 70,835 6,9 21,17 35,22 11,3 23,3 32,-1 179,-213 377,-416 563,-611l3 1 -56 165 -125 378c-30,89 -36,106 -105,92l-46 -9c-18,6 -28,39 -13,53 71,20 151,46 217,68 71,24 133,47 198,72 17,-1 28,-34 21,-50l-45 -21c-54,-27 -48,-64 -29,-131 54,-186 104,-344 205,-643 26,-77 61,-84 124,-74l44 7c17,-11 26,-39 13,-53 -53,-15 -120,-36 -168,-52 -44,-15 -78,-24 -142,-53 -75,114 -137,179 -257,305l-128 135c-68,72 -107,109 -138,138 -8,-44 -29,-153 -32,-186l-27 -237c-18,-158 -38,-264 -8,-354 -54,-14 -96,-28 -143,-45 -72,-24 -134,-46 -182,-65 -18,-1 -29,34 -22,49l30 17zm1796 361c-320,-9 -553,220 -561,524 -8,320 211,528 519,535 329,9 558,-186 567,-520 7,-311 -206,-531 -525,-539zm279 552c-6,249 -90,443 -290,438 -250,-7 -308,-309 -304,-496 7,-255 113,-429 301,-424 190,5 300,220 293,482zm1191 45c-29,-166 -164,-232 -266,-265l-110 -35c-82,-26 -155,-78 -168,-148 -13,-75 30,-150 129,-167 109,-20 194,79 233,151 16,13 54,5 58,-15 -18,-101 -48,-180 -66,-211 -18,0 -33,0 -53,-3 -64,-7 -127,-2 -177,7 -218,39 -330,180 -298,351 27,149 162,218 280,253 99,29 226,81 248,203 14,76 -24,162 -135,182 -129,23 -255,-98 -302,-191 -15,-14 -50,-6 -57,15 19,103 58,208 92,236 35,12 128,36 267,12 228,-41 359,-189 325,-375zm609 -355c83,145 169,227 271,244 105,17 205,-19 306,-77 108,-62 185,-151 208,-247 27,-123 -27,-244 -99,-369l-86 -149c-61,-107 -114,-211 -119,-254 -4,-35 16,-57 46,-85l21 -19c5,-17 -13,-42 -26,-46 -49,32 -98,61 -147,90 -54,31 -107,60 -180,98 -3,13 9,41 26,46l40 -14c40,-14 73,-23 101,-2 35,26 98,124 160,231l92 161c105,182 139,361 -31,458 -202,117 -318,-45 -407,-200l-177 -307c-71,-123 -69,-139 -15,-184l29 -23c6,-14 -11,-44 -27,-46 -62,40 -126,78 -191,115 -64,37 -131,74 -197,108 -10,17 9,45 24,47l37 -12c67,-23 79,-19 150,104l191 332zm659 -1037c50,-37 90,-45 153,15 60,57 148,145 218,220 99,107 192,203 241,260 63,72 63,85 19,151l-16 23c-4,16 25,43 43,33 40,-46 79,-90 113,-125 40,-42 87,-89 128,-128 3,-14 -20,-41 -36,-39l-48 37c-49,38 -71,30 -126,-23 -67,-64 -177,-170 -248,-240 -56,-56 -104,-104 -172,-177l2 -2c203,75 609,201 787,289 11,-3 25,-13 34,-23 9,-9 13,-20 14,-30 -118,-252 -218,-517 -317,-768l2 -2 126 120 291 273c67,64 80,77 38,134l-27 38c-3,19 24,42 42,34 49,-56 106,-118 153,-168 52,-54 99,-101 150,-150 6,-15 -20,-39 -37,-39l-38 31c-47,38 -78,17 -131,-29 -146,-126 -268,-238 -496,-456 -59,-56 -51,-91 -16,-144l25 -37c-2,-20 -23,-40 -42,-34 -36,42 -84,94 -118,130 -32,33 -55,60 -108,107 72,116 105,199 168,362l68 172c37,93 54,143 67,183 -42,-11 -150,-37 -182,-49l-226 -75c-151,-51 -256,-77 -325,-142 -34,43 -65,74 -100,111 -52,54 -98,101 -136,137 -9,15 18,41 35,41l28 -21zm-4528 -419c49,-64 29,-132 8,-178l-22 -50c-17,-37 -22,-79 -2,-105 22,-29 62,-38 100,-9 41,32 34,93 21,130 1,10 15,20 24,16 29,-39 47,-74 53,-90 -6,-7 -11,-12 -16,-20 -18,-25 -40,-45 -59,-60 -83,-64 -168,-58 -217,7 -44,57 -26,126 0,179 21,44 43,105 7,151 -22,29 -64,43 -107,10 -48,-37 -46,-120 -29,-166 1,-10 -13,-20 -23,-15 -30,39 -54,86 -53,107 6,16 28,56 80,97 87,67 180,66 235,-4zm265 141c22,13 26,17 24,28l-14 64c-6,28 -11,45 -13,50 -2,4 -7,6 -23,1l-22 -9c-10,1 -16,15 -12,23 30,15 55,29 86,47 33,19 66,39 96,58 8,-1 15,-17 13,-22l-22 -17c-21,-18 -18,-35 -9,-81l57 -295c10,-54 16,-81 21,-102 3,-11 1,-16 -7,-21 -1,-1 -42,16 -77,6 -8,19 -32,35 -69,66l-146 120c-43,36 -72,59 -97,78 -25,18 -40,16 -57,9l-18 -8c-7,3 -15,15 -10,23 28,17 44,24 65,36 26,16 49,29 70,43 8,0 15,-15 14,-22l-17 -14c-16,-13 -22,-22 -19,-25 2,-5 6,-10 17,-20l67 -59c10,-10 12,-9 27,0l75 43zm-43 -69c-15,-9 -17,-13 -2,-27l43 -38c26,-23 58,-50 72,-61 -2,16 -11,56 -18,89l-13 60c-4,19 -8,19 -23,11l-59 -34zm530 80c28,-62 34,-65 66,-57l18 5c7,-1 14,-16 10,-23 -33,-13 -67,-27 -98,-41 -32,-15 -65,-30 -99,-47 -10,1 -16,16 -12,23l18 11c29,17 30,25 2,87l-110 246c-27,61 -34,65 -65,55l-27 -7c-7,1 -12,17 -8,24 41,17 75,31 105,45l89 39c54,24 118,54 152,71 17,-14 58,-62 77,-95 -2,-10 -16,-20 -24,-15 -73,59 -93,53 -153,26 -48,-22 -58,-32 -61,-47 -4,-15 3,-37 16,-68l104 -232zm260 379c-18,65 -24,70 -56,65l-33 -6c-7,3 -11,19 -7,25 50,12 86,22 120,31 31,9 66,19 111,33 6,-3 10,-19 7,-24l-27 -12c-31,-13 -33,-19 -15,-84l86 -308c5,-18 8,-20 24,-15l42 12c53,14 53,50 53,98 2,6 21,10 26,5 10,-40 31,-96 44,-117 -1,-3 -5,-7 -9,-8 -4,-1 -6,-1 -10,-1 -10,13 -21,11 -67,-2l-260 -72c-53,-15 -54,-19 -54,-31 -2,-3 -6,-5 -9,-6 -4,-1 -8,0 -11,1 -12,26 -28,68 -56,112 1,10 14,16 24,14 35,-45 58,-69 109,-55l43 12c17,5 16,8 11,25l-86 308zm532 44c-6,6 -12,14 -14,28 -2,13 2,24 7,30l175 5c7,-7 12,-18 13,-27 1,-12 -1,-24 -7,-32l-174 -4zm594 -220c-1,-29 -1,-30 23,-31l56 -2c37,-1 59,7 72,22 7,9 14,26 23,56 9,5 25,4 27,-4 -3,-49 -5,-101 -5,-113 -10,2 -51,4 -98,5l-152 5c-35,1 -71,2 -102,1 -8,4 -7,22 -1,26l15 2c33,4 37,10 39,77l9 270c2,67 -2,72 -34,78l-24 5c-6,4 -5,21 1,25 43,-3 79,-4 113,-5 35,-1 70,-2 115,-2 5,-5 4,-21 -1,-26l-27 -2c-32,-4 -37,-9 -39,-77l-3 -97c-1,-20 0,-22 19,-23l56 -2c38,-1 46,5 55,39l4 17c5,7 23,5 28,-1 -3,-22 -4,-49 -5,-75 -1,-28 -1,-55 0,-78 -5,-6 -23,-7 -28,0l-3 18c-6,35 -14,41 -52,42l-56 2c-20,0 -20,-2 -21,-21l-4 -131zm458 197c25,-5 31,-5 36,6l31 58c14,24 22,40 23,45 1,5 -1,10 -17,16l-22 8c-7,7 -3,22 6,25 32,-8 60,-13 96,-20 37,-7 75,-14 110,-19 5,-5 1,-22 -4,-25l-28 1c-27,1 -37,-15 -60,-55l-149 -261c-27,-47 -40,-72 -50,-92 -5,-10 -10,-12 -19,-11 -1,1 -21,40 -54,55 6,20 -2,47 -10,95l-32 186c-10,55 -17,92 -24,122 -7,30 -20,39 -37,44l-18 6c-4,6 -2,22 6,24 33,-6 49,-11 73,-15 30,-5 56,-10 81,-13 7,-5 2,-21 -3,-26l-22 1c-21,0 -31,-3 -31,-7 -2,-6 -2,-11 0,-26l12 -88c2,-14 4,-16 21,-19l85 -15zm-78 -25c-18,3 -22,2 -19,-19l8 -57c5,-34 12,-75 15,-93 9,14 29,50 44,79l30 54c9,18 6,20 -11,23l-67 13zm426 10c24,62 22,69 -7,86l-19 11c-5,6 2,22 9,24 38,-16 72,-30 104,-43 25,-9 60,-18 92,-30 70,-27 122,-57 159,-98 63,-69 78,-158 43,-249 -32,-85 -112,-146 -213,-143 -53,1 -111,17 -166,38 -72,28 -124,51 -179,76 -8,4 0,23 8,24l13 -3c32,-9 39,3 64,68l92 239zm-8 -309c-8,-21 -13,-34 -11,-41 2,-7 14,-16 32,-23 123,-47 215,1 262,123 35,92 36,211 -82,256 -24,10 -46,11 -63,2 -18,-9 -29,-33 -43,-70l-95 -247zm583 74c33,57 32,63 7,86l-16 14c-4,5 6,21 13,22 35,-22 65,-41 96,-59 18,-10 43,-22 66,-35 38,-22 84,-52 115,-88 32,-37 47,-91 12,-148 -36,-61 -97,-69 -153,-51 -6,2 -10,2 -11,1 -2,-4 3,-10 8,-15 17,-16 49,-63 18,-115 -21,-37 -53,-54 -89,-55 -37,0 -81,17 -141,52 -63,36 -107,66 -153,97 -9,6 3,24 11,24l18 -8c28,-11 33,-6 70,57l129 221zm-67 -314c-16,-27 -19,-33 11,-50 43,-25 93,-18 124,37 22,37 22,83 -31,115 -33,19 -34,18 -44,2l-60 -104zm101 174c-14,-25 -15,-25 20,-45 60,-35 114,-16 145,39 30,51 27,101 -20,128 -49,28 -73,1 -101,-48l-44 -74zm482 -269c20,-15 25,-18 35,-11l54 37c23,15 38,26 41,30 3,3 4,9 -7,22l-16 17c-3,9 8,21 17,19 25,-22 47,-40 75,-62 30,-23 61,-47 89,-68 3,-7 -9,-20 -15,-20l-24 14c-24,13 -40,4 -78,-21l-254 -162c-46,-29 -69,-45 -87,-58 -9,-7 -15,-7 -22,-1 -1,1 0,45 -23,73 15,15 21,43 36,89l58 180c17,53 28,89 36,119 8,30 0,44 -13,56l-14 14c0,8 9,20 18,19 26,-21 38,-33 57,-48 25,-18 45,-35 66,-49 3,-8 -8,-20 -15,-21l-19 10c-18,10 -28,12 -31,9 -4,-5 -7,-10 -12,-24l-30 -83c-5,-14 -4,-15 10,-26l68 -54zm-80 15c-15,11 -19,11 -26,-8l-19 -54c-12,-33 -25,-73 -31,-89 15,8 49,30 76,48l51 35c17,11 15,15 2,25l-53 43zm-5855 -866c16,137 66,237 177,234 121,-3 127,-162 15,-174 -26,-3 -52,3 -66,23 0,0 -26,-326 40,-489 66,-163 203,-329 389,-337 0,0 0,74 63,123 63,48 137,2 148,-49 4,-16 6,-37 3,-61 3,10 7,20 10,29 11,34 48,52 81,40 34,-11 52,-48 40,-81 -56,-163 -99,-332 -127,-505 -28,-168 -43,-342 -43,-520 0,-871 353,-1659 923,-2229 571,-570 1359,-923 2229,-923 870,0 1658,353 2229,923 570,570 923,1358 923,2229 0,178 -15,352 -43,520 -29,173 -72,342 -128,505 -11,33 7,70 40,81 34,12 70,-6 82,-40 2,-7 5,-14 7,-21 -1,21 1,39 4,53 11,51 85,97 148,49 63,-49 63,-123 63,-123 186,8 323,174 389,337 66,163 40,489 40,489 -14,-20 -40,-26 -66,-23 -112,12 -106,171 14,174 112,3 162,-97 178,-234 3,-44 5,-87 5,-131 17,40 44,80 84,119 119,118 318,158 484,10 -26,228 76,366 141,400 66,35 192,-13 161,-102 -30,-89 -102,-87 -102,-87 -57,-168 49,-429 49,-429 159,-486 246,-1006 246,-1546 0,-2734 -2216,-4950 -4950,-4950 -2734,0 -4951,2216 -4951,4950 0,535 85,1050 242,1533l0 0 0 0 0 1c6,19 13,38 19,57l1 -1c27,86 69,253 28,372 0,0 -71,-2 -102,87 -30,89 96,137 161,102 66,-34 168,-172 142,-400 165,148 365,108 484,-10 46,-45 75,-92 91,-139 -1,54 1,109 5,164zm99 -1472c1,15 -5,21 -12,22 -8,0 -24,-8 -72,-53l-53 -48c-133,-121 -196,-150 -281,-143 -102,7 -178,92 -168,219 8,105 75,200 188,236 17,-3 22,-24 12,-37 -62,-30 -106,-70 -110,-132 -6,-73 48,-123 123,-128 116,-9 212,51 301,120 76,59 138,117 179,155 10,2 22,-3 23,-13 -3,-18 -8,-64 -12,-121l-13 -172c-5,-70 -7,-109 -8,-152 -28,-17 -105,-36 -173,-41 -13,6 -12,31 -3,38 60,27 63,40 69,119l10 131zm6928 -2965c94,0 170,76 170,170 0,94 -76,171 -170,171 -94,0 -170,-77 -170,-171 0,-94 76,-170 170,-170zm-5380 -332c78,109 78,125 30,168l-49 44c-5,14 15,41 29,41 81,-61 142,-105 198,-145 53,-38 113,-79 191,-131 4,-13 -16,-40 -29,-42l-52 28c-58,31 -71,26 -149,-83l-370 -520c-22,-31 -21,-37 8,-57l70 -50c89,-63 145,-19 218,42 13,5 43,-20 42,-35 -51,-65 -110,-166 -127,-215 -5,-2 -16,-1 -23,4 -8,5 -10,9 -13,15 7,32 -10,46 -88,101l-439 312c-89,64 -96,62 -116,46 -7,0 -14,3 -20,7 -6,4 -10,11 -12,17 24,52 70,130 103,229 18,10 42,-4 51,-21 -25,-111 -34,-176 52,-237l73 -52c28,-20 32,-14 53,14l369 520zm612 -578c50,149 115,240 206,275 94,35 193,20 297,-15 111,-38 200,-106 238,-191 47,-108 20,-230 -24,-359l-52 -154c-37,-111 -67,-216 -64,-257 3,-33 26,-50 59,-71l22 -13c8,-15 -4,-42 -15,-47 -52,20 -102,38 -153,55 -56,19 -110,37 -184,59 -6,11 1,39 15,47l40 -6c39,-6 72,-8 94,17 27,31 68,133 105,244l56 165c64,188 62,359 -113,419 -208,70 -286,-100 -340,-261l-107 -316c-43,-127 -39,-141 19,-173l31 -16c8,-12 -2,-43 -16,-47 -64,25 -131,48 -198,71 -66,22 -135,45 -202,64 -12,13 0,43 13,48l37 -5c66,-8 77,-3 120,124l116 343zm1156 -138c3,133 -5,144 -70,157l-39 8c-11,8 -10,42 1,51 75,-5 139,-8 211,-9 70,-2 136,-3 213,-2 10,-9 9,-44 -1,-51l-39 -6c-66,-10 -75,-20 -78,-153l-5 -177c0,-29 2,-32 53,-33 36,-1 60,10 78,48 35,76 70,146 118,221 67,103 152,149 285,145 45,-1 91,-5 114,-16 7,-8 6,-30 -7,-37 -22,-1 -59,-9 -98,-38 -71,-58 -133,-165 -233,-356 -8,-16 -8,-24 6,-32 66,-35 151,-92 148,-221 -2,-92 -47,-164 -133,-211 -55,-31 -161,-48 -284,-44 -138,3 -250,12 -359,22 -17,7 -16,43 -1,50l39 5c61,7 64,23 68,168l13 511zm182 -615c-1,-69 1,-73 61,-75 113,-3 191,79 195,209 2,86 -25,133 -48,158 -27,28 -57,42 -109,43 -86,2 -90,-2 -91,-53l-8 -282zm954 -69c53,25 78,55 55,134 -21,75 -56,187 -88,279 -46,129 -84,249 -111,316 -32,83 -43,89 -118,82l-26 -3c-14,3 -25,39 -8,50 56,13 110,27 154,39 53,15 112,34 163,51 13,-4 25,-35 17,-48l-52 -24c-53,-24 -56,-46 -37,-115 24,-84 65,-222 92,-312 22,-72 41,-133 72,-222l3 1c26,203 100,596 105,784 7,8 21,15 34,19 11,3 22,2 30,-2 159,-209 336,-410 502,-603l3 1 -45 158 -100 363c-24,85 -29,101 -95,92l-43 -7c-17,6 -25,38 -10,50 68,16 145,37 207,54 68,20 128,38 191,59 16,-1 25,-33 17,-48l-43 -18c-53,-22 -49,-57 -33,-122 41,-178 81,-329 162,-615 21,-74 54,-83 114,-76l42 4c15,-10 23,-37 10,-50 -51,-11 -115,-29 -161,-42 -42,-11 -75,-19 -137,-42 -65,111 -120,175 -228,299l-114 133c-61,71 -96,108 -123,136 -10,-40 -35,-142 -40,-173l-36 -222c-24,-149 -49,-247 -24,-334 -51,-10 -92,-22 -137,-35 -69,-19 -128,-37 -175,-53 -16,-1 -26,33 -18,47l29 15zm1508 1241c42,29 49,38 42,61l-40 124c-17,53 -29,88 -35,96 -5,7 -15,12 -46,-3l-42 -21c-19,1 -35,27 -27,43 56,37 103,69 162,110 61,44 124,90 179,133 16,0 33,-30 31,-41l-40 -39c-39,-38 -30,-73 -5,-161l168 -576c31,-104 47,-158 62,-199 8,-21 5,-32 -10,-43 -2,-1 -87,25 -153,-2 -21,37 -70,64 -150,119l-312 211c-92,62 -155,103 -208,136 -53,31 -83,24 -114,7l-34 -19c-15,4 -34,28 -26,44 54,39 83,55 124,83 48,37 91,67 131,98 15,3 33,-26 31,-39l-31 -32c-29,-29 -39,-47 -34,-54 7,-9 15,-18 39,-37l143 -103c22,-18 27,-16 55,4l140 100zm-72 -146c-29,-21 -33,-29 1,-53l92 -67c56,-42 125,-89 154,-109 -7,32 -31,111 -51,173l-37 118c-12,37 -21,36 -48,17l-111 -79zm1404 1715c-7,-14 -3,-22 3,-24 8,-4 26,-1 86,23l67 27c166,68 235,73 313,37 92,-42 135,-148 82,-264 -45,-96 -141,-162 -259,-156 -15,9 -12,31 1,39 69,6 124,29 150,85 30,67 -3,132 -71,164 -106,48 -217,25 -324,-8 -92,-30 -171,-62 -223,-84 -9,3 -19,11 -17,20 10,16 30,58 54,110l72 157c30,63 45,99 61,140 32,5 110,-3 176,-22 11,-10 0,-33 -10,-37 -66,-4 -73,-15 -106,-87l-55 -120zm776 432c-47,-170 -248,-192 -410,-147 -169,47 -323,167 -276,337 47,170 241,194 410,147 162,-45 323,-167 276,-337zm-368 6c93,-26 297,-72 319,8 22,79 -176,144 -270,170 -93,26 -297,72 -319,-7 -22,-80 177,-145 270,-171zm365 742c54,-7 103,-12 129,-13 8,-3 10,-11 10,-16 -1,-8 -27,-46 -47,-92 -17,-42 -35,-91 -47,-135 -8,-7 -34,-3 -38,7l0 51c-1,48 -16,54 -87,63l-349 43c-86,11 -98,6 -109,-46l-9 -44c-7,-9 -35,-5 -37,7 7,38 15,103 24,174 9,67 16,132 19,171 4,11 32,8 38,-2l-3 -45c-2,-54 8,-61 95,-72l411 -51zm158 563c3,-135 -93,-244 -232,-247 -110,-3 -196,78 -198,180 -1,45 12,90 31,109 9,1 20,-1 23,-6 0,-10 0,-17 3,-31 15,-73 109,-107 198,-105 65,2 127,33 126,84 -3,91 -161,111 -244,109 -200,-5 -380,-119 -427,-332 -7,-10 -30,-9 -36,3 1,92 62,238 143,330 83,95 196,155 328,158 151,4 281,-86 285,-252zm-8800 -528c-14,175 166,265 334,279 175,14 361,-46 375,-222 15,-175 -159,-265 -334,-279 -168,-14 -361,46 -375,222zm347 121c-96,-8 -304,-35 -297,-117 7,-83 216,-76 312,-68 97,8 304,35 297,117 -6,83 -215,76 -312,68zm-83 -820c-53,-12 -102,-24 -126,-32 -9,1 -14,7 -15,13 -2,7 9,52 12,102 2,45 3,97 -1,142 5,10 30,15 38,7l17 -48c17,-45 34,-46 104,-30l342 78c85,20 94,28 87,81l-7 45c4,11 32,16 38,6 6,-39 20,-102 36,-172 15,-66 30,-130 41,-167 0,-12 -28,-19 -37,-11l-13 43c-16,51 -28,55 -113,35l-403 -92zm348 -222c156,70 305,33 373,-118 62,-138 13,-267 -117,-326 -95,-43 -213,-29 -268,94 -16,35 -14,92 -1,119 6,4 14,5 21,1 3,-9 5,-16 9,-23 39,-85 172,-58 240,-28 46,21 104,66 78,126 -34,74 -174,53 -279,6 -92,-42 -177,-107 -219,-189 -43,-86 -60,-157 -36,-291 -7,-16 -25,-21 -36,-13 -47,122 -45,267 -6,377 41,113 129,214 241,265zm615 2272l0 0c-52,-89 -183,-115 -305,-78 -136,40 -239,129 -298,207 -76,98 -120,222 -139,358 -34,-191 -261,-326 -408,-207 -98,78 -60,217 26,221 86,5 107,-66 91,-121 298,32 73,471 -217,309 -208,-117 -256,-350 -306,-562 -82,-353 -126,-721 -126,-1100 0,-2658 2155,-4812 4813,-4812 2658,0 4812,2154 4812,4812 0,209 -13,414 -39,616 -23,182 -57,361 -100,537 -52,212 -142,528 -401,556 -234,26 -374,-315 -113,-343 -17,55 5,126 90,122 86,-5 124,-143 27,-222 -141,-113 -354,5 -403,182 -20,-131 -63,-251 -137,-346 -60,-78 -162,-167 -298,-207 -119,-36 -247,-12 -301,72 43,-138 76,-281 101,-427 29,-176 44,-357 44,-541 0,-906 -367,-1726 -960,-2320 -594,-593 -1414,-961 -2320,-961 -906,0 -1726,368 -2320,961 -593,594 -961,1414 -961,2320 0,184 16,365 45,541 25,149 59,293 103,433z"/>
  </g>
 </g>
</svg>
