<?xml version="1.0" encoding="UTF-8"?>
<!DOCTYPE svg PUBLIC "-//W3C//DTD SVG 1.1//EN" "http://www.w3.org/Graphics/SVG/1.1/DTD/svg11.dtd">
<!-- Creator: CorelDRAW X7 -->
<svg xmlns="http://www.w3.org/2000/svg" xml:space="preserve" width="210mm" height="76.4175mm" version="1.1" style="shape-rendering:geometricPrecision; text-rendering:geometricPrecision; image-rendering:optimizeQuality; fill-rule:evenodd; clip-rule:evenodd"
viewBox="0 0 21000 7642"
 xmlns:xlink="http://www.w3.org/1999/xlink">
 <defs>
  <style type="text/css">
   <![CDATA[
    .fil1 {fill:white}
    .fil0 {fill:white;fill-rule:nonzero}
   ]]>
  </style>
 </defs>
 <g id="Camada_x0020_1">
  <metadata id="CorelCorpID_0Corel-Layer"/>
  <g id="_2719835453552">
   <path class="fil0" d="M6576 6490c-72,0 -136,-11 -177,-31l25 -68c28,13 87,28 155,28 95,0 145,-40 145,-105 0,-63 -35,-91 -151,-133 -110,-41 -166,-92 -166,-193 0,-103 84,-166 205,-166 71,0 129,15 178,37l-26 70c-45,-19 -98,-35 -153,-35 -80,0 -122,38 -122,95 0,65 36,91 140,131 114,42 176,85 176,187 0,115 -89,183 -229,183z"/>
   <polygon class="fil0" points="6918,6481 6918,5831 7277,5831 7277,5903 6999,5903 6999,6106 7240,6106 7240,6177 6999,6177 6999,6409 7297,6409 7270,6481 "/>
   <path class="fil0" d="M7469 5911l-3 0c3,38 6,107 6,176l0 394 -75 0 0 -650 120 0 198 532 4 0 201 -532 119 0 0 650 -80 0 0 -400c0,-62 3,-130 6,-169l-4 0 -214 569 -66 0 -212 -570z"/>
   <polygon class="fil0" points="8146,6481 8173,6408 8222,6408 8222,5903 8146,5903 8146,5831 8378,5831 8351,5903 8303,5903 8303,6408 8378,6408 8378,6481 "/>
   <path class="fil0" d="M8899 6481l-344 -540 -3 0c2,43 7,110 7,177l0 363 -75 0 0 -650 94 0 342 538 4 0c-2,-29 -6,-112 -6,-171l0 -367 75 0 0 650 -94 0z"/>
   <path class="fil0" d="M9493 5631c-23,34 -87,104 -129,137l-52 0 0 -11c26,-34 64,-94 85,-135l96 0 0 9zm-97 379c-5,-14 -24,-74 -30,-97 -9,37 -21,77 -28,97l-73 197 203 0 -72 -197zm97 270l-255 0 -76 201 -82 0 251 -652 72 0 251 652 -84 0 -77 -201z"/>
   <path class="fil0" d="M9821 5902l0 241 96 0c104,0 150,-42 150,-123 0,-85 -49,-118 -155,-118l-91 0zm330 114c0,104 -64,151 -129,174l176 291 -94 0 -156 -269 -127 0 0 269 -81 0 0 -650 177 0c159,0 234,61 234,185z"/>
   <polygon class="fil0" points="10267,6481 10294,6408 10343,6408 10343,5903 10267,5903 10267,5831 10499,5831 10472,5903 10424,5903 10424,6408 10499,6408 10499,6481 "/>
   <path class="fil0" d="M10860 6419c146,0 210,-100 210,-264 0,-164 -64,-262 -209,-262 -146,0 -212,98 -212,262 0,164 66,264 211,264zm0 71c-201,0 -297,-135 -297,-336 0,-199 96,-333 298,-333 192,0 295,132 295,334 0,201 -103,335 -296,335z"/>
   <path class="fil0" d="M11770 6010c-5,-14 -24,-74 -30,-97 -9,37 -21,77 -28,97l-73 197 203 0 -72 -197zm96 270l-254 0 -77 201 -81 0 251 -652 72 0 250 652 -83 0 -78 -201z"/>
   <path class="fil0" d="M12300 5901l-105 0 0 510 87 0c173,0 261,-88 261,-259 0,-172 -88,-251 -243,-251zm-7 580l-179 0 0 -650 198 0c193,0 316,110 316,319 0,219 -124,331 -335,331z"/>
   <path class="fil0" d="M12966 6481l-81 0 -229 -650 84 0 145 417c19,53 32,99 41,142 8,-43 21,-89 40,-144l144 -415 86 0 -230 650z"/>
   <polygon class="fil0" points="13281,6481 13281,5831 13640,5831 13640,5903 13362,5903 13362,6106 13603,6106 13603,6177 13362,6177 13362,6409 13660,6409 13633,6481 "/>
   <path class="fil0" d="M14175 6481l-343 -540 -4 0c3,43 7,110 7,177l0 363 -74 0 0 -650 93 0 343 538 4 0c-2,-29 -7,-112 -7,-171l0 -367 76 0 0 650 -95 0z"/>
   <polygon class="fil0" points="14560,6481 14560,5903 14360,5903 14387,5831 14841,5831 14841,5903 14641,5903 14641,6481 "/>
   <polygon class="fil0" points="14908,6481 14935,6408 14983,6408 14983,5903 14908,5903 14908,5831 15140,5831 15113,5903 15064,5903 15064,6408 15140,6408 15140,6481 "/>
   <path class="fil0" d="M15403 6490c-72,0 -136,-11 -176,-31l25 -68c28,13 86,28 154,28 96,0 145,-40 145,-105 0,-63 -35,-91 -151,-133 -110,-41 -165,-92 -165,-193 0,-103 83,-166 205,-166 70,0 128,15 177,37l-26 70c-45,-19 -97,-35 -153,-35 -80,0 -122,38 -122,95 0,65 36,91 141,131 113,42 175,85 175,187 0,115 -89,183 -229,183z"/>
   <polygon class="fil0" points="15893,6481 15893,5903 15692,5903 15719,5831 16173,5831 16173,5903 15974,5903 15974,6481 "/>
   <path class="fil0" d="M16431 6010c-6,-14 -25,-74 -31,-97 -9,37 -21,77 -28,97l-73 197 204 0 -72 -197zm96 270l-255 0 -76 201 -82 0 251 -652 73 0 250 652 -84 0 -77 -201z"/>
   <polygon class="fil0" points="6432,6983 6513,6983 6513,7560 6808,7560 6782,7633 6432,7633 "/>
   <path class="fil0" d="M7164 7163c-6,-15 -25,-75 -31,-98 -9,38 -21,77 -28,98l-73 196 204 0 -72 -196zm96 269l-255 0 -76 201 -82 0 251 -652 73 0 250 652 -84 0 -77 -201z"/>
   <polygon class="fil0" points="7562,7633 7562,7055 7361,7055 7388,6983 7842,6983 7842,7055 7643,7055 7643,7633 "/>
   <polygon class="fil0" points="7909,7633 7936,7560 7984,7560 7984,7055 7909,7055 7909,6983 8141,6983 8114,7055 8065,7055 8065,7560 8141,7560 8141,7633 "/>
   <path class="fil0" d="M8662 7633l-344 -540 -3 0c2,43 7,110 7,177l0 363 -75 0 0 -650 94 0 342 538 4 0c-2,-29 -6,-112 -6,-171l0 -367 75 0 0 650 -94 0z"/>
   <polygon class="fil0" points="9558,7263 9776,7263 9803,7334 9585,7334 "/>
   <path class="fil0" d="M10114 7163c-6,-15 -25,-75 -31,-98 -9,38 -21,77 -28,98l-73 196 204 0 -72 -196zm96 269l-255 0 -76 201 -82 0 251 -652 73 0 250 652 -84 0 -77 -201z"/>
   <path class="fil0" d="M10529 7063l-4 0c4,38 7,107 7,176l0 394 -75 0 0 -650 120 0 198 532 3 0 202 -532 118 0 0 650 -80 0 0 -400c0,-62 4,-130 7,-169l-4 0 -214 569 -67 0 -211 -570z"/>
   <polygon class="fil0" points="11255,7633 11255,6983 11614,6983 11614,7055 11336,7055 11336,7258 11577,7258 11577,7329 11336,7329 11336,7561 11634,7561 11607,7633 "/>
   <path class="fil0" d="M11815 7054l0 241 96 0c105,0 151,-42 151,-123 0,-85 -50,-118 -155,-118l-92 0zm330 114c0,104 -64,151 -128,174l176 291 -94 0 -156 -269 -128 0 0 269 -81 0 0 -650 177 0c160,0 234,61 234,185z"/>
   <polygon class="fil0" points="12262,7633 12289,7560 12337,7560 12337,7055 12262,7055 12262,6983 12494,6983 12467,7055 12418,7055 12418,7560 12494,7560 12494,7633 "/>
   <path class="fil0" d="M12643 7308c0,161 74,262 221,262 56,0 125,-13 166,-33l23 63c-70,33 -117,41 -195,42l-7 0c-196,-1 -293,-131 -293,-335 0,-196 109,-333 308,-333 66,0 123,11 172,36l-27 72c-40,-19 -88,-36 -146,-36 -137,0 -222,99 -222,262z"/>
   <path class="fil0" d="M13421 7163c-5,-15 -24,-75 -31,-98 -9,38 -20,77 -27,98l-73 196 203 0 -72 -196zm96 269l-254 0 -77 201 -82 0 251 -652 73 0 250 652 -83 0 -78 -201z"/>
   <path class="fil0" d="M14179 7633l-343 -540 -4 0c3,43 7,110 7,177l0 363 -74 0 0 -650 93 0 343 538 3 0c-1,-29 -6,-112 -6,-171l0 -367 76 0 0 650 -95 0z"/>
   <path class="fil0" d="M15565 7053l-106 0 0 510 88 0c173,0 260,-88 260,-259 0,-172 -88,-251 -242,-251zm-8 580l-179 0 0 -650 198 0c194,0 317,110 317,319 0,219 -124,331 -336,331z"/>
   <polygon class="fil0" points="16016,7633 16016,6983 16375,6983 16375,7055 16097,7055 16097,7258 16338,7258 16338,7329 16097,7329 16097,7561 16395,7561 16368,7633 "/>
   <polygon class="fil0" points="16882,7633 16882,7055 16681,7055 16708,6983 17162,6983 17162,7055 16963,7055 16963,7633 "/>
   <polygon class="fil0" points="17252,7633 17252,6983 17611,6983 17611,7055 17333,7055 17333,7258 17574,7258 17574,7329 17333,7329 17333,7561 17631,7561 17604,7633 "/>
   <polygon class="fil0" points="18404,6983 18485,6983 18485,7560 18781,7560 18754,7633 18404,7633 "/>
   <path class="fil0" d="M20040 7290l0 318c-68,23 -134,33 -221,34l-6 0c-199,-1 -306,-129 -306,-334 0,-203 122,-334 333,-334 72,0 136,15 191,39l-27 71c-46,-20 -108,-38 -169,-38 -154,0 -244,100 -244,262 0,156 70,263 242,263 57,0 94,-7 126,-16l0 -192 -141 0 27 -73 195 0z"/>
   <polygon class="fil0" points="20131,7633 20158,7560 20207,7560 20207,7055 20131,7055 20131,6983 20364,6983 20337,7055 20288,7055 20288,7560 20364,7560 20364,7633 "/>
   <polygon class="fil0" points="6413,2603 6473,2442 6580,2442 6580,1327 6413,1327 6413,1168 6926,1168 6866,1327 6759,1327 6759,2442 6926,2442 6926,2603 "/>
   <path class="fil0" d="M7701 1869c0,-156 -74,-235 -219,-235 -145,0 -218,81 -218,237 0,149 73,223 220,223 145,0 217,-76 217,-225zm119 862c0,-58 -16,-96 -48,-116 -33,-20 -97,-30 -192,-30l-183 0c-149,0 -223,64 -223,195 0,112 88,170 262,170 257,0 384,-72 384,-219zm-813 55c0,-139 78,-228 233,-266 -62,-30 -94,-82 -94,-150 0,-75 44,-137 129,-189 -121,-50 -184,-179 -184,-304 0,-251 155,-371 397,-371 56,0 103,6 145,20l368 0 -52 136 -139 0c42,57 64,127 64,209 0,223 -161,346 -392,346 -36,0 -63,-2 -83,-6 -66,36 -98,80 -98,130 0,55 54,83 157,83l181 0c215,0 348,98 348,291 0,247 -183,370 -549,370 -248,0 -431,-86 -431,-299z"/>
   <path class="fil0" d="M8792 1518l-22 162c-34,-8 -80,-14 -115,-14 -165,0 -310,145 -310,362l0 575 -175 0 0 -1077 143 0 20 197 8 0c67,-119 176,-217 326,-217 39,0 89,4 125,12z"/>
   <path class="fil0" d="M8996 1958l543 0c-2,-183 -82,-308 -258,-308 -167,0 -267,115 -285,308zm726 34l0 106 -730 0c6,243 128,374 340,374 104,0 209,-20 292,-52l50 132c-109,49 -205,71 -350,71 -304,0 -512,-191 -512,-551 0,-353 188,-566 471,-566 272,0 439,193 439,486z"/>
   <path class="fil0" d="M10008 1122c53,0 101,34 101,112 0,77 -48,113 -101,113 -58,0 -104,-36 -104,-113 0,-78 46,-112 104,-112zm-229 1816c114,-52 139,-128 139,-319l0 -1093 175 0 0 1103c0,211 -55,378 -258,456l-56 -147z"/>
   <path class="fil0" d="M10807 2082c-267,10 -352,87 -352,223 0,121 79,175 195,175 179,0 314,-98 314,-307l0 -97 -157 6zm330 -213l0 734 -128 0 -33 -153 -8 0c-94,119 -179,173 -358,173 -193,0 -336,-101 -336,-320 0,-215 163,-333 511,-343l181 -6 0 -65c0,-178 -82,-239 -221,-239 -111,0 -213,40 -300,83l-54 -133c94,-50 225,-92 364,-92 258,0 382,110 382,361z"/>
   <path class="fil0" d="M12434 1564c-12,-32 -53,-165 -67,-215 -20,82 -46,169 -62,215l-161 434 449 0 -159 -434zm213 595l-563 0 -169 444 -180 0 554 -1441 161 0 553 1441 -185 0 -171 -444z"/>
   <path class="fil0" d="M13807 2100l0 -32c0,-267 -71,-416 -308,-416 -189,0 -282,163 -282,418 0,257 93,406 284,406 225,0 306,-124 306,-376zm-771 -34c0,-369 175,-560 439,-560 165,0 265,70 330,158l12 0c-4,-34 -12,-118 -12,-158l0 -362 175 -68 0 1527 -141 0 -26 -145 -8 0c-63,92 -165,165 -332,165 -264,0 -437,-187 -437,-557z"/>
   <path class="fil0" d="M14125 1526l187 0 227 635c31,88 73,219 85,285l8 0c14,-66 60,-199 89,-285l227 -635 187 0 -406 1077 -200 0 -404 -1077z"/>
   <path class="fil0" d="M15383 1958l543 0c-2,-183 -82,-308 -259,-308 -167,0 -266,115 -284,308zm726 34l0 106 -730 0c6,243 127,374 340,374 103,0 209,-20 292,-52l50 132c-109,49 -205,71 -350,71 -304,0 -513,-191 -513,-551 0,-353 189,-566 471,-566 273,0 440,193 440,486z"/>
   <path class="fil0" d="M17195 1901l0 702 -172 0 0 -689c0,-173 -76,-260 -239,-260 -236,0 -312,139 -312,390l0 559 -175 0 0 -1077 141 0 26 146 10 0c70,-112 201,-166 336,-166 254,0 385,118 385,395z"/>
   <path class="fil0" d="M17907 2452l48 127c-38,24 -114,44 -195,44 -167,0 -312,-73 -312,-334l0 -944 175 -66 0 247 308 0 0 136 -308 0 0 623c0,131 69,193 167,193 39,0 93,-14 117,-26z"/>
   <path class="fil0" d="M18326 2603l-175 0 0 -1077 175 0 0 1077zm16 -1369c0,77 -48,113 -101,113 -58,0 -104,-36 -104,-113 0,-78 46,-112 104,-112 53,0 101,34 101,112z"/>
   <path class="fil0" d="M18892 2623c-149,0 -252,-24 -333,-69l51 -136c70,30 185,62 286,62 177,0 253,-62 253,-159 0,-80 -54,-128 -262,-209 -207,-80 -330,-144 -330,-321 0,-183 161,-285 399,-285 129,0 241,28 340,72l-54 143c-91,-41 -195,-71 -298,-71 -143,0 -220,51 -220,131 0,90 69,126 274,205 203,76 320,147 320,319 0,209 -165,318 -426,318z"/>
   <path class="fil0" d="M19991 2452l48 127c-38,24 -113,44 -195,44 -167,0 -312,-73 -312,-334l0 -944 175 -66 0 247 308 0 0 136 -308 0 0 623c0,131 70,193 167,193 40,0 94,-14 117,-26z"/>
   <path class="fil0" d="M20651 2082c-266,10 -352,87 -352,223 0,121 80,175 195,175 179,0 314,-98 314,-307l0 -97 -157 6zm330 -213l0 734 -127 0 -34 -153 -8 0c-93,119 -179,173 -358,173 -192,0 -335,-101 -335,-320 0,-215 162,-333 510,-343l181 -6 0 -65c0,-178 -81,-239 -220,-239 -112,0 -213,40 -301,83l-53 -133c93,-50 224,-92 363,-92 259,0 382,110 382,361z"/>
   <path class="fil0" d="M7174 4255l0 -32c0,-267 -71,-416 -308,-416 -189,0 -282,163 -282,418 0,257 93,406 284,406 225,0 306,-125 306,-376zm-771 -34c0,-370 175,-561 439,-561 165,0 265,71 330,159l12 0c-4,-34 -12,-119 -12,-159l0 -361 175 -69 0 1527 -141 0 -26 -144 -8 0c-63,92 -165,164 -332,164 -264,0 -437,-187 -437,-556z"/>
   <path class="fil0" d="M8019 4631c214,0 312,-159 312,-414 0,-255 -98,-408 -314,-408 -217,0 -310,153 -310,408 0,255 95,414 312,414zm-4 146c-282,0 -489,-203 -489,-560 0,-356 189,-557 495,-557 288,0 491,201 491,557 0,357 -193,560 -497,560z"/>
   <path class="fil0" d="M9626 4777c-159,0 -300,-24 -389,-68l55 -149c62,28 191,61 342,61 211,0 320,-89 320,-231 0,-141 -77,-201 -334,-296 -242,-88 -365,-203 -365,-426 0,-227 185,-365 453,-365 155,0 284,32 391,80l-57 155c-100,-43 -215,-77 -338,-77 -177,0 -268,85 -268,209 0,145 79,203 310,290 250,94 387,188 387,413 0,256 -197,404 -507,404z"/>
   <path class="fil0" d="M10994 3238c-50,75 -191,229 -285,302l-115 0 0 -24c58,-75 143,-207 189,-298l211 0 0 20zm-553 874l543 0c-2,-183 -82,-307 -259,-307 -167,0 -266,114 -284,307zm725 34l0 107 -729 0c6,243 127,374 340,374 103,0 209,-20 292,-53l50 133c-110,48 -205,70 -350,70 -304,0 -513,-191 -513,-550 0,-354 189,-567 471,-567 273,0 439,193 439,486z"/>
   <path class="fil0" d="M11812 4607l48 126c-38,24 -113,44 -195,44 -167,0 -312,-72 -312,-333l0 -945 175 -66 0 247 308 0 0 137 -308 0 0 623c0,130 70,193 167,193 40,0 93,-14 117,-26z"/>
   <path class="fil0" d="M12232 4757l-175 0 0 -1077 175 0 0 1077zm15 -1368c0,76 -47,112 -101,112 -58,0 -103,-36 -103,-112 0,-78 45,-113 103,-113 54,0 101,35 101,113z"/>
   <path class="fil0" d="M14050 4056l0 701 -173 0 0 -693c0,-169 -70,-255 -217,-255 -206,0 -288,124 -288,354l0 594 -173 0 0 -693c0,-169 -69,-255 -218,-255 -215,0 -285,139 -285,390l0 558 -174 0 0 -1077 141 0 26 147 9 0c66,-113 187,-167 314,-167 163,0 275,58 326,181l10 0c72,-123 203,-181 342,-181 241,0 360,119 360,396z"/>
   <path class="fil0" d="M14733 4631c215,0 312,-159 312,-414 0,-255 -97,-408 -314,-408 -216,0 -310,153 -310,408 0,255 96,414 312,414zm-4 146c-282,0 -488,-203 -488,-560 0,-356 188,-557 494,-557 289,0 491,201 491,557 0,357 -193,560 -497,560z"/>
   <path class="fil0" d="M16415 3477l-233 0 0 1126 193 0c383,0 576,-193 576,-571 0,-382 -195,-555 -536,-555zm-16 1280l-396 0 0 -1434 437 0c428,0 700,243 700,703 0,484 -274,731 -741,731z"/>
   <path class="fil0" d="M17525 4757l-175 0 0 -1077 175 0 0 1077zm16 -1368c0,76 -47,112 -101,112 -58,0 -103,-36 -103,-112 0,-78 45,-113 103,-113 54,0 101,35 101,113z"/>
   <path class="fil0" d="M18239 4237c-267,10 -352,86 -352,223 0,120 80,175 195,175 179,0 314,-99 314,-308l0 -96 -157 6zm330 -213l0 733 -128 0 -33 -152 -8 0c-94,118 -179,172 -358,172 -193,0 -336,-100 -336,-319 0,-215 163,-334 511,-344l181 -6 0 -64c0,-179 -82,-239 -221,-239 -111,0 -212,40 -300,82l-54 -132c94,-51 225,-93 364,-93 258,0 382,111 382,362z"/>
   <path class="fil0" d="M18737 3379c18,0 30,-10 30,-26 0,-16 -10,-24 -30,-24l-17 0 0 50 17 0zm-45 -74l45 0c40,0 58,16 58,48 0,22 -14,34 -28,40l42 70 -32 0 -36 -62 -21 0 0 62 -28 0 0 -158zm161 80c0,-62 -46,-115 -112,-115 -65,0 -111,49 -111,115 0,62 46,112 111,112 62,0 112,-46 112,-112zm-243 0c0,-78 54,-135 131,-135 74,0 132,57 132,135 0,76 -56,133 -132,133 -77,0 -131,-57 -131,-133z"/>
   <path class="fil0" d="M2734 4463c0,20 23,20 26,0 30,-143 74,-239 144,-332l-157 0c-7,0 -13,6 -13,13l0 319zm1148 -1992c-6,-21 -24,-22 -24,0 2,207 -57,385 -432,764l-296 300c-135,136 -256,260 -328,385l293 0c11,-11 23,-23 34,-35l426 -430c354,-358 403,-737 327,-984zm-397 1266l-355 359c-215,217 -396,405 -396,610l1 57c0,15 19,17 25,1 66,-183 288,-379 694,-309 0,0 1772,309 1787,310 18,2 26,-15 15,-29 -7,-8 -825,-835 -825,-835l-946 -164zm-1282 394c-7,0 -13,-6 -13,-13l0 -185c0,-7 6,-13 13,-13l310 0c7,0 13,-6 13,-13 -1,-167 -125,-280 -622,-192l-1074 186c0,0 -818,827 -825,835 -11,14 -3,31 15,29 15,-1 1787,-310 1787,-310 406,-70 628,126 694,309 6,16 25,14 25,-1 0,-12 0,-619 0,-619 0,-7 -5,-13 -12,-13l-311 0zm-495 -2591c-354,358 -403,737 -328,984 7,21 25,22 24,0 -1,-207 58,-385 432,-764l808 -817c215,-217 395,-404 395,-609l0 -319c0,-20 -22,-20 -26,0 -53,260 -156,363 -368,578l-937 947zm1332 -645l0 -322c0,-19 -22,-19 -26,0 -53,261 -156,366 -368,581l-849 856c-411,417 -483,819 -273,1078 14,18 29,7 20,-14 -139,-316 193,-652 351,-812l750 -758c215,-217 395,-404 395,-609zm-1219 1653c-412,417 -223,819 17,929 21,10 30,-7 14,-21 -193,-169 -134,-453 108,-698l684 -691c215,-218 395,-405 395,-610l0 -319c0,-20 -22,-20 -26,0 -53,261 -156,363 -368,578l-824 832zm913 1035l0 322c0,19 22,19 26,0 53,-261 156,-366 368,-581l337 -339c412,-417 483,-819 274,-1078 -14,-18 -29,-7 -20,14 138,316 -194,652 -352,812l-238 241c-215,217 -395,404 -395,609zm395 -821c-212,215 -315,317 -368,578 -4,20 -26,20 -26,0l0 -319c0,-205 180,-392 395,-610l173 -174c242,-245 301,-529 108,-698 -16,-14 -8,-31 13,-21 240,110 430,512 18,929l-313 315z"/>
   <path class="fil0" d="M5125 4155c19,0 30,-10 30,-26 0,-17 -9,-24 -30,-24l-17 0 0 50 17 0zm-45 -73l46 0c39,0 57,15 57,47 0,22 -14,35 -28,41l42 70 -31 0 -36 -62 -22 0 0 62 -28 0 0 -158zm161 79c0,-63 -47,-114 -112,-114 -65,0 -111,48 -111,114 0,63 46,114 111,114 62,0 112,-48 112,-114zm-243 0c0,-77 55,-133 131,-133 73,0 132,56 132,133 0,77 -55,133 -132,133 -76,0 -131,-56 -131,-133z"/>
   <path class="fil1" d="M9181 7642c193,-1 295,-134 295,-335 0,-202 -102,-334 -295,-334 -201,0 -298,134 -298,333 0,201 96,335 296,336l2 0zm210 -335c0,164 -65,264 -211,264 -145,0 -211,-100 -211,-264 0,-164 66,-262 212,-262 145,0 210,98 210,262z"/>
   <path class="fil1" d="M14699 7642c192,-1 294,-134 294,-335 0,-202 -102,-334 -295,-334 -201,0 -297,134 -297,333 0,201 96,335 295,336l3 0zm209 -335c0,164 -65,264 -210,264 -145,0 -212,-100 -212,-264 0,-164 67,-262 212,-262 145,0 210,98 210,262z"/>
   <path class="fil1" d="M18279 7307c0,-202 -103,-334 -296,-334 -201,0 -297,134 -297,333 0,201 96,335 295,336l3 0c192,-1 295,-134 295,-335zm-296 -262c145,0 210,98 210,262 0,164 -65,264 -210,264 -145,0 -212,-100 -212,-264 0,-164 67,-262 212,-262z"/>
   <path class="fil1" d="M19410 7307c0,-202 -102,-334 -295,-334 -201,0 -297,134 -297,333 0,201 96,335 295,336l3 0c192,-1 294,-134 294,-335zm-85 0c0,164 -65,264 -210,264 -145,0 -212,-100 -212,-264 0,-164 67,-262 212,-262 145,0 210,98 210,262z"/>
   <path class="fil1" d="M20585 7432l254 0 77 201 84 0 -250 -652 -73 0 -251 652 82 0 77 -201zm26 -73l73 -196c8,-21 19,-60 28,-98 6,23 25,83 31,98l72 196 -204 0z"/>
  </g>
 </g>
</svg>
