<?xml version="1.0" encoding="UTF-8"?>
<!DOCTYPE svg PUBLIC "-//W3C//DTD SVG 1.1//EN" "http://www.w3.org/Graphics/SVG/1.1/DTD/svg11.dtd">
<!-- Creator: CorelDRAW X7 -->
<svg xmlns="http://www.w3.org/2000/svg" xml:space="preserve" width="90.9417mm" height="91.013mm" version="1.1" style="shape-rendering:geometricPrecision; text-rendering:geometricPrecision; image-rendering:optimizeQuality; fill-rule:evenodd; clip-rule:evenodd"
viewBox="0 0 9094 9101"
 xmlns:xlink="http://www.w3.org/1999/xlink">
 <defs>
  <style type="text/css">
   <![CDATA[
    .fil0 {fill:white}
   ]]>
  </style>
 </defs>
 <g id="Camada_x0020_1">
  <metadata id="CorelCorpID_0Corel-Layer"/>
  <g id="_2719835452400">
   <path class="fil0" d="M6132 441l7 154 130 82 -144 54 -38 150 -96 -121 -154 10 86 -128 -58 -143 149 41 118 -99zm-692 -290l52 194 189 68 -168 109 -5 201 -157 -126 -193 57 72 -188 -113 -166 200 11 123 -160zm-2453 290l-7 154 -130 82 144 54 38 150 96 -121 154 10 -86 -128 58 -143 -149 41 -118 -99zm692 -290l-52 194 -189 68 168 109 6 201 156 -126 193 57 -72 -188 114 -166 -201 11 -123 -160zm881 -151l109 221 243 35 -176 172 41 243 -217 -115 -218 115 41 -243 -176 -172 244 -35 109 -221z"/>
   <path class="fil0" d="M6209 8742c42,0 76,34 76,76 0,42 -34,76 -76,76 -42,0 -76,-34 -76,-76 0,-42 34,-76 76,-76zm-6104 -5016l0 0c17,477 48,534 328,916 107,-275 -62,-780 -328,-916zm2628 -2715l0 0c-146,-99 -433,-62 -589,50l-9 -10c-511,384 -931,886 -1220,1467 -278,559 -434,1191 -434,1861 0,1000 350,1918 932,2633 593,727 1426,1246 2376,1428 52,11 102,21 154,32 146,30 295,61 446,75 -92,41 -243,171 -410,341 -38,39 -165,187 -70,209 95,22 166,-53 219,-109 55,-60 112,-120 166,-174 113,-114 212,-201 246,-201l23 0c32,0 131,89 246,204 64,64 132,136 196,206 49,48 109,92 185,74 95,-22 -33,-171 -70,-209l3 2c-21,-20 -43,-38 -65,-55 -29,-23 -66,-58 -108,-96 -78,-73 -169,-157 -240,-191 64,-6 128,-14 191,-25 -40,10 -78,22 -113,38 562,370 645,411 1324,401 -180,-310 -722,-503 -1118,-455 74,-14 148,-30 221,-45 48,-10 96,-21 138,-29 941,-191 1764,-711 2350,-1437 575,-713 920,-1624 920,-2617 0,-670 -157,-1302 -435,-1861 -289,-581 -709,-1083 -1220,-1467l-6 7c-161,-92 -415,-116 -549,-25 277,141 328,146 616,109 748,681 1174,1464 1343,2257 141,657 105,1320 -68,1936 -173,617 -483,1186 -893,1655 -520,595 -1200,1029 -1962,1192 -284,61 -580,40 -884,18l-13 -1 -2 0c-149,20 -297,39 -442,48 -144,8 -287,6 -426,-17 -746,-127 -1415,-540 -1933,-1124 -403,-456 -713,-1015 -895,-1625 -82,-275 -138,-560 -165,-851 4,18 8,35 13,51 286,-355 318,-408 355,-865 -211,96 -370,423 -378,688 -9,-158 -10,-318 -2,-477 326,-285 368,-338 482,-774 -190,49 -373,269 -457,492 8,-62 17,-125 27,-188 14,-81 30,-162 49,-243 316,-195 357,-231 513,-579 -169,15 -356,180 -455,359 39,-134 86,-267 140,-398 -3,11 -6,23 -7,34 350,-153 396,-180 601,-506 -191,-10 -434,166 -544,356 51,-114 108,-228 172,-340 307,-81 348,-98 560,-340 -152,-32 -364,73 -484,209 65,-105 135,-209 211,-312 -8,13 -16,25 -21,38 316,-44 359,-55 598,-272 -165,-55 -426,52 -550,197 169,-222 365,-437 590,-642 301,38 349,35 631,-107zm-319 277l0 0c-278,198 -324,204 -663,211 111,-180 470,-303 663,-211zm-1316 3029l0 0c70,558 44,630 -210,1126 -175,-300 -74,-917 210,-1126zm72 742l0 0c181,532 170,608 21,1145 -232,-259 -257,-884 -21,-1145zm215 669l0 0c347,538 356,625 340,1260 -328,-222 -529,-906 -340,-1260zm413 720l0 0c467,439 497,521 634,1141 -371,-136 -731,-751 -634,-1141zm634 578l0 0c598,320 651,396 964,992 -418,-37 -956,-566 -964,-992zm785 514l0 0c667,122 741,178 1220,650 -409,93 -1083,-247 -1220,-650zm-582 -6883l0 0c-33,159 -271,319 -430,303 159,-201 184,-225 430,-303zm-499 125l0 0c28,160 -135,397 -288,441 73,-246 88,-278 288,-441zm-349 197l0 0c56,187 -106,494 -284,568 54,-304 67,-345 284,-568zm-341 352l0 0c76,181 -50,503 -219,597 20,-309 28,-350 219,-597zm-348 411l0 0c99,169 13,505 -142,619 -19,-309 -17,-351 142,-619zm-279 382l0 0c117,157 72,500 -69,632 -55,-305 -58,-347 69,-632zm-316 372l0 0c181,179 188,630 32,825 -129,-380 -140,-434 -32,-825zm-220 647l0 0c207,148 286,592 163,810 -188,-356 -208,-408 -163,-810zm-245 1316l0 0c285,91 534,560 475,849 -339,-330 -380,-381 -475,-849zm-35 649l0 0c347,42 733,524 728,867 -460,-304 -517,-353 -728,-867zm131 794l0 0c347,-30 824,364 889,700 -512,-204 -578,-240 -889,-700zm204 673l0 0c370,-99 960,235 1094,587 -592,-123 -670,-150 -1094,-587zm497 706l0 0c346,-161 986,64 1180,386 -604,-16 -686,-29 -1180,-386zm549 715l0 0c343,-253 1091,-147 1374,162 -663,115 -756,119 -1374,-162zm775 555l0 0c284,-317 1037,-366 1377,-121 -626,247 -715,270 -1377,121zm824 411l0 0c213,-369 940,-572 1323,-401 -562,370 -645,411 -1323,401zm6006 -5236l0 0c-16,477 -48,534 -328,916 -106,-275 62,-780 328,-916zm-2309 -2438l0 0c193,-92 553,31 663,211 -338,-7 -385,-13 -663,-211zm353 275l0 0c191,-65 514,91 598,272 -317,-44 -360,-55 -598,-272zm303 337l0 0c198,-42 501,151 563,340 -310,-81 -350,-97 -563,-340zm188 324l0 0c242,-13 564,271 601,506 -350,-153 -395,-180 -601,-506zm279 511l0 0c241,21 520,348 524,586 -325,-201 -366,-234 -524,-586zm132 518l0 0c279,72 542,510 500,790 -342,-300 -384,-346 -500,-790zm102 563l0 0c262,120 445,596 355,865 -286,-355 -318,-408 -355,-865zm-41 501l0 0c285,209 386,826 211,1126 -254,-496 -280,-568 -211,-1126zm-72 742l0 0c236,261 211,886 -21,1145 -149,-537 -160,-613 21,-1145zm-215 669l0 0c189,354 -12,1038 -340,1260 -16,-635 -7,-722 340,-1260zm-413 720l0 0c98,390 -263,1005 -634,1141 138,-620 167,-702 634,-1141zm-633 578l0 0c-8,426 -547,955 -965,992 313,-596 366,-672 965,-992zm-786 514l0 0c-137,403 -811,743 -1220,650 480,-472 553,-528 1220,-650zm582 -6883l0 0c246,78 271,102 430,303 -159,16 -397,-144 -430,-303zm499 125l0 0c201,163 215,195 288,441 -153,-44 -316,-281 -288,-441zm349 197l0 0c217,223 230,264 284,568 -178,-74 -340,-381 -284,-568zm341 352l0 0c191,247 199,288 219,597 -169,-94 -295,-416 -219,-597zm348 411l0 0c159,268 161,310 142,619 -155,-114 -241,-450 -142,-619zm279 382l0 0c127,285 124,327 69,632 -141,-132 -186,-475 -69,-632zm316 372l0 0c108,391 97,445 -32,825 -156,-195 -149,-646 32,-825zm220 647l0 0c45,402 25,454 -162,810 -124,-218 -45,-662 162,-810zm245 1316l0 0c-95,468 -136,519 -475,849 -59,-289 190,-758 475,-849zm35 649l0 0c-211,514 -268,563 -728,867 -5,-343 382,-825 728,-867zm-131 794l0 0c-311,460 -377,496 -889,700 65,-336 542,-730 889,-700zm-204 673l0 0c-424,437 -502,464 -1094,587 135,-352 725,-686 1094,-587zm-497 706l0 0c-493,357 -576,370 -1180,386 195,-322 834,-547 1180,-386zm-549 715l0 0c-618,281 -710,277 -1374,162 283,-309 1031,-415 1374,-162zm-774 555l0 0c-662,149 -752,126 -1378,-121 340,-245 1093,-196 1378,121zm1389 -1525l0 0c35,0 62,28 62,62 0,34 -27,62 -62,62 -34,0 -62,-28 -62,-62 0,-34 28,-62 62,-62zm-7556 0l0 0c34,0 62,28 62,62 0,34 -28,62 -62,62 -34,0 -62,-28 -62,-62 0,-34 28,-62 62,-62zm1462 -6256l0 0c-12,0 -22,10 -22,22 0,12 10,22 22,22 12,0 22,-10 22,-22 0,-12 -10,-22 -22,-22zm-368 181l0 0c12,0 22,10 22,22 0,12 -10,22 -22,22 -12,0 -22,-10 -22,-22 0,-12 10,-22 22,-22zm-359 283l0 0c12,0 22,10 22,23 0,12 -10,22 -22,22 -12,0 -22,-10 -22,-22 0,-13 10,-23 22,-23zm-314 374l0 0c18,0 32,14 32,32 0,17 -14,32 -32,32 -18,0 -32,-15 -32,-32 0,-18 14,-32 32,-32zm-300 366l0 0c22,0 40,18 40,40 0,22 -18,40 -40,40 -22,0 -40,-18 -40,-40 0,-22 18,-40 40,-40zm-268 405l0 0c22,0 40,18 40,40 0,22 -18,39 -40,39 -22,0 -40,-17 -40,-39 0,-22 18,-40 40,-40zm-279 571l0 0c-27,0 -49,21 -49,48 0,27 22,49 49,49 27,0 49,-22 49,-49 0,-27 -22,-48 -49,-48zm-181 570l0 0c-27,0 -49,22 -49,49 0,27 22,49 49,49 26,0 48,-22 48,-49 0,-27 -22,-49 -48,-49zm-85 712l0 0c27,0 49,22 49,49 0,27 -22,49 -49,49 -27,0 -49,-22 -49,-49 0,-27 22,-49 49,-49zm-21 670l0 0c-31,0 -56,25 -56,56 0,31 25,56 56,56 31,0 56,-25 56,-56 0,-31 -25,-56 -56,-56zm96 726l0 0c-35,0 -62,27 -62,62 0,34 27,62 62,62 34,0 61,-28 61,-62 0,-35 -27,-62 -61,-62zm209 688l0 0c-35,0 -62,28 -62,62 0,34 27,62 62,62 34,0 62,-28 62,-62 0,-34 -28,-62 -62,-62zm1025 1384l0 0c34,0 61,28 61,62 0,34 -27,62 -61,62 -35,0 -62,-28 -62,-62 0,-34 27,-62 62,-62zm612 604l0 0c34,0 62,27 62,62 0,34 -28,62 -62,62 -34,0 -62,-28 -62,-62 0,-35 28,-62 62,-62zm887 438l0 0c42,0 76,34 76,76 0,42 -34,76 -76,76 -42,0 -75,-34 -75,-76 0,-42 33,-76 75,-76zm3978 -7972l0 0c-12,0 -22,10 -22,22 0,12 10,22 22,22 12,0 22,-10 22,-22 0,-12 -10,-22 -22,-22zm368 181l0 0c12,0 22,10 22,22 0,12 -10,22 -22,22 -12,0 -22,-10 -22,-22 0,-12 10,-22 22,-22zm359 283l0 0c12,0 22,10 22,23 0,12 -10,22 -22,22 -12,0 -22,-10 -22,-22 0,-13 10,-23 22,-23zm314 374l0 0c18,0 32,14 32,32 0,17 -14,32 -32,32 -18,0 -32,-15 -32,-32 0,-18 14,-32 32,-32zm300 366l0 0c22,0 40,18 40,40 0,22 -18,40 -40,40 -22,0 -40,-18 -40,-40 0,-22 18,-40 40,-40zm268 405l0 0c22,0 40,18 40,40 0,22 -18,39 -40,39 -22,0 -40,-17 -40,-39 0,-22 18,-40 40,-40zm279 571l0 0c27,0 49,21 49,48 0,27 -22,49 -49,49 -27,0 -49,-22 -49,-49 0,-27 22,-48 49,-48zm182 570l0 0c27,0 48,22 48,49 0,27 -21,49 -48,49 -27,0 -49,-22 -49,-49 0,-27 22,-49 49,-49zm84 712l0 0c-27,0 -49,22 -49,49 0,27 22,49 49,49 27,0 49,-22 49,-49 0,-27 -22,-49 -49,-49zm21 670l0 0c-30,0 -55,25 -55,56 0,31 25,56 55,56 31,0 56,-25 56,-56 0,-31 -25,-56 -56,-56zm-95 726l0 0c-35,0 -62,27 -62,62 0,34 27,62 62,62 34,0 61,-28 61,-62 0,-35 -27,-62 -61,-62zm-209 688l0 0c-35,0 -62,28 -62,62 0,34 27,62 62,62 34,0 62,-28 62,-62 0,-34 -28,-62 -62,-62zm-1025 1384l0 0c34,0 61,28 61,62 0,34 -27,62 -61,62 -35,0 -62,-28 -62,-62 0,-34 27,-62 62,-62zm-613 604l0 0c34,0 62,27 62,62 0,34 -28,62 -62,62 -34,0 -62,-28 -62,-62 0,-35 28,-62 62,-62z"/>
   <path class="fil0" d="M4512 5252c-154,-228 -368,-313 -586,-313 -298,0 -491,171 -777,206 -102,12 -185,0 -242,-49 -91,80 -183,161 -274,241 115,78 261,102 409,82 338,-45 587,-298 915,-317 279,-15 394,34 555,150zm-906 -1012c165,-32 304,-136 484,-62l-2 0c154,69 224,260 224,456 0,120 -26,227 -77,307 45,19 88,43 129,72 122,-110 194,-272 194,-454 0,-245 -131,-514 -461,-520 -192,-4 -334,141 -430,118 -52,-12 -51,-73 -40,-127 120,-467 475,-626 961,-854 185,-87 324,-231 330,-447 -34,145 -145,233 -277,298 -147,73 -274,120 -395,170 -165,61 -358,164 -534,336 -116,115 -343,396 -311,592 12,78 64,134 175,120 10,-1 20,-3 30,-5zm-281 143c0,20 -1,39 -1,57 0,211 57,404 176,538 6,-3 11,-5 17,-7 60,-23 118,-44 177,-60 -90,-141 -113,-332 -112,-496 -79,9 -158,5 -228,-20 -9,-3 -19,-7 -29,-12zm773 -343c10,0 20,0 0,0zm-351 -816c160,-145 447,-243 647,-332 157,-70 419,-197 479,-369 36,-100 -4,-189 -73,-245 61,115 27,205 -57,282 -139,128 -437,243 -615,342 -138,75 -266,166 -381,322zm-292 563c87,-165 214,-308 365,-426 239,-167 457,-234 750,-364 73,-32 141,-70 197,-120 94,-84 182,-234 152,-375 -40,326 -627,481 -878,604 -301,148 -504,369 -586,681zm2055 1106c-2,-32 -2,-70 -2,-114l0 -1121c0,-82 2,-191 4,-287 3,-59 2,-113 5,-171 1,-17 10,-46 -12,-53 -15,-4 -28,16 -39,28 -79,88 -210,213 -401,263 -17,3 -35,7 -54,10 -23,12 -20,52 3,64l0 0c1,0 2,1 2,1l139 11c28,3 50,8 68,16 63,30 69,103 69,255l0 981c0,44 0,81 -2,112 77,11 150,32 224,59 -2,-16 -3,-34 -4,-54zm-925 359c154,-228 368,-313 586,-313 298,0 491,171 777,206 102,12 185,0 242,-49 91,80 183,161 275,241 -116,78 -262,102 -410,82 -338,-45 -587,-298 -915,-317 -279,-15 -394,34 -555,150z"/>
   <path class="fil0" d="M2456 2541c0,59 48,107 107,107 59,0 107,-48 107,-107 0,-60 -48,-108 -107,-108 -59,0 -107,48 -107,108zm-96 3574c84,-66 81,-160 69,-227l-13 -71c-10,-53 -3,-109 32,-137 38,-30 92,-28 132,22 43,55 13,131 -16,174 -2,13 14,31 26,28 51,-40 86,-80 98,-99 -6,-10 -10,-18 -15,-30 -14,-38 -36,-71 -55,-96 -87,-110 -199,-131 -284,-63 -75,59 -73,155 -58,231 13,64 22,150 -39,198 -38,30 -97,35 -141,-21 -51,-65 -21,-171 16,-225 4,-12 -11,-29 -25,-27 -51,41 -98,94 -103,121 3,23 17,82 72,152 90,115 211,143 304,70zm675 -30c-159,-125 -362,-97 -481,53 -124,159 -92,346 60,466 164,128 353,116 483,-50 121,-154 96,-345 -62,-469zm-68 384c-96,123 -211,190 -311,111 -123,-97 -39,-271 34,-364 99,-127 218,-174 311,-101 94,74 68,224 -34,354zm330 -102c34,19 50,39 32,91 -16,50 -43,123 -68,183 -35,85 -64,164 -84,207 -24,55 -32,58 -81,51l-18 -3c-9,2 -17,25 -7,33 37,11 72,21 102,31 34,12 73,26 107,40 8,-3 17,-23 12,-32l-33 -17c-35,-18 -36,-33 -21,-78 19,-55 50,-146 71,-206 17,-47 32,-87 56,-145l2 1c11,136 46,401 44,526 4,5 13,11 22,13 7,3 14,2 20,0 113,-134 237,-262 354,-385l2 1 -35 104 -79 238c-18,56 -22,67 -66,58l-29 -6c-11,4 -17,25 -8,33 45,13 95,29 137,43 44,16 83,30 125,46 10,-1 17,-22 12,-32l-28 -13c-34,-17 -30,-40 -18,-82 34,-118 65,-217 129,-405 17,-48 39,-53 78,-47l28 4c11,-6 17,-24 8,-33 -33,-9 -75,-23 -106,-33 -27,-9 -48,-15 -89,-33 -47,72 -86,113 -162,192l-81 85c-43,45 -67,69 -86,87 -5,-28 -19,-96 -21,-117l-16 -149c-12,-100 -25,-167 -5,-223 -34,-9 -61,-18 -91,-28 -45,-15 -84,-29 -114,-42 -11,0 -19,22 -14,31l19 11zm1131 227c-202,-5 -348,139 -353,330 -5,202 132,333 326,337 208,6 352,-117 357,-327 5,-196 -130,-335 -330,-340zm175 348c-4,156 -56,279 -182,276 -158,-4 -194,-195 -191,-312 4,-161 70,-271 189,-268 120,3 189,139 184,304zm751 28c-19,-104 -104,-146 -168,-167l-69 -22c-52,-16 -98,-49 -106,-93 -8,-47 18,-94 81,-105 69,-12 122,50 147,95 10,8 33,3 36,-9 -11,-64 -30,-114 -41,-133 -12,0 -21,0 -34,-2 -40,-5 -80,-1 -111,4 -138,25 -208,114 -188,221 17,94 102,138 177,160 62,18 142,51 156,128 8,47 -15,101 -86,114 -80,14 -160,-62 -190,-120 -9,-9 -31,-4 -35,9 11,65 36,131 58,149 22,8 80,23 168,7 143,-26 225,-119 205,-236zm383 -223c52,91 106,142 170,153 67,11 129,-12 193,-48 68,-39 117,-95 131,-156 17,-77 -17,-153 -62,-232l-54 -94c-39,-67 -72,-133 -76,-160 -2,-22 11,-36 30,-53l13 -12c3,-11 -9,-27 -17,-29 -30,20 -61,38 -92,56 -34,20 -67,38 -113,62 -3,8 6,26 16,29l25 -9c25,-9 46,-14 64,-1 22,16 62,78 100,146l59 101c66,115 87,227 -20,289 -128,73 -200,-29 -257,-127l-111 -193c-44,-78 -43,-87 -9,-116l18 -15c4,-8 -7,-27 -17,-28 -39,25 -80,49 -121,72 -40,23 -82,47 -123,68 -6,11 5,29 15,30l23 -8c42,-14 50,-12 95,66l120 209zm415 -653c31,-23 56,-29 96,9 38,36 93,92 137,139 63,67 121,127 152,164 39,45 40,53 12,95l-10 14c-2,10 16,27 27,21 25,-29 50,-57 71,-79 26,-27 55,-56 81,-80 2,-9 -13,-26 -23,-25l-30 23c-31,24 -45,19 -80,-14 -42,-40 -111,-108 -156,-152 -35,-35 -65,-65 -108,-111l1 -1c128,47 383,126 496,182 7,-2 16,-8 22,-15 5,-5 7,-12 8,-18 -74,-159 -137,-326 -200,-484l2 -1 79 75 183 172c43,41 51,49 25,85l-18 23c-1,12 15,27 27,22 30,-35 66,-74 96,-106 33,-34 62,-63 94,-94 4,-10 -12,-25 -23,-25l-24 20c-29,24 -49,11 -82,-19 -92,-79 -169,-150 -313,-287 -37,-35 -32,-57 -9,-90l15 -24c-1,-12 -15,-25 -26,-21 -23,26 -53,59 -75,82 -20,21 -34,38 -68,67 46,73 66,126 106,228l43 109c23,58 34,90 42,115 -27,-7 -94,-24 -114,-31l-143 -48c-95,-32 -161,-48 -204,-89 -22,27 -42,47 -63,70 -33,34 -62,64 -86,86 -5,10 11,26 22,26l18 -13zm-2851 -264c30,-40 18,-83 5,-112l-14 -31c-11,-24 -14,-50 -1,-67 14,-18 39,-24 63,-5 26,20 21,58 13,82 0,6 9,12 15,9 18,-24 30,-46 33,-56 -4,-4 -6,-8 -10,-13 -11,-15 -25,-28 -37,-37 -52,-41 -106,-37 -137,4 -28,36 -16,79 0,112 13,28 27,67 5,96 -14,18 -41,27 -67,6 -31,-24 -30,-75 -19,-105 1,-6 -8,-12 -14,-9 -19,24 -35,54 -34,67 4,11 18,36 51,62 54,42 113,41 148,-3zm167 89c13,8 16,10 15,18l-9 40c-4,17 -7,28 -8,31 -2,2 -5,4 -15,1l-14 -6c-6,1 -10,10 -7,15 19,9 34,18 54,29 20,12 42,25 60,37 5,-1 10,-11 9,-14l-14 -11c-13,-11 -12,-22 -6,-51l36 -186c6,-33 10,-51 13,-64 2,-7 1,-10 -4,-13 -1,-1 -27,10 -48,4 -6,12 -21,22 -44,41l-92 76c-27,22 -45,37 -61,49 -16,11 -26,10 -36,6l-11 -5c-5,1 -10,9 -7,14 18,11 28,15 41,23 17,10 31,18 44,27 5,0 10,-10 9,-14l-11 -9c-10,-8 -13,-13 -12,-16 2,-3 4,-6 11,-12l42 -37c7,-6 8,-6 18,-1l47 28zm-27 -44c-10,-6 -12,-8 -2,-17l27 -24c17,-14 37,-31 45,-38 -1,10 -6,35 -10,56l-9 38c-2,12 -5,12 -14,7l-37 -22zm333 51c17,-39 21,-41 42,-36l11 3c5,-1 9,-10 7,-14 -22,-9 -43,-18 -63,-27 -20,-9 -40,-18 -62,-29 -6,0 -10,10 -7,14l11 7c18,11 19,16 2,55l-70 155c-17,39 -21,41 -41,35l-17 -5c-4,1 -8,11 -5,15 26,11 47,20 66,28l56 25c34,16 74,34 96,45 11,-9 36,-39 48,-60 -1,-6 -9,-12 -15,-9 -46,37 -58,33 -96,16 -30,-14 -36,-20 -39,-30 -2,-9 2,-23 11,-43l65 -145zm164 238c-12,41 -15,44 -36,41l-20 -3c-4,1 -7,11 -4,15 31,8 54,14 75,20 19,5 41,12 70,21 4,-2 6,-12 4,-16l-17 -7c-19,-8 -21,-12 -9,-53l54 -194c3,-12 5,-13 15,-10l27 8c33,9 33,31 33,62 1,4 13,6 16,3 6,-26 19,-60 28,-74 0,-2 -3,-4 -6,-5 -2,-1 -4,-1 -6,0 -6,8 -13,7 -42,-2l-164 -45c-33,-10 -34,-12 -34,-20 -1,-2 -4,-3 -6,-3 -2,-1 -4,-1 -6,0 -8,17 -18,43 -36,71 1,6 9,10 15,8 22,-28 37,-43 69,-34l27 8c11,3 10,5 7,15l-54 194zm335 28c-4,4 -8,9 -9,18 -1,8 1,14 5,19l110 3c4,-5 7,-11 8,-17 1,-8 -1,-15 -4,-20l-110 -3zm374 -139c-1,-18 -1,-19 14,-19l36 -1c23,-1 37,4 45,13 5,6 9,17 14,36 6,3 16,2 18,-3 -2,-30 -3,-63 -4,-71 -6,1 -32,2 -61,3l-96 4c-22,0 -45,1 -64,0 -5,2 -5,14 -1,16l9 1c21,3 24,7 25,49l6 170c1,42 -2,46 -22,50l-15 2c-3,3 -3,14 1,16 27,-1 50,-2 71,-3 22,-1 44,-1 72,-1 3,-3 3,-14 0,-16l-17 -2c-21,-2 -24,-6 -25,-48l-2 -62c0,-12 0,-13 12,-14l35 -1c25,-1 30,3 35,24l3 11c3,4 14,4 17,-1 -1,-13 -2,-30 -3,-47 0,-17 -1,-34 0,-49 -3,-4 -15,-4 -18,0l-2 11c-3,23 -8,26 -32,27l-36 1c-12,0 -12,-1 -13,-13l-2 -83zm288 124c16,-3 20,-2 23,4l20 37c8,15 13,25 14,28 0,3 -1,7 -11,10l-14 5c-4,5 -2,14 4,16 20,-5 38,-8 60,-13 24,-4 48,-8 70,-11 3,-4 0,-14 -3,-16l-17 0c-18,1 -23,-9 -38,-34l-94 -165c-17,-29 -25,-45 -31,-57 -3,-7 -7,-8 -12,-7 -1,0 -14,25 -34,34 3,13 -1,30 -6,60l-21 117c-6,35 -11,58 -15,77 -4,19 -12,24 -23,28l-12 3c-2,4 -1,14 4,16 21,-4 31,-7 46,-10 19,-3 35,-6 51,-8 4,-3 2,-14 -2,-16l-14 0c-13,0 -19,-1 -19,-4 -1,-4 -1,-7 0,-17l8 -55c1,-9 2,-10 13,-12l53 -10zm-49 -15c-11,2 -13,1 -12,-12l5 -36c3,-22 8,-48 9,-59 6,9 19,32 29,50l18 34c6,11 4,13 -7,15l-42 8zm268 6c15,39 14,44 -4,54l-12 7c-3,4 1,14 5,15 24,-10 46,-19 66,-27 16,-6 38,-11 58,-19 44,-17 77,-36 100,-61 40,-44 49,-100 27,-157 -20,-54 -70,-92 -134,-91 -33,1 -70,11 -104,25 -46,17 -78,32 -113,48 -5,2 0,14 5,15l8 -3c21,-5 25,3 40,43l58 151zm-5 -195c-5,-13 -8,-21 -6,-26 1,-4 8,-9 20,-14 77,-29 135,1 164,77 23,58 23,134 -51,162 -15,6 -29,7 -40,1 -11,-6 -18,-21 -27,-44l-60 -156zm368 47c20,36 20,40 4,54l-10 9c-3,3 3,13 8,14 22,-14 41,-26 60,-37 12,-7 28,-14 42,-22 24,-14 53,-33 73,-56 19,-23 29,-57 7,-93 -23,-38 -61,-43 -96,-32 -4,2 -7,2 -8,0 -1,-2 2,-6 6,-9 10,-10 31,-39 11,-72 -13,-24 -33,-34 -56,-35 -24,0 -51,11 -89,33 -40,23 -67,41 -96,61 -6,4 2,15 6,15l12 -5c18,-7 21,-4 44,36l82 139zm-43 -197c-10,-18 -12,-21 7,-32 27,-16 58,-11 78,23 14,24 14,53 -20,72 -20,12 -21,12 -27,2l-38 -65zm64 109c-9,-16 -9,-16 12,-29 38,-22 72,-9 92,25 19,32 16,64 -13,81 -31,18 -46,1 -64,-30l-27 -47zm303 -169c13,-10 16,-12 22,-7l34 23c15,10 24,16 26,19 2,2 3,6 -5,14l-10 10c-1,6 5,13 11,12 16,-13 30,-25 48,-39 18,-14 38,-29 56,-42 1,-5 -6,-13 -10,-13l-15 8c-15,9 -25,3 -49,-12l-160 -103c-29,-18 -44,-28 -55,-36 -5,-4 -9,-4 -14,-1 0,1 0,29 -14,46 9,10 13,27 23,56l36 114c11,33 17,56 23,75 5,19 0,27 -8,35l-9 9c0,4 5,12 11,11 17,-13 24,-20 36,-30 16,-11 28,-21 42,-31 2,-4 -6,-12 -10,-13l-12 7c-11,6 -18,7 -19,5 -3,-3 -5,-6 -8,-15l-19 -52c-3,-9 -2,-10 6,-17l43 -33zm-50 9c-9,7 -12,7 -16,-5l-13 -34c-7,-21 -15,-46 -19,-56 9,5 31,19 48,30l32 22c11,7 10,10 1,16l-33 27zm-3687 -545c11,86 42,149 112,147 76,-2 80,-102 9,-109 -16,-2 -33,2 -41,14 0,0 -16,-205 25,-308 41,-103 128,-207 245,-212 0,0 0,46 39,77 40,31 87,2 94,-31 2,-9 3,-23 2,-38 2,6 4,12 6,18 7,22 30,33 51,26 21,-8 32,-31 25,-52 -35,-102 -62,-208 -80,-317 -18,-107 -27,-216 -27,-328 0,-548 222,-1044 581,-1403 359,-359 856,-582 1404,-582 548,0 1044,223 1403,582 359,359 581,855 581,1403 0,112 -9,221 -27,328 -18,109 -45,215 -80,317 -7,21 4,44 25,52 21,7 44,-4 51,-26 2,-4 3,-8 5,-13 -1,13 0,25 2,33 7,33 54,62 94,31 39,-31 39,-77 39,-77 117,5 204,109 245,212 41,103 25,308 25,308 -8,-12 -25,-16 -41,-14 -71,7 -67,107 9,109 70,2 101,-61 111,-147 3,-28 4,-55 4,-82 11,25 28,50 53,74 74,74 200,100 304,6 -16,144 48,231 89,253 42,22 121,-9 102,-65 -19,-56 -65,-55 -65,-55 -35,-105 31,-270 31,-270 101,-306 155,-633 155,-973 0,-1722 -1395,-3117 -3117,-3117 -1721,0 -3117,1395 -3117,3117 0,337 53,661 152,965l0 0 0 0 0 0c4,12 8,24 12,36l1 0c17,54 43,159 18,234 0,0 -45,-1 -65,55 -19,56 61,86 102,64 41,-22 105,-108 89,-252 104,93 230,68 305,-6 29,-28 47,-58 57,-87 -1,34 1,68 3,103zm62 -927c1,9 -3,13 -7,13 -5,1 -15,-5 -46,-32l-33 -31c-83,-76 -123,-94 -176,-90 -65,5 -113,58 -107,138 5,66 48,126 119,149 11,-2 14,-16 8,-24 -40,-19 -67,-44 -70,-83 -3,-46 31,-77 78,-81 73,-5 134,33 189,76 48,37 87,74 113,98 7,1 14,-2 15,-8 -2,-12 -5,-41 -8,-77l-8 -108c-4,-44 -5,-68 -6,-96 -17,-10 -65,-22 -108,-25 -9,3 -7,19 -2,23 37,17 39,25 43,75l6 83zm4363 -1867c59,0 107,48 107,107 0,59 -48,107 -107,107 -59,0 -107,-48 -107,-107 0,-59 48,-107 107,-107zm-3388 -209c49,69 50,79 19,106l-31 27c-3,9 10,26 19,27 51,-39 89,-67 125,-92 33,-24 70,-50 120,-83 2,-8 -10,-25 -19,-26l-32 18c-37,19 -45,16 -94,-53l-233 -327c-14,-19 -13,-23 5,-36l44 -31c56,-40 91,-13 137,26 8,3 27,-12 26,-22 -31,-41 -69,-105 -79,-135 -3,-1 -11,-1 -15,2 -5,4 -6,6 -8,9 4,21 -6,29 -55,64l-277 197c-56,40 -60,38 -73,28 -5,0 -9,2 -12,5 -4,3 -7,7 -8,11 15,33 44,81 65,144 11,6 26,-2 32,-13 -16,-70 -22,-111 33,-150l46 -32c17,-13 20,-9 33,9l232 327zm386 -364c31,94 72,151 129,173 60,22 122,13 187,-9 70,-24 126,-67 150,-120 30,-69 13,-146 -15,-227l-32 -96c-24,-70 -43,-137 -41,-163 2,-20 16,-31 37,-44l14 -8c5,-10 -3,-27 -10,-30 -32,13 -64,24 -95,35 -36,12 -70,23 -117,37 -3,7 1,25 10,29l25 -3c25,-4 45,-5 59,10 17,20 43,84 67,154l35 104c40,118 39,226 -72,264 -131,44 -179,-63 -214,-164l-67 -199c-27,-81 -24,-89 12,-109l20 -11c5,-7 -2,-26 -10,-29 -41,15 -83,30 -125,45 -42,14 -85,28 -127,40 -8,8 -1,27 8,30l23 -3c42,-5 48,-2 76,78l73 216zm727 -87c3,84 -3,90 -44,99l-24 5c-7,5 -7,27 1,32 47,-3 87,-5 133,-6 43,-1 85,-1 134,-1 6,-5 5,-27 -1,-32l-25 -4c-41,-6 -47,-12 -49,-96l-3 -112c0,-18 2,-20 34,-21 22,0 37,7 49,31 22,48 44,92 74,139 42,65 95,94 179,92 28,-1 58,-4 72,-10 4,-6 4,-20 -4,-24 -14,-1 -38,-5 -62,-24 -45,-36 -84,-104 -147,-224 -5,-10 -5,-15 4,-20 42,-22 95,-58 93,-139 -1,-58 -30,-103 -83,-133 -35,-20 -102,-30 -180,-28 -86,2 -157,7 -225,14 -11,5 -10,27 -1,32l24 3c39,4 41,14 43,105l8 322zm115 -387c-1,-44 1,-46 38,-47 71,-2 121,49 123,131 1,54 -15,84 -30,100 -17,17 -36,26 -69,27 -53,1 -56,-1 -57,-33l-5 -178zm601 -44c33,16 49,35 35,85 -14,47 -36,118 -56,175 -29,82 -53,157 -70,199 -20,53 -27,57 -74,52l-16 -2c-10,2 -16,25 -6,32 36,8 69,16 97,24 34,10 71,21 103,32 8,-2 16,-22 11,-30l-33 -15c-34,-15 -35,-29 -23,-72 15,-53 41,-140 58,-197 14,-45 25,-84 45,-140l2 1c17,128 63,375 66,494 4,5 13,9 21,11 7,2 14,2 20,-1 99,-131 211,-258 316,-379l1 0 -28 100 -63 228c-15,54 -18,64 -60,58l-27 -4c-11,4 -15,24 -6,31 42,11 91,23 130,35 43,12 81,23 120,37 10,-1 16,-22 11,-31l-27 -11c-33,-14 -31,-36 -21,-77 26,-112 51,-207 102,-387 14,-47 34,-52 72,-48l26 3c10,-7 15,-24 7,-32 -32,-7 -73,-18 -102,-26 -26,-8 -47,-12 -86,-27 -41,70 -76,110 -143,188l-72 84c-39,45 -61,68 -78,86 -6,-25 -22,-90 -25,-109l-22 -140c-16,-93 -31,-156 -16,-210 -32,-6 -57,-14 -86,-22 -43,-12 -81,-24 -110,-34 -10,0 -16,21 -11,30l18 9zm950 782c26,18 30,24 26,38l-26 78c-10,34 -18,55 -21,61 -3,4 -10,7 -29,-2l-27 -13c-12,0 -22,17 -17,27 36,23 65,43 102,69 39,28 78,57 113,84 10,0 21,-19 19,-26l-25 -25c-24,-24 -19,-45 -3,-101l106 -362c19,-66 30,-100 39,-126 5,-13 3,-20 -6,-27 -2,-1 -55,16 -97,-1 -13,23 -44,40 -94,74l-197 134c-58,39 -97,64 -131,85 -33,20 -52,15 -71,5l-22 -12c-9,2 -21,17 -16,27 34,25 52,35 78,53 30,23 57,41 82,61 10,2 21,-16 20,-25l-19 -19c-19,-19 -25,-30 -22,-34 4,-6 9,-12 24,-24l90 -65c15,-11 17,-10 35,3l89 63zm-46 -92c-18,-13 -21,-18 0,-33l59 -43c35,-26 78,-56 96,-68 -4,20 -19,69 -31,109l-24 74c-8,23 -13,23 -30,11l-70 -50zm884 1080c-4,-9 -2,-14 2,-16 5,-2 16,0 54,15l42 17c105,43 149,46 197,24 59,-27 85,-94 52,-167 -28,-60 -89,-102 -163,-98 -10,6 -8,19 1,24 43,5 77,19 94,54 19,42 -2,83 -45,103 -67,31 -137,16 -204,-5 -58,-18 -107,-39 -140,-52 -6,1 -12,6 -11,12 6,10 19,37 34,69l46 99c18,40 28,62 38,88 20,4 69,-2 110,-14 7,-6 1,-20 -6,-23 -41,-3 -45,-10 -66,-55l-35 -75zm488 272c-29,-107 -155,-121 -258,-93 -106,30 -203,105 -173,212 29,107 151,123 258,93 102,-28 203,-105 173,-212zm-231 4c59,-17 187,-46 201,4 14,50 -111,91 -170,108 -59,16 -187,45 -201,-5 -14,-50 111,-91 170,-107zm230 467c34,-4 65,-8 81,-8 5,-2 6,-7 6,-11 -1,-4 -17,-29 -29,-58 -11,-26 -23,-57 -30,-84 -5,-5 -21,-2 -24,4l0 32c0,30 -10,34 -55,40l-219 27c-55,7 -62,4 -69,-29l-5 -28c-5,-6 -23,-3 -24,4 4,25 10,65 15,110 6,42 10,83 12,108 3,6 21,5 24,-2l-2 -28c-1,-34 5,-38 60,-45l259 -32zm99 354c2,-85 -58,-153 -146,-155 -69,-2 -123,49 -125,113 0,28 8,57 20,68 5,1 12,0 14,-3 1,-6 1,-11 2,-19 10,-47 69,-68 125,-67 41,1 80,21 79,53 -1,57 -101,70 -153,69 -126,-3 -239,-75 -269,-209 -5,-7 -19,-6 -23,2 1,57 39,150 91,208 52,59 123,97 206,99 95,2 177,-54 179,-159zm-5541 -332c-9,110 105,167 211,175 110,9 227,-28 236,-139 9,-111 -101,-167 -210,-176 -106,-9 -228,29 -237,140zm219 76c-61,-5 -191,-22 -187,-74 4,-52 136,-47 196,-42 61,5 192,21 188,73 -5,52 -136,48 -197,43zm-53 -516c-33,-8 -64,-15 -79,-20 -5,0 -8,4 -9,7 -1,5 6,33 8,65 1,28 1,61 -1,89 3,7 19,10 23,4l11 -29c11,-29 22,-29 66,-19l215 49c54,12 60,18 55,51l-4 28c2,7 20,10 23,4 5,-25 13,-65 23,-109 10,-41 19,-81 26,-105 0,-7 -18,-12 -23,-7l-8 27c-10,32 -18,35 -71,23l-255 -58zm220 -140c98,44 192,21 234,-74 39,-87 9,-169 -73,-205 -60,-28 -134,-19 -169,59 -10,22 -9,57 -1,75 4,2 9,3 14,0 2,-6 3,-10 5,-14 25,-54 109,-37 151,-18 30,13 66,42 49,79 -21,47 -109,34 -175,4 -58,-26 -112,-67 -138,-119 -27,-54 -38,-99 -22,-183 -5,-10 -16,-14 -23,-8 -30,76 -29,168 -4,237 26,71 81,135 152,167zm387 1431l0 -1c-33,-56 -115,-72 -192,-49 -86,26 -150,82 -188,130 -47,62 -75,141 -87,226 -22,-120 -165,-205 -257,-130 -62,49 -38,136 16,139 54,3 68,-42 57,-76 188,20 47,296 -136,194 -131,-73 -161,-220 -193,-354 -52,-222 -79,-454 -79,-692 0,-1674 1356,-3030 3030,-3030 1674,0 3030,1356 3030,3030 0,131 -8,261 -24,387 -15,115 -36,228 -63,339 -33,133 -90,332 -253,350 -147,16 -235,-199 -71,-216 -11,34 3,79 57,76 54,-3 78,-90 16,-139 -88,-71 -222,3 -253,114 -13,-82 -40,-158 -86,-218 -38,-48 -102,-104 -188,-130 -75,-22 -156,-8 -189,46 26,-87 48,-177 63,-269 18,-111 28,-225 28,-341 0,-570 -231,-1087 -605,-1461 -374,-373 -890,-605 -1460,-605 -571,0 -1087,232 -1461,605 -374,374 -605,891 -605,1461 0,116 10,230 28,341 16,93 37,184 65,273z"/>
  </g>
 </g>
</svg>
