<?xml version="1.0" encoding="UTF-8"?>
<!DOCTYPE svg PUBLIC "-//W3C//DTD SVG 1.1//EN" "http://www.w3.org/Graphics/SVG/1.1/DTD/svg11.dtd">
<!-- Creator: CorelDRAW X7 -->
<svg xmlns="http://www.w3.org/2000/svg" xml:space="preserve" width="475.792mm" height="221.506mm" version="1.1" style="shape-rendering:geometricPrecision; text-rendering:geometricPrecision; image-rendering:optimizeQuality; fill-rule:evenodd; clip-rule:evenodd"
viewBox="0 0 47590 22155"
 xmlns:xlink="http://www.w3.org/1999/xlink">
 <defs>
  <style type="text/css">
   <![CDATA[
    .str0 {stroke:white;stroke-width:50.011}
    .fil2 {fill:none}
    .fil3 {fill:#8B0304}
    .fil1 {fill:#8B0304;fill-rule:nonzero}
    .fil0 {fill:white;fill-rule:nonzero}
   ]]>
  </style>
   <clipPath id="id0">
    <rect width="47590" height="22155"/>
   </clipPath>
 </defs>
 <g id="Camada_x0020_1">
  <metadata id="CorelCorpID_0Corel-Layer"/>
  <g style="clip-path:url(#id0)">
   <image x="0" y="0" width="47590" height="22155" xlink:href="comissão de formatura_Images\comissão de formatura_ImgID1.png"/>
  </g>
  <g id="_2089668394768">
   <g>
    <path class="fil0" d="M5019 20199c230,0 436,-78 575,-231l-105 -105c-128,132 -284,188 -464,188 -378,0 -662,-278 -662,-649 0,-372 284,-649 662,-649 180,0 336,55 464,185l105 -105c-139,-152 -345,-228 -573,-228 -472,0 -822,338 -822,797 0,459 350,797 820,797zm1997 0c470,0 822,-338 822,-797 0,-459 -352,-797 -822,-797 -475,0 -824,340 -824,797 0,457 349,797 824,797zm0 -148c-379,0 -661,-275 -661,-649 0,-374 282,-649 661,-649 376,0 656,275 656,649 0,374 -280,649 -656,649zm3101 -1433l-674 1162 -681 -1162 -136 0 0 1567 159 0 0 -1247 615 1048 79 0 615 -1054 0 1253 159 0 0 -1567 -136 0zm1063 1567l166 0 0 -1567 -166 0 0 1567zm1525 14c401,0 584,-197 584,-428 0,-571 -965,-311 -965,-741 0,-157 128,-284 415,-284 138,0 295,42 429,130l56 -132c-125,-88 -309,-139 -485,-139 -399,0 -578,199 -578,430 0,580 965,315 965,745 0,155 -128,278 -421,278 -206,0 -405,-81 -517,-190l-65 127c116,121 347,204 582,204zm1793 0c401,0 585,-197 585,-428 0,-571 -965,-311 -965,-741 0,-157 127,-284 414,-284 139,0 295,42 430,130l56 -132c-126,-88 -309,-139 -486,-139 -399,0 -578,199 -578,430 0,580 965,315 965,745 0,155 -127,278 -421,278 -206,0 -405,-81 -517,-190l-65 127c117,121 347,204 582,204zm1769 -1874c90,0 155,152 293,152 119,0 197,-96 202,-242l-96 0c-5,85 -50,139 -117,139 -87,0 -154,-152 -293,-152 -119,0 -197,96 -202,246l97 0c4,-89 49,-143 116,-143zm764 1860l174 0 -716 -1567 -164 0 -716 1567 172 0 188 -418 874 0 188 418zm-1001 -553l376 -841 376 841 -752 0zm2514 567c470,0 822,-338 822,-797 0,-459 -352,-797 -822,-797 -475,0 -824,340 -824,797 0,457 349,797 824,797zm0 -148c-378,0 -660,-275 -660,-649 0,-374 282,-649 660,-649 376,0 656,275 656,649 0,374 -280,649 -656,649zm8038 -1290l0 -143 -1075 0 0 1567 166 0 0 -665 810 0 0 -143 -810 0 0 -616 909 0zm1424 1438c470,0 822,-338 822,-797 0,-459 -352,-797 -822,-797 -475,0 -824,340 -824,797 0,457 349,797 824,797zm0 -148c-379,0 -661,-275 -661,-649 0,-374 282,-649 661,-649 376,0 656,275 656,649 0,374 -280,649 -656,649zm2861 134l-383 -537c229,-74 359,-246 359,-492 0,-336 -242,-538 -641,-538l-586 0 0 1567 165 0 0 -497 421 0c45,0 85,-2 126,-6l358 503 181 0zm-669 -638l-417 0 0 -786 417 0c313,0 479,144 479,395 0,246 -166,391 -479,391zm2944 -929l-674 1162 -681 -1162 -136 0 0 1567 159 0 0 -1247 616 1048 78 0 616 -1054 0 1253 159 0 0 -1567 -137 0zm2234 1567l175 0 -716 -1567 -164 0 -716 1567 172 0 188 -418 873 0 188 418zm-1000 -553l376 -841 376 841 -752 0zm2077 553l166 0 0 -1424 551 0 0 -143 -1267 0 0 143 550 0 0 1424zm1997 14c401,0 643,-233 643,-683l0 -898 -161 0 0 891c0,372 -175,542 -482,542 -304,0 -479,-170 -479,-542l0 -891 -165 0 0 898c0,450 244,683 644,683zm2810 -14l-383 -537c229,-74 359,-246 359,-492 0,-336 -242,-538 -641,-538l-586 0 0 1567 165 0 0 -497 421 0c45,0 85,-2 126,-6l358 503 181 0zm-669 -638l-417 0 0 -786 417 0c313,0 479,144 479,395 0,246 -166,391 -479,391zm2624 638l175 0 -717 -1567 -163 0 -717 1567 173 0 188 -418 873 0 188 418zm-1001 -553l376 -841 376 841 -752 0z"/>
    <path class="fil1" d="M20740 20185l639 0c501,0 839,-322 839,-783 0,-461 -338,-784 -839,-784l-639 0 0 1567zm166 -143l0 -1281 464 0c416,0 685,265 685,641 0,376 -269,640 -685,640l-464 0zm2266 0l0 -582 810 0 0 -141 -810 0 0 -558 909 0 0 -143 -1075 0 0 1567 1109 0 0 -143 -943 0z"/>
   </g>
   <path class="fil0" d="M26435 14834l0 -39 -294 0 0 428 46 0 0 -182 221 0 0 -39 -221 0 0 -168 248 0zm325 -150l-58 0 -84 76 43 0 99 -76zm68 539l48 0 -196 -428 -45 0 -195 428 47 0 51 -114 239 0 51 114zm-273 -151l102 -230 103 230 -205 0zm661 -70c39,-16 66,-48 66,-97 0,-70 -55,-110 -151,-110l-184 0 0 428 196 0c107,0 161,-42 161,-114 0,-58 -33,-95 -88,-107zm-88 -170c69,0 108,27 108,78 0,51 -39,78 -108,78l-136 0 0 -156 136 0zm15 354l-151 0 0 -161 151 0c75,0 116,24 116,80 0,56 -41,81 -116,81zm265 37l45 0 0 -428 -45 0 0 428zm371 4c129,0 225,-93 225,-218 0,-125 -96,-218 -225,-218 -129,0 -225,93 -225,218 0,125 96,218 225,218zm0 -41c-103,0 -180,-75 -180,-177 0,-102 77,-177 180,-177 103,0 179,75 179,177 0,102 -76,177 -179,177zm-1849 887c122,0 181,-61 181,-132 0,-157 -248,-103 -248,-182 0,-27 22,-49 81,-49 38,0 79,11 119,34l30 -75c-40,-25 -95,-38 -148,-38 -122,0 -181,60 -181,133 0,159 249,104 249,184 0,26 -24,46 -83,46 -51,0 -105,-18 -141,-45l-33 75c37,29 106,49 174,49zm569 -7l104 0 -191 -428 -98 0 -191 428 102 0 37 -92 199 0 38 92zm-205 -167l68 -164 68 164 -136 0zm648 -261l0 260 -212 -260 -82 0 0 428 97 0 0 -260 214 260 81 0 0 -428 -98 0zm288 428l99 0 0 -347 137 0 0 -81 -373 0 0 81 137 0 0 347zm491 7c134,0 234,-93 234,-221 0,-128 -100,-221 -234,-221 -136,0 -235,94 -235,221 0,127 99,221 235,221zm0 -84c-77,0 -134,-56 -134,-137 0,-81 57,-137 134,-137 76,0 133,56 133,137 0,81 -57,137 -133,137zm449 84c122,0 182,-61 182,-132 0,-157 -249,-103 -249,-182 0,-27 22,-49 81,-49 38,0 79,11 119,34l30 -75c-40,-25 -95,-38 -148,-38 -122,0 -181,60 -181,133 0,159 249,104 249,184 0,26 -24,46 -82,46 -52,0 -106,-18 -142,-45l-33 75c38,29 106,49 174,49z"/>
   <line class="fil2 str0" x1="4222" y1="16863" x2="43367" y2= "16863" />
   <path class="fil0" d="M6467 15199c63,0 119,-21 157,-63l-29 -29c-34,37 -77,52 -126,52 -103,0 -181,-76 -181,-177 0,-102 78,-178 181,-178 49,0 92,16 126,51l29 -29c-38,-41 -94,-62 -156,-62 -129,0 -225,92 -225,218 0,125 96,217 224,217zm563 -3l47 0 -195 -428 -45 0 -196 428 47 0 52 -115 238 0 52 115zm-274 -151l103 -230 103 230 -206 0zm734 151l-105 -147c63,-20 98,-67 98,-135 0,-91 -66,-146 -175,-146l-160 0 0 428 45 0 0 -136 115 0c13,0 24,-1 35,-2l97 138 50 0zm-183 -175l-114 0 0 -214 114 0c86,0 131,39 131,107 0,68 -45,107 -131,107zm283 175l285 0 0 -40 -240 0 0 -388 -45 0 0 428zm539 3c128,0 224,-92 224,-217 0,-126 -96,-218 -224,-218 -130,0 -225,93 -225,218 0,124 95,217 225,217zm0 -40c-103,0 -180,-75 -180,-177 0,-103 77,-178 180,-178 103,0 179,75 179,178 0,102 -76,177 -179,177zm444 40c109,0 159,-54 159,-117 0,-156 -263,-85 -263,-202 0,-43 35,-78 113,-78 38,0 81,12 117,36l16 -36c-35,-24 -85,-38 -133,-38 -109,0 -158,54 -158,117 0,159 264,86 264,204 0,42 -35,76 -115,76 -57,0 -111,-22 -142,-52l-17 35c32,33 95,55 159,55zm-2193 847c101,0 154,-52 154,-158l0 -277 -249 0 0 79 150 0 0 204c0,47 -20,71 -60,71 -31,0 -56,-16 -80,-47l-55 66c31,40 82,62 140,62zm387 -470l74 0 111 -88 -103 0 -82 88zm55 470c121,0 194,-70 194,-196l0 -239 -98 0 0 236c0,81 -35,115 -96,115 -60,0 -95,-34 -95,-115l0 -236 -99 0 0 239c0,126 72,196 194,196zm586 -435l0 260 -213 -260 -82 0 0 428 98 0 0 -260 214 260 81 0 0 -428 -98 0zm199 428l99 0 0 -428 -99 0 0 428zm408 7c135,0 234,-94 234,-221 0,-128 -99,-222 -234,-222 -135,0 -234,94 -234,222 0,127 99,221 234,221zm0 -84c-76,0 -134,-56 -134,-137 0,-82 58,-137 134,-137 77,0 134,55 134,137 0,81 -57,137 -134,137zm688 77l-96 -138c56,-24 88,-71 88,-135 0,-96 -72,-155 -186,-155l-185 0 0 428 99 0 0 -120 86 0 5 0 83 120 106 0zm-108 -273c0,46 -31,75 -91,75l-81 0 0 -150 81 0c60,0 91,28 91,75z"/>
   <path class="fil0" d="M12858 15196l174 0c137,0 229,-89 229,-214 0,-126 -92,-214 -229,-214l-174 0 0 428zm45 -40l0 -349 127 0c113,0 187,72 187,175 0,102 -74,174 -187,174l-127 0zm773 40l48 0 -196 -428 -44 0 -196 428 47 0 52 -115 238 0 51 115zm-273 -151l103 -230 103 230 -206 0zm705 -277l0 347 -276 -347 -37 0 0 428 45 0 0 -348 275 348 38 0 0 -428 -45 0zm184 428l45 0 0 -428 -45 0 0 428zm230 -40l0 -159 221 0 0 -38 -221 0 0 -152 248 0 0 -39 -293 0 0 428 302 0 0 -40 -257 0zm364 40l285 0 0 -40 -240 0 0 -388 -45 0 0 428zm-1628 415l-132 305 -130 -305 -107 0 184 428 98 0 185 -428 -98 0zm134 428l99 0 0 -428 -99 0 0 428zm299 -80l0 -99 199 0 0 -77 -199 0 0 -93 225 0 0 -79 -324 0 0 428 332 0 0 -80 -233 0zm312 80l99 0 0 -428 -99 0 0 428zm579 0l-96 -138c56,-24 88,-71 88,-135 0,-96 -71,-155 -186,-155l-185 0 0 428 99 0 0 -120 86 0 5 0 83 120 106 0zm-108 -273c0,46 -31,75 -91,75l-81 0 0 -150 81 0c60,0 91,28 91,75zm498 273l104 0 -191 -428 -98 0 -191 428 102 0 38 -92 198 0 38 92zm-205 -167l68 -164 68 164 -136 0z"/>
   <path class="fil0" d="M19586 15196l174 0c137,0 229,-89 229,-214 0,-126 -92,-214 -229,-214l-174 0 0 428zm45 -40l0 -349 126 0c114,0 188,72 188,175 0,102 -74,174 -188,174l-126 0zm460 40l45 0 0 -428 -45 0 0 428zm230 -40l0 -159 221 0 0 -38 -221 0 0 -152 248 0 0 -39 -294 0 0 428 303 0 0 -40 -257 0zm662 -30c-33,24 -71,33 -112,33 -105,0 -182,-76 -182,-177 0,-103 77,-178 183,-178 50,0 93,15 129,50l28 -28c-38,-41 -94,-62 -159,-62 -131,0 -226,92 -226,218 0,125 95,217 226,217 59,0 116,-18 157,-54l0 -163 -44 0 0 144zm359 73c128,0 224,-92 224,-217 0,-126 -96,-218 -224,-218 -130,0 -225,93 -225,218 0,124 95,217 225,217zm0 -40c-104,0 -181,-75 -181,-177 0,-103 77,-178 181,-178 102,0 179,75 179,178 0,102 -77,177 -179,177zm-2215 452l-132 305 -130 -305 -107 0 184 428 98 0 185 -428 -98 0zm232 348l0 -99 199 0 0 -77 -199 0 0 -93 225 0 0 -79 -323 0 0 428 331 0 0 -80 -233 0zm691 80l-96 -138c56,-24 88,-71 88,-135 0,-96 -71,-155 -186,-155l-185 0 0 428 99 0 0 -120 86 0 5 0 83 120 106 0zm-108 -273c0,46 -31,75 -91,75l-81 0 0 -150 81 0c60,0 91,28 91,75zm172 -190l75 0 110 -88 -102 0 -83 88zm6 463l99 0 0 -428 -99 0 0 428zm341 7c123,0 182,-61 182,-133 0,-157 -249,-102 -249,-181 0,-27 23,-49 82,-49 37,0 78,11 118,33l31 -75c-40,-25 -95,-38 -149,-38 -121,0 -180,61 -180,134 0,159 249,104 249,184 0,26 -24,46 -83,46 -51,0 -105,-19 -141,-45l-34 74c38,30 107,50 174,50zm391 0c122,0 181,-61 181,-133 0,-157 -249,-102 -249,-181 0,-27 23,-49 82,-49 38,0 79,11 118,33l31 -75c-40,-25 -95,-38 -149,-38 -121,0 -180,61 -180,134 0,159 249,104 249,184 0,26 -24,46 -83,46 -51,0 -105,-19 -141,-45l-34 74c38,30 107,50 175,50zm249 -7l99 0 0 -428 -99 0 0 428zm683 0l-1 -428 -82 0 -157 266 -161 -266 -81 0 0 428 93 0 0 -252 125 206 44 0 126 -211 1 257 93 0zm309 7c134,0 234,-94 234,-221 0,-128 -100,-222 -234,-222 -135,0 -234,94 -234,222 0,127 99,221 234,221zm0 -84c-77,0 -134,-56 -134,-137 0,-82 57,-137 134,-137 76,0 134,55 134,137 0,81 -58,137 -134,137z"/>
   <path class="fil0" d="M32467 14768l-184 317 -186 -317 -37 0 0 428 44 0 0 -341 168 286 21 0 168 -288 0 343 44 0 0 -428 -38 0zm497 428l47 0 -195 -428 -45 0 -195 428 47 0 51 -115 238 0 52 115zm-274 -151l103 -230 103 230 -206 0zm734 151l-104 -147c62,-20 97,-67 97,-135 0,-91 -66,-146 -174,-146l-161 0 0 428 46 0 0 -136 115 0c12,0 23,-1 34,-2l98 138 49 0zm-183 -175l-113 0 0 -214 113 0c86,0 131,39 131,107 0,68 -45,107 -131,107zm469 178c63,0 120,-21 157,-63l-28 -29c-35,37 -78,52 -127,52 -103,0 -181,-76 -181,-177 0,-102 78,-178 181,-178 49,0 92,16 127,51l28 -29c-37,-41 -94,-62 -156,-62 -129,0 -224,92 -224,218 0,125 95,217 223,217zm299 -43l0 -159 222 0 0 -38 -222 0 0 -152 249 0 0 -39 -294 0 0 428 303 0 0 -40 -258 0zm364 40l285 0 0 -40 -240 0 0 -388 -45 0 0 428zm539 3c128,0 224,-92 224,-217 0,-126 -96,-218 -224,-218 -130,0 -225,93 -225,218 0,124 95,217 225,217zm0 -40c-104,0 -181,-75 -181,-177 0,-103 77,-178 181,-178 102,0 179,75 179,178 0,102 -77,177 -179,177zm-2315 880l104 0 -191 -428 -98 0 -191 428 101 0 38 -92 199 0 38 92zm-205 -167l68 -164 68 164 -136 0zm733 167l-96 -138c55,-24 88,-71 88,-135 0,-96 -72,-155 -186,-155l-185 0 0 428 99 0 0 -120 86 0 5 0 82 120 107 0zm-109 -273c0,46 -30,75 -91,75l-80 0 0 -150 80 0c61,0 91,28 91,75zm499 273l104 0 -192 -428 -98 0 -190 428 101 0 38 -92 199 0 38 92zm-205 -167l68 -164 68 164 -136 0zm479 -296l75 0 110 -88 -102 0 -83 88zm55 470c122,0 194,-70 194,-196l0 -239 -98 0 0 236c0,81 -35,115 -95,115 -60,0 -96,-34 -96,-115l0 -236 -99 0 0 239c0,126 73,196 194,196zm371 0c101,0 154,-52 154,-158l0 -277 -249 0 0 79 150 0 0 204c0,47 -20,71 -60,71 -31,0 -56,-16 -80,-47l-55 66c32,40 82,62 140,62zm459 0c134,0 234,-94 234,-221 0,-128 -100,-222 -234,-222 -135,0 -234,94 -234,222 0,127 99,221 234,221zm0 -84c-77,0 -134,-56 -134,-137 0,-82 57,-137 134,-137 76,0 134,55 134,137 0,81 -58,137 -134,137z"/>
   <path class="fil0" d="M39597 15196l-105 -147c62,-20 98,-67 98,-135 0,-91 -66,-146 -175,-146l-160 0 0 428 45 0 0 -136 115 0c12,0 23,-1 34,-2l98 138 50 0zm-183 -175l-114 0 0 -214 114 0c85,0 131,39 131,107 0,68 -46,107 -131,107zm532 -364l-58 0 -84 76 43 0 99 -76zm-204 499l0 -159 221 0 0 -38 -221 0 0 -152 248 0 0 -39 -293 0 0 428 303 0 0 -40 -258 0zm663 -30c-33,24 -71,33 -112,33 -105,0 -183,-76 -183,-177 0,-103 78,-178 184,-178 50,0 93,15 129,50l28 -28c-38,-41 -94,-62 -159,-62 -131,0 -226,92 -226,218 0,125 95,217 225,217 59,0 117,-18 157,-54l0 -163 -43 0 0 144zm171 70l45 0 0 -428 -45 0 0 428zm303 3c109,0 159,-54 159,-117 0,-156 -263,-85 -263,-202 0,-43 35,-78 113,-78 38,0 81,12 117,36l16 -36c-35,-24 -85,-38 -133,-38 -109,0 -158,54 -158,117 0,159 264,86 264,204 0,42 -35,76 -115,76 -57,0 -111,-22 -142,-52l-17 35c32,33 95,55 159,55zm-2290 840l-1 -428 -82 0 -157 266 -160 -266 -82 0 0 428 93 0 0 -252 125 206 44 0 126 -211 1 257 93 0zm102 0l99 0 0 -428 -99 0 0 428zm489 -96c-25,14 -50,19 -77,19 -82,0 -139,-57 -139,-137 0,-82 57,-137 140,-137 44,0 80,15 111,48l64 -59c-42,-48 -104,-74 -179,-74 -137,0 -236,93 -236,222 0,129 99,221 234,221 61,0 126,-19 173,-54l0 -174 -91 0 0 125zm182 96l314 0 0 -81 -214 0 0 -347 -100 0 0 428zm370 0l99 0 0 -428 -99 0 0 428zm408 7c134,0 234,-94 234,-221 0,-128 -100,-222 -234,-222 -136,0 -235,94 -235,222 0,127 99,221 235,221zm0 -84c-77,0 -134,-56 -134,-137 0,-82 57,-137 134,-137 76,0 133,55 133,137 0,81 -57,137 -133,137zm687 77l-96 -138c56,-24 88,-71 88,-135 0,-96 -71,-155 -185,-155l-186 0 0 428 99 0 0 -120 87 0 4 0 83 120 106 0zm-108 -273c0,46 -30,75 -91,75l-81 0 0 -150 81 0c61,0 91,28 91,75zm277 193l0 -99 199 0 0 -77 -199 0 0 -93 225 0 0 -79 -323 0 0 428 331 0 0 -80 -233 0zm312 80l314 0 0 -81 -215 0 0 -347 -99 0 0 428zm369 0l314 0 0 -81 -215 0 0 -347 -99 0 0 428zm370 0l99 0 0 -428 -99 0 0 428z"/>
  </g>
  <rect class="fil3" y="13975" width="47589.7" height="99.2418"/>
  <rect class="fil3" width="47589.7" height="99.2418"/>
 </g>
</svg>
