<?xml version="1.0" encoding="UTF-8"?>
<!DOCTYPE svg PUBLIC "-//W3C//DTD SVG 1.1//EN" "http://www.w3.org/Graphics/SVG/1.1/DTD/svg11.dtd">
<!-- Creator: CorelDRAW X7 -->
<svg xmlns="http://www.w3.org/2000/svg" xml:space="preserve" width="129.226mm" height="47.3641mm" version="1.1" style="shape-rendering:geometricPrecision; text-rendering:geometricPrecision; image-rendering:optimizeQuality; fill-rule:evenodd; clip-rule:evenodd"
viewBox="0 0 12923 4736"
 xmlns:xlink="http://www.w3.org/1999/xlink">
 <defs>
  <style type="text/css">
   <![CDATA[
    .fil0 {fill:white}
   ]]>
  </style>
 </defs>
 <g id="Camada_x0020_1">
  <metadata id="CorelCorpID_0Corel-Layer"/>
  <g id="_2719808759648">
   <g>
    <path class="fil0" d="M2358 1125c616,-350 1366,-492 2035,-312l0 998 -2035 0 0 -686zm2035 1034l0 2388c-457,-403 -1289,-352 -2035,112l0 -2500 2035 0zm-2591 -1032c80,0 159,6 236,16l0 668 -1650 0c330,-416 841,-684 1414,-684zm236 1032l0 684 -2038 0c12,-244 72,-475 171,-684l1867 0zm0 873l0 758 -1824 0c-123,-228 -199,-485 -213,-758l2037 0zm0 947l0 742c-77,10 -156,15 -236,15 -606,0 -1142,-298 -1469,-757l1705 0z"/>
    <path class="fil0" d="M2358 902c494,-554 1196,-862 1947,-902l0 149c-818,67 -1418,371 -1947,753z"/>
    <path class="fil0" d="M2358 1033c647,-544 1437,-726 2035,-647 0,81 0,97 0,177 -559,-109 -1498,112 -2035,470z"/>
   </g>
   <g>
    <path class="fil0" d="M8105 1496c-32,0 -46,4 -46,-12l0 -725c104,0 193,-20 193,146l0 440c0,48 -10,88 -31,116 -21,28 -66,35 -116,35zm-173 127l201 0c170,0 250,-112 250,-282l0 -432c0,-184 -93,-281 -266,-281l-185 0 0 995z"/>
    <path class="fil0" d="M9221 1496l-47 0 0 -737c102,0 193,-21 193,150l0 432c0,127 -48,155 -146,155zm-174 127l197 0c183,0 255,-118 255,-301 0,-97 9,-442 -14,-518 -63,-207 -229,-176 -438,-176l0 995z"/>
    <path class="fil0" d="M6909 1372c0,71 18,136 62,185 17,20 47,40 73,51 56,22 148,19 203,-14 90,-55 110,-147 110,-264l0 -691c0,-9 -3,-11 -12,-11l-119 0 0 729c0,127 -43,135 -112,135 -60,0 -77,-73 -77,-135l0 -729 -128 0 0 744z"/>
    <path class="fil0" d="M8738 986l54 232 -108 0c18,-77 36,-154 54,-232zm-277 637l131 0c2,-22 11,-46 15,-70 8,-48 43,-171 46,-208l170 0 57 248c8,41 -2,30 140,30l-28 -127c-19,-74 -38,-176 -58,-250 -28,-103 -61,-267 -88,-375l-50 -220c-7,-31 5,-23 -100,-23 -16,0 -13,20 -21,52 -5,22 -8,43 -14,63 -12,39 -19,83 -29,125 -41,159 -76,342 -116,502 -4,14 -55,232 -55,253z"/>
    <path class="fil0" d="M6080 986l8 27c7,38 45,183 46,205l-108 0c17,-77 36,-155 54,-232zm-278 637l131 0 62 -278 162 0c14,0 12,15 14,28l42 182c5,26 11,68 25,68l123 0c0,-19 -21,-100 -27,-124l-130 -560c-5,-21 -8,-40 -14,-63l-60 -248 -101 0 -85 369c-9,40 -21,85 -29,125 -17,85 -41,163 -58,248 -8,45 -55,225 -55,253z"/>
    <path class="fil0" d="M9572 639l0 984 413 0 0 -127 -282 0 0 -305 282 0 0 -131 -282 0 0 -301 282 0 0 -131 -402 0c-8,0 -11,2 -11,11z"/>
    <path class="fil0" d="M6388 890l0 471c0,154 83,262 240,262 148,0 231,-122 231,-255l0 -96 -127 0c-13,53 19,196 -75,218 -102,24 -141,-48 -141,-141l0 -444c0,-35 7,-79 20,-102 20,-35 45,-44 92,-44 58,0 79,27 93,73 20,68 -9,147 18,147l120 0c0,-105 5,-238 -95,-307 -14,-9 -22,-17 -37,-24 -84,-39 -219,-21 -278,52 -37,47 -61,107 -61,190z"/>
    <path class="fil0" d="M5300 1623l127 0 0 -432 286 0 0 -120c0,-9 -3,-11 -12,-11l-274 0 0 -301 286 0 0 -120c0,-9 -3,-11 -12,-11l-401 0 0 995z"/>
    <path class="fil0" d="M7453 1623l425 0c9,0 11,-3 11,-12l0 -108c0,-9 -2,-11 -11,-11l-297 0 0 -864 -128 0 0 995z"/>
   </g>
   <g>
    <path class="fil0" d="M8416 2340l0 762c204,0 173,15 173,-58l0 -511c3,2 1,0 5,6l326 548c5,8 4,15 15,15l174 0 0 -846c-204,0 -174,-16 -174,57l0 512 -10 -16c-4,-7 -6,-10 -10,-17 -9,-13 -15,-24 -22,-36l-213 -360c-103,-168 -55,-140 -172,-140 -28,0 -48,10 -64,24 -13,11 -28,37 -28,60z"/>
    <path class="fil0" d="M6512 2944l-154 0 0 -538c118,0 248,-19 311,66 20,26 26,39 37,75 23,78 20,219 -13,293 -32,71 -102,104 -181,104zm-327 -611l0 769c107,0 376,8 465,-20 27,-9 52,-17 76,-32 28,-17 40,-27 62,-49 133,-132 141,-411 61,-571 -14,-27 -22,-37 -39,-61 -59,-79 -186,-113 -290,-113l-247 0c-47,0 -88,27 -88,77z"/>
    <path class="fil0" d="M10228 2486c0,73 13,126 69,170 49,38 75,49 137,70 27,9 54,16 82,23l81 22c52,17 120,24 120,92 0,95 -88,104 -170,104 -81,0 -147,-32 -160,-109 -6,-38 7,-25 -163,-25 -16,0 -9,29 -4,57 4,25 8,40 16,61 75,198 438,202 577,90 71,-58 82,-144 77,-228 -8,-129 -133,-160 -228,-188 -89,-26 -274,-49 -267,-145 9,-122 189,-103 240,-70 30,20 33,25 52,56 32,54 91,40 172,40 -9,-40 -4,-60 -25,-110 -6,-16 -15,-33 -23,-46l-24 -27c-79,-78 -171,-79 -274,-79 -109,0 -217,43 -259,134 -11,23 -26,76 -26,108z"/>
    <path class="fil0" d="M7720 2336l0 754c0,9 2,12 11,12l589 0c9,0 11,-3 11,-12l0 -146 -438 0 0 -215 238 0c102,0 89,-81 89,-146l-327 0 0 -177 438 0 0 -150 -515 0c-56,0 -96,28 -96,80z"/>
    <path class="fil0" d="M5704 2436c0,20 32,104 40,130l72 217 -227 0 104 -327c4,-14 0,-12 11,-20zm-404 666l177 0c14,0 11,-11 20,-38l28 -88c5,-15 12,-32 14,-47l327 0 48 155c3,11 1,18 13,18l166 0c13,0 10,-7 6,-18 -4,-11 -7,-16 -11,-28l-77 -215c-6,-18 -13,-35 -19,-54l-78 -215c-14,-36 -24,-72 -37,-108l-59 -161c-23,-59 14,-47 -156,-47 -52,0 -71,26 -86,65l-79 220c-15,39 -25,75 -40,114 -14,35 -157,430 -157,447z"/>
    <path class="fil0" d="M11955 2436l112 347 -227 0 104 -327c5,-14 1,-12 11,-20zm-404 666l185 0 54 -173 327 0c1,14 7,28 12,41l42 132c53,0 113,2 166,0 23,-1 20,0 2,-49l-111 -308c-7,-21 -14,-39 -21,-60l-45 -125c-6,-19 -15,-41 -23,-62 -14,-40 -30,-81 -44,-125 -7,-22 -14,-40 -22,-62 -5,-12 -7,-17 -11,-31 -4,-12 -6,-24 -18,-24 -66,0 -147,-10 -187,17 -28,20 -56,122 -69,158l-80 223c-8,23 -156,425 -157,448z"/>
    <path class="fil0" d="M7193 3102l146 0c14,0 21,-39 33,-71l46 -135c12,-37 23,-71 36,-106l73 -212c6,-18 11,-33 17,-52l56 -160c6,-21 34,-95 35,-110 -40,0 -83,-1 -123,0 -85,2 -84,60 -108,138l-69 238c-5,15 -8,31 -14,48l-41 143c-5,18 -13,33 -14,52 -12,-9 -33,-95 -38,-112l-55 -195c-8,-25 -14,-54 -22,-78 -8,-25 -17,-54 -23,-77 -7,-28 -13,-52 -21,-79l-22 -78 -192 0c0,13 67,200 71,213l55 160c3,10 6,16 9,26l138 400c5,14 10,47 27,47z"/>
    <path class="fil0" d="M9197 2348l0 62 246 0 0 680c0,9 3,12 12,12l154 0c8,0 11,-3 11,-12l0 -680 239 0c9,0 11,-3 11,-12l0 -131c0,-9 -2,-11 -11,-11l-570 0c-54,0 -92,41 -92,92z"/>
    <path class="fil0" d="M10974 2340l0 70 246 0 0 680c0,9 3,12 12,12l154 0c9,0 11,-3 11,-12l0 -680 247 0 0 -154 -577 0c-49,0 -93,36 -93,84z"/>
    <path class="fil0" d="M9943 2356l0 734c0,9 3,12 12,12l154 0c9,0 11,-3 11,-12l0 -834c-90,0 -177,-18 -177,100z"/>
   </g>
   <g>
    <path class="fil0" d="M7026 4559l-76 0 0 -292c0,-21 48,-9 84,-8 99,4 92,103 92,181 0,69 -25,119 -100,119zm4 -430l-80 0 0 -300c58,0 125,-9 153,31 32,47 33,188 0,234 -14,20 -39,35 -73,35zm-207 561c87,0 221,8 294,-17 152,-53 160,-277 122,-392 -14,-43 -26,-54 -47,-87 20,-31 33,-43 46,-84 33,-98 28,-258 -40,-337 -38,-46 -97,-75 -179,-75l-196 0 0 992z"/>
    <path class="fil0" d="M5508 4559l-81 0 0 -730c68,0 137,-11 167,37 14,24 25,58 25,94l0 461c0,76 -27,138 -111,138zm-208 131c94,0 229,10 307,-20 23,-9 44,-21 62,-38 55,-53 81,-125 81,-223l0 -434c0,-84 -24,-158 -66,-203l-4 -4c-1,-1 -6,-7 -7,-8l-4 -4c-20,-18 -30,-23 -56,-36 -67,-32 -229,-22 -313,-22l0 992z"/>
    <path class="fil0" d="M7911 4690l119 0c9,0 11,-3 11,-12l0 -418 185 0 0 418c0,9 3,12 12,12l119 0 0 -992 -119 0c-9,0 -12,3 -12,12l0 419 -185 0 0 -419c0,-9 -2,-12 -11,-12l-119 0 0 992z"/>
    <path class="fil0" d="M9053 4286l-96 0c0,-11 42,-203 51,-225 0,-1 1,-2 1,-3 0,0 1,-1 1,-2 10,39 18,78 28,118l22 91c3,14 6,21 -7,21zm-323 404l130 0 33 -137c6,-24 10,-44 16,-68 5,-21 10,-57 17,-72l169 0c3,33 59,252 61,277 29,0 57,0 85,0 45,0 55,10 44,-28l-32 -138c-36,-174 -91,-371 -128,-548l-65 -278 -103 0 -221 960c-2,9 -5,20 -6,32z"/>
    <path class="fil0" d="M7649 4286l-96 0c1,-27 13,-63 18,-85l34 -144c0,0 1,-2 1,-2 0,-1 0,-2 1,-3 2,18 9,39 13,60l36 153c4,14 7,21 -7,21zm-323 404c159,0 127,19 146,-61 8,-32 47,-193 47,-216l173 0 61 277c140,0 137,10 128,-28l-96 -411c-6,-26 -11,-47 -16,-69l-112 -484 -104 0 -227 992z"/>
    <path class="fil0" d="M6104 4052l7 27c8,39 46,186 46,207 -130,0 -111,13 -96,-49l43 -185zm-277 638l131 0 46 -207c3,-10 5,-23 8,-35 3,-14 7,-18 7,-35l162 0c14,0 17,37 23,65l42 182c8,40 -11,30 138,30l-223 -968c-5,-32 -6,-24 -100,-24 -13,0 -11,8 -14,21 -3,13 -4,18 -6,32l-44 187c-34,162 -78,336 -115,500l-43 187c-5,20 -12,42 -12,65z"/>
    <polygon class="fil0" points="8499,4690 8626,4690 8626,3698 8499,3698 "/>
   </g>
   <polygon class="fil0" points="5300,3436 12923,3436 12923,3334 5300,3334 "/>
   <polygon class="fil0" points="5300,2004 12923,2004 12923,1902 5300,1902 "/>
  </g>
 </g>
</svg>
