<?xml version="1.0" encoding="UTF-8"?>
<!DOCTYPE svg PUBLIC "-//W3C//DTD SVG 1.1//EN" "http://www.w3.org/Graphics/SVG/1.1/DTD/svg11.dtd">
<!-- Creator: CorelDRAW X7 -->
<svg xmlns="http://www.w3.org/2000/svg" xml:space="preserve" width="210mm" height="226.393mm" version="1.1" style="shape-rendering:geometricPrecision; text-rendering:geometricPrecision; image-rendering:optimizeQuality; fill-rule:evenodd; clip-rule:evenodd"
viewBox="0 0 21000 22639"
 xmlns:xlink="http://www.w3.org/1999/xlink">
 <defs>
  <style type="text/css">
   <![CDATA[
    .fil0 {fill:white}
   ]]>
  </style>
 </defs>
 <g id="Camada_x0020_1">
  <metadata id="CorelCorpID_0Corel-Layer"/>
  <path class="fil0" d="M11269 5379c2945,-1677 6531,-2354 9731,-1491l0 4770 -9731 0 0 -3279zm0 -443c3096,-2598 6871,-3469 9731,-3091 0,386 0,462 0,847 -2675,-524 -7161,536 -9731,2244zm0 -624c2365,-2649 5717,-4119 9310,-4312l0 715c-3910,315 -6781,1770 -9310,3597zm9731 6009l0 11413c-2186,-1927 -6165,-1682 -9731,533l0 -11946 9731 0zm-12386 -4932c382,0 758,25 1127,73l0 3196 -7887 0c1580,-1992 4021,-3269 6760,-3269zm1127 4932l0 3267 -9741 0c57,-1165 345,-2269 819,-3267l8922 0zm0 4174l0 3619 -8717 0c-588,-1087 -950,-2314 -1022,-3619l9739 0zm0 4525l0 3546c-369,48 -745,73 -1127,73 -2896,0 -5460,-1428 -7024,-3619l8151 0z"/>
 </g>
</svg>
